{"glyphs":{"0":{"ha":951,"x_min":35,"x_max":917,"o":"m 35 481 q 66 725 35 619 q 155 901 97 831 q 294 1008 213 972 q 475 1044 375 1044 q 657 1008 575 1044 q 797 901 739 972 q 885 725 854 831 q 917 481 917 619 q 885 236 917 342 q 797 60 854 131 q 657 -47 739 -11 q 475 -83 575 -83 q 294 -48 375 -83 q 155 58 213 -12 q 66 235 97 129 q 35 481 35 340 m 314 538 l 289 500 q 468 450 368 463 q 668 438 568 438 l 668 479 q 477 492 568 479 q 314 538 386 506 z "},"1":{"ha":653,"x_min":35,"x_max":563,"o":"m 563 -61 l 146 -61 l 146 564 q 228 602 190 581 q 300 646 267 624 l 276 671 q 226 639 256 656 q 165 607 197 622 q 98 577 132 592 q 35 551 64 563 l 35 892 q 153 947 100 914 q 271 1024 206 979 l 563 1024 l 563 -61 z "},"2":{"ha":858,"x_min":28,"x_max":831,"o":"m 28 -61 l 28 182 q 227 393 136 294 q 388 578 318 492 q 417 633 410 606 q 422 683 425 661 q 398 722 419 707 q 342 736 376 736 q 188 712 261 736 q 39 631 115 688 l 39 940 q 205 1015 106 986 q 449 1044 304 1044 q 831 707 831 1044 q 815 599 831 651 q 771 497 799 546 q 705 400 743 447 q 622 307 667 353 q 585 269 607 290 q 541 226 564 249 q 496 181 518 203 q 456 140 474 158 l 485 128 q 544 183 510 151 q 607 235 579 214 l 817 235 l 817 -61 l 28 -61 z "},"3":{"ha":858,"x_min":39,"x_max":831,"o":"m 831 260 q 800 112 831 175 q 714 6 769 49 q 581 -57 658 -36 q 407 -78 503 -78 q 193 -59 279 -78 q 39 -1 107 -40 l 39 308 q 165 253 96 276 q 314 231 235 231 q 350 235 331 231 q 385 249 369 239 q 412 274 401 258 q 422 311 422 289 q 355 383 422 365 q 179 389 288 400 l 179 606 q 275 605 231 603 q 352 615 319 607 q 403 637 385 622 q 422 674 422 651 q 399 719 422 701 q 328 736 376 736 q 253 730 292 736 q 178 713 215 724 q 105 687 140 701 q 39 656 69 672 l 39 968 q 205 1024 106 1004 q 449 1044 304 1044 q 735 960 640 1044 q 831 721 831 876 q 803 601 831 653 q 736 514 776 550 q 648 458 696 478 q 557 432 600 438 l 567 400 q 651 423 607 407 q 731 463 694 439 q 765 429 747 450 q 797 381 782 408 q 821 323 811 354 q 831 260 831 292 z "},"4":{"ha":971,"x_min":36,"x_max":956,"o":"m 36 64 l 36 333 l 475 1024 l 864 1024 l 864 361 l 956 361 l 956 64 l 864 64 l 864 -61 l 447 -61 l 447 64 l 36 64 m 388 501 l 363 464 q 506 414 442 426 q 631 401 571 401 l 631 443 q 517 456 575 443 q 388 501 460 469 z "},"5":{"ha":858,"x_min":36,"x_max":828,"o":"m 439 728 l 439 672 q 731 583 633 672 q 828 329 828 494 q 793 151 828 228 q 697 24 758 75 q 554 -52 636 -26 q 376 -78 472 -78 q 192 -62 279 -78 q 36 -15 106 -47 l 36 294 q 283 231 151 231 q 329 235 306 231 q 373 251 353 240 q 406 278 393 261 q 419 319 419 296 q 380 383 419 363 q 283 404 340 404 l 36 404 l 36 1024 l 760 1024 l 760 728 l 439 728 z "},"6":{"ha":931,"x_min":36,"x_max":900,"o":"m 533 733 q 482 724 510 731 q 426 709 454 718 q 374 690 399 700 q 332 667 349 679 l 349 636 q 384 659 363 649 q 430 678 406 669 q 478 691 454 686 q 522 696 503 696 q 664 668 596 696 q 785 592 732 640 q 869 475 838 543 q 900 326 900 407 q 866 157 900 232 q 775 30 832 82 q 640 -50 718 -22 q 475 -78 563 -78 q 301 -49 382 -78 q 162 31 221 -21 q 69 158 103 83 q 36 328 36 233 q 53 481 36 397 q 107 629 71 564 l 326 1024 l 697 1024 l 533 733 m 336 376 l 311 339 q 394 308 350 319 q 483 289 439 296 q 566 279 526 282 q 635 276 606 276 l 635 318 q 570 322 607 318 q 494 332 533 325 q 413 350 454 339 q 336 376 372 361 z "},"7":{"ha":836,"x_min":14,"x_max":819,"o":"m 14 1024 l 819 1024 l 819 756 l 436 -62 l 56 -62 l 415 728 l 14 728 l 14 1024 z "},"8":{"ha":875,"x_min":24,"x_max":846,"o":"m 715 492 q 810 388 775 456 q 846 246 846 321 q 819 106 846 168 q 743 -1 793 43 q 620 -68 693 -44 q 454 -92 547 -92 q 274 -73 354 -92 q 139 -13 194 -54 q 53 92 83 28 q 24 246 24 156 q 31 311 24 278 q 52 376 39 344 q 83 433 65 407 q 124 476 101 460 q 203 437 160 453 q 288 414 247 421 l 297 446 q 210 472 254 451 q 131 528 167 492 q 74 615 96 564 q 51 735 51 667 q 81 855 51 799 q 160 953 110 911 q 280 1020 211 996 q 426 1044 349 1044 q 587 1022 513 1044 q 715 956 661 999 q 800 854 769 914 q 831 721 831 794 q 823 656 831 689 q 801 593 815 624 q 765 536 786 563 q 715 492 743 510 m 340 793 l 315 756 q 437 717 375 728 q 543 707 499 706 l 543 749 q 500 751 525 749 q 447 760 475 754 q 390 774 418 765 q 340 793 363 782 m 299 279 l 274 242 q 360 210 313 222 q 453 192 407 199 q 541 182 499 185 q 613 179 583 179 l 613 221 q 546 224 585 221 q 464 235 507 228 q 378 253 421 242 q 299 279 335 264 z "},"9":{"ha":931,"x_min":36,"x_max":900,"o":"m 403 231 q 453 240 425 233 q 510 255 482 246 q 563 274 538 264 q 604 297 588 285 l 588 328 q 551 304 572 315 q 506 285 529 293 q 458 271 482 276 q 414 265 433 265 q 272 293 340 265 q 151 369 204 321 q 67 485 99 418 q 36 635 36 553 q 70 804 36 729 q 161 932 104 879 q 296 1013 218 985 q 461 1042 374 1042 q 635 1013 554 1042 q 774 933 715 985 q 867 805 833 881 q 900 636 900 729 q 883 483 900 567 q 829 335 865 400 l 610 -60 l 239 -60 l 403 231 m 322 699 l 297 661 q 381 630 336 642 q 469 611 425 618 q 552 601 513 604 q 621 599 592 599 l 621 640 q 556 644 593 640 q 480 654 519 647 q 399 672 440 661 q 322 699 358 683 z "},"\u0000":{"ha":0,"x_min":0,"x_max":0,"o":""},"\r":{"ha":0,"x_min":0,"x_max":0,"o":""}," ":{"ha":418,"x_min":0,"x_max":0,"o":""},"#":{"ha":1097,"x_min":22,"x_max":1074,"o":"m 471 -61 l 51 -61 l 72 146 l 22 146 l 22 496 l 110 496 l 114 535 l 22 535 l 22 885 l 150 885 l 165 1024 l 582 1024 l 568 885 l 608 885 l 624 1024 l 1040 1024 l 1026 885 l 1074 885 l 1074 535 l 990 535 l 986 496 l 1074 496 l 1074 146 l 950 146 l 929 -61 l 510 -61 l 531 146 l 492 146 l 471 -61 m 383 544 l 358 507 q 538 457 438 469 q 738 444 638 444 l 738 486 q 547 499 638 486 q 383 544 456 513 z "},"$":{"ha":1092,"x_min":36,"x_max":1056,"o":"m 318 1082 l 781 1082 l 781 1019 q 919 978 854 1003 q 1042 921 985 953 l 1042 579 q 913 639 976 617 q 789 672 850 661 q 667 687 728 683 q 546 690 606 690 l 546 651 q 922 574 788 651 q 1056 328 1056 496 q 985 90 1056 189 q 781 -53 914 -8 l 781 -118 l 318 -118 l 318 -47 q 185 8 251 -26 q 50 90 118 42 l 50 404 q 263 330 150 357 q 483 303 376 303 l 483 342 q 297 371 374 350 q 172 420 221 392 q 94 482 122 449 q 54 549 67 515 q 39 613 42 582 q 36 669 36 644 q 112 886 36 799 q 318 1014 188 974 l 318 1082 z "},"%":{"ha":1514,"x_min":19,"x_max":1494,"o":"m 19 708 q 38 844 19 783 q 93 948 56 906 q 187 1014 131 990 q 319 1038 243 1038 q 545 948 471 1038 q 619 708 619 858 q 545 469 619 558 q 319 381 471 381 q 93 469 167 381 q 19 708 19 558 m 743 -61 l 393 -61 l 778 1024 l 1125 1024 l 743 -61 m 161 733 q 295 676 219 696 q 450 657 371 657 l 450 696 q 304 716 371 696 q 186 768 238 736 l 161 733 m 894 240 q 913 376 894 315 q 968 480 931 438 q 1062 546 1006 522 q 1194 569 1118 569 q 1420 480 1346 569 q 1494 240 1494 390 q 1420 1 1494 90 q 1194 -87 1346 -87 q 968 1 1042 -87 q 894 240 894 90 m 1036 265 q 1170 208 1094 228 q 1325 189 1246 189 l 1325 228 q 1179 248 1246 228 q 1061 300 1113 268 l 1036 265 z "},"&":{"ha":1086,"x_min":24,"x_max":1082,"o":"m 942 126 l 1051 -61 l 619 -61 l 594 -25 q 554 -49 581 -37 q 496 -69 528 -60 q 431 -83 464 -78 q 368 -89 397 -89 q 241 -67 303 -89 q 131 -3 179 -44 q 53 99 82 39 q 24 232 24 158 q 31 301 24 264 q 55 376 39 339 q 96 448 71 414 q 156 507 121 482 q 92 597 118 542 q 65 721 65 653 q 94 847 65 788 q 174 949 124 906 q 294 1019 225 993 q 440 1044 363 1044 q 601 1021 526 1044 q 729 953 675 997 q 814 847 783 910 q 844 707 844 785 q 824 603 844 654 q 763 508 804 553 q 788 476 774 497 l 918 542 l 1082 199 l 942 126 m 354 779 l 329 742 q 451 703 389 714 q 557 693 513 692 l 557 735 q 514 738 539 735 q 460 746 489 740 q 404 760 432 751 q 354 779 376 768 m 326 307 l 301 269 q 373 241 333 253 q 452 222 413 229 q 527 210 492 214 q 585 207 563 207 l 585 249 q 535 253 568 249 q 464 265 501 257 q 390 283 426 272 q 326 307 353 294 z "},"'":{"ha":435,"x_min":65,"x_max":369,"o":"m 369 669 l 65 669 l 65 1024 l 369 1024 l 369 669 z "},"(":{"ha":556,"x_min":60,"x_max":528,"o":"m 528 -139 q 326 -99 414 -139 q 180 17 239 -58 q 90 203 121 93 q 60 453 60 313 q 89 701 60 592 q 177 888 118 811 q 324 1004 236 964 q 528 1044 411 1044 l 528 650 l 467 650 l 467 225 l 528 225 l 528 -139 l 528 -139 z "},")":{"ha":556,"x_min":28,"x_max":496,"o":"m 28 -139 l 28 225 l 89 225 l 89 650 l 28 650 l 28 1044 q 232 1004 144 1044 q 378 888 319 964 q 467 701 438 811 q 496 453 496 592 q 465 203 496 313 q 375 17 435 93 q 228 -99 315 -58 q 28 -139 142 -139 z "},"*":{"ha":967,"x_min":1,"x_max":967,"o":"m 1 593 l 113 910 l 332 778 l 292 1022 l 678 1022 l 644 828 l 465 732 l 483 693 l 856 896 l 967 593 l 725 538 l 883 349 l 639 149 l 490 383 l 340 163 l 76 363 l 224 540 l 1 593 z "},"+":{"ha":1043,"x_min":50,"x_max":988,"o":"m 713 56 l 326 56 l 326 300 l 50 300 l 50 686 l 326 686 l 326 910 l 713 910 l 713 686 l 988 686 l 988 300 l 713 300 l 713 56 z "},",":{"ha":474,"x_min":43,"x_max":415,"o":"m 336 -219 l 43 -219 q 53 -145 49 -181 q 59 -73 57 -110 q 62 3 61 -36 q 63 92 63 43 l 63 246 l 415 246 l 415 161 q 409 62 415 113 q 392 -38 403 11 q 367 -134 382 -87 q 336 -219 353 -181 z "},"-":{"ha":760,"x_min":50,"x_max":710,"o":"m 50 301 l 50 688 l 710 688 l 710 301 l 50 301 z "},".":{"ha":474,"x_min":50,"x_max":424,"o":"m 424 -117 l 149 -117 q 76 -97 101 -117 q 50 -28 50 -76 l 50 246 l 424 246 l 424 -117 z "},"/":{"ha":847,"x_min":7,"x_max":836,"o":"m 454 -61 l 7 -61 l 392 1024 l 836 1024 l 454 -61 z "},":":{"ha":474,"x_min":50,"x_max":424,"o":"m 424 522 l 149 522 q 76 542 101 522 q 50 611 50 563 l 50 885 l 424 885 l 424 522 m 424 -61 l 149 -61 q 76 -41 101 -61 q 50 28 50 -21 l 50 301 l 424 301 l 424 -61 z "},";":{"ha":474,"x_min":43,"x_max":424,"o":"m 424 522 l 149 522 q 76 542 101 522 q 50 611 50 563 l 50 885 l 424 885 l 424 522 m 336 -164 l 43 -164 q 53 -90 49 -125 q 59 -17 57 -54 q 62 59 61 19 q 63 147 63 99 l 63 301 l 415 301 l 415 217 q 409 117 415 168 q 392 17 403 67 q 367 -78 382 -32 q 336 -164 353 -125 z "},"<":{"ha":556,"x_min":10,"x_max":556,"o":"m 10 454 l 144 1024 l 556 1024 l 404 454 l 556 -117 l 144 -117 l 10 454 z "},"=":{"ha":760,"x_min":50,"x_max":710,"o":"m 50 536 l 50 867 l 710 867 l 710 536 l 50 536 m 50 147 l 50 478 l 710 478 l 710 147 l 50 147 z "},">":{"ha":556,"x_min":0,"x_max":546,"o":"m 546 454 l 411 -117 l 0 -117 l 151 454 l 0 1024 l 411 1024 l 546 454 z "},"?":{"ha":858,"x_min":39,"x_max":831,"o":"m 624 251 l 229 251 l 229 486 q 301 510 267 494 q 364 545 336 525 q 408 590 392 565 q 425 642 425 614 q 401 711 425 686 q 342 736 376 736 q 188 712 261 736 q 39 631 115 688 l 39 940 q 205 1015 106 986 q 449 1044 304 1044 q 616 1020 544 1044 q 735 951 688 996 q 807 844 783 907 q 831 707 831 782 q 781 501 831 594 q 624 349 731 407 l 624 251 m 624 -117 l 321 -117 q 248 -97 274 -117 q 222 -28 222 -76 l 222 218 l 624 218 l 624 -117 z "},"@":{"ha":1233,"x_min":22,"x_max":1206,"o":"m 1196 481 q 1150 314 1186 378 q 1050 217 1114 250 q 894 178 986 185 q 683 185 803 172 l 683 218 q 667 331 683 278 q 625 419 651 383 l 596 408 q 618 369 608 393 q 635 317 628 346 q 647 258 643 289 q 650 201 650 228 q 563 178 613 186 q 450 169 514 169 q 310 219 356 169 q 264 349 264 268 q 294 470 264 428 q 390 536 324 513 q 447 552 415 544 q 515 565 479 560 q 586 572 550 569 q 654 575 622 575 l 654 607 q 490 593 579 607 q 315 550 401 579 l 315 758 q 458 801 379 788 q 643 815 538 815 q 776 801 721 815 q 866 755 831 788 q 917 669 901 722 q 933 539 933 617 l 933 439 l 967 429 l 967 543 q 949 686 967 628 q 892 781 931 744 q 793 832 854 817 q 647 847 732 847 q 443 832 532 847 q 283 785 354 817 l 283 518 q 251 478 263 501 q 236 431 240 456 q 231 382 232 407 q 231 335 231 357 q 281 192 231 246 q 436 138 332 138 q 547 135 486 138 q 674 131 608 132 q 803 131 739 131 q 927 140 868 132 q 1035 161 986 147 q 1117 200 1085 175 q 1068 108 1101 157 q 976 16 1035 58 q 828 -55 917 -26 q 615 -83 740 -83 q 341 -40 454 -83 q 157 78 228 3 q 54 258 86 154 q 22 481 22 361 q 67 729 22 624 q 193 905 113 835 q 382 1010 274 975 q 615 1044 490 1044 q 894 999 779 1044 q 1079 877 1008 954 q 1178 698 1150 800 q 1196 481 1206 596 z "},"A":{"ha":1139,"x_min":0,"x_max":1139,"o":"m 500 -61 l 0 -61 l 333 1024 l 806 1024 l 1139 -61 l 639 -61 l 569 164 l 500 -61 m 411 517 l 386 479 q 565 429 465 442 q 765 417 665 417 l 765 458 q 574 472 665 458 q 411 517 483 485 z "},"B":{"ha":1057,"x_min":50,"x_max":1031,"o":"m 761 -61 l 50 -61 l 50 1024 l 751 1024 q 852 1008 804 1024 q 936 961 900 993 q 994 879 972 929 q 1015 760 1015 829 q 976 597 1015 660 q 876 500 938 535 q 987 397 943 471 q 1031 218 1031 322 q 1008 100 1031 151 q 949 13 986 49 q 864 -42 913 -24 q 761 -61 815 -61 m 379 765 l 360 732 q 418 715 383 722 q 491 701 453 707 q 569 691 529 694 q 642 688 608 688 l 642 725 q 570 729 608 725 q 497 739 532 733 q 431 751 461 744 q 379 765 400 758 m 365 293 l 346 260 q 408 242 369 250 q 491 228 447 235 q 578 219 535 222 q 656 215 622 215 l 656 253 q 580 257 622 253 q 497 267 538 261 q 421 279 456 272 q 365 293 386 286 z "},"C":{"ha":1051,"x_min":35,"x_max":1014,"o":"m 35 481 q 176 902 35 760 q 586 1044 317 1044 q 817 1010 715 1044 q 1014 906 919 976 l 1014 490 q 860 494 933 490 q 713 504 786 497 q 564 524 640 511 q 400 553 488 536 l 400 511 q 713 461 564 474 q 1014 449 863 449 l 1014 83 q 904 3 958 35 q 792 -49 850 -29 q 669 -76 733 -68 q 531 -83 606 -83 q 326 -48 418 -83 q 170 58 235 -12 q 70 235 106 129 q 35 481 35 340 z "},"D":{"ha":1056,"x_min":50,"x_max":1029,"o":"m 428 -61 l 50 -61 l 50 1024 l 418 1024 q 684 997 569 1024 q 875 906 799 969 q 990 736 951 842 q 1029 472 1029 631 q 992 208 1029 311 q 881 45 956 106 q 694 -38 807 -15 q 428 -61 581 -61 m 314 550 l 289 513 q 397 484 339 496 q 516 465 456 472 q 637 453 576 457 q 751 450 697 450 l 751 492 q 639 496 697 492 q 524 508 581 500 q 414 526 468 515 q 314 550 360 538 z "},"E":{"ha":958,"x_min":50,"x_max":908,"o":"m 908 -62 l 50 -62 l 50 1024 l 908 1024 l 908 697 l 467 697 l 467 649 l 908 649 l 908 313 l 467 313 l 467 264 l 908 264 l 908 -62 z "},"F":{"ha":958,"x_min":50,"x_max":908,"o":"m 467 -62 l 50 -62 l 50 1024 l 908 1024 l 908 669 l 467 669 l 467 621 l 908 621 l 908 271 l 467 271 l 467 -62 z "},"G":{"ha":1107,"x_min":35,"x_max":1069,"o":"m 35 481 q 75 725 35 619 q 190 901 115 831 q 373 1008 265 972 q 614 1044 481 1044 q 742 1039 678 1044 q 865 1021 806 1033 q 976 990 924 1008 q 1069 947 1028 972 l 1069 560 q 926 563 989 560 q 807 574 864 567 q 690 593 750 581 q 553 622 629 606 l 553 308 l 601 308 l 601 557 q 830 526 714 533 q 1069 518 946 518 l 1069 28 q 840 -60 971 -37 q 558 -83 710 -83 q 349 -48 446 -83 q 183 58 253 -12 q 74 235 114 129 q 35 481 35 340 z "},"H":{"ha":1157,"x_min":50,"x_max":1107,"o":"m 1107 1024 l 1107 -62 l 603 -62 l 603 185 l 554 185 l 554 -62 l 50 -62 l 50 1024 l 554 1024 l 554 776 l 603 776 l 603 1024 l 1107 1024 z "},"I":{"ha":563,"x_min":50,"x_max":513,"o":"m 513 1024 l 513 -62 l 50 -62 l 50 1024 l 513 1024 z "},"J":{"ha":1121,"x_min":36,"x_max":1071,"o":"m 553 1024 l 1071 1024 l 1071 481 q 1031 235 1071 340 q 922 58 992 129 q 756 -48 853 -12 q 547 -83 660 -83 q 326 -44 421 -83 q 166 59 231 -4 q 69 201 101 122 q 36 361 36 281 l 36 557 l 504 557 l 504 308 l 553 308 l 553 1024 z "},"K":{"ha":1113,"x_min":50,"x_max":1103,"o":"m 522 -61 l 50 -61 l 50 1024 l 522 1024 l 522 861 l 431 601 l 468 592 l 617 1024 l 1103 1024 l 896 482 l 1103 -61 l 617 -61 l 522 214 l 522 -61 z "},"L":{"ha":918,"x_min":50,"x_max":904,"o":"m 904 -61 l 50 -61 l 50 1024 l 550 1024 l 550 325 l 904 325 l 904 -61 z "},"M":{"ha":1326,"x_min":50,"x_max":1276,"o":"m 657 739 l 589 539 l 626 529 l 796 1024 l 1276 1024 l 1276 -61 l 901 -61 l 901 304 l 790 -61 l 540 -61 l 429 304 l 429 -61 l 50 -61 l 50 1024 l 568 1024 l 657 739 z "},"N":{"ha":1139,"x_min":50,"x_max":1089,"o":"m 1089 1024 l 1089 -62 l 542 -62 l 431 303 l 431 -62 l 50 -62 l 50 1024 l 599 1024 l 747 592 l 785 601 l 693 861 l 693 1024 l 1089 1024 z "},"O":{"ha":1118,"x_min":35,"x_max":1083,"o":"m 35 481 q 74 725 35 619 q 183 901 114 831 q 349 1008 253 972 q 558 1044 446 1044 q 768 1008 672 1044 q 934 901 864 972 q 1044 725 1004 831 q 1083 481 1083 619 q 1044 236 1083 342 q 934 60 1004 131 q 768 -47 864 -11 q 558 -83 672 -83 q 349 -48 446 -83 q 183 58 253 -12 q 74 235 114 129 q 35 481 35 340 m 397 538 l 372 500 q 551 450 451 463 q 751 438 651 438 l 751 479 q 560 492 651 479 q 397 538 469 506 z "},"P":{"ha":1064,"x_min":50,"x_max":1032,"o":"m 476 1024 q 731 1001 625 1024 q 903 925 836 978 q 1001 787 969 872 q 1032 578 1032 701 q 902 244 1032 356 q 522 146 772 133 l 522 -62 l 50 -62 l 50 1024 l 476 1024 m 379 594 q 453 561 408 575 q 549 538 499 547 q 649 523 599 528 q 738 518 699 518 l 738 557 q 651 563 699 557 q 558 578 604 568 q 470 601 511 588 q 404 629 429 614 l 379 594 z "},"Q":{"ha":1118,"x_min":35,"x_max":1121,"o":"m 975 107 l 1121 -228 l 617 -228 l 567 -83 l 558 -83 q 349 -48 446 -83 q 183 58 253 -12 q 74 235 114 129 q 35 481 35 340 q 74 725 35 619 q 183 901 114 831 q 349 1008 253 972 q 558 1044 446 1044 q 768 1008 672 1044 q 934 901 864 972 q 1044 725 1004 831 q 1083 481 1083 619 q 1053 259 1083 351 q 975 107 1022 167 m 397 538 l 372 500 q 551 450 451 463 q 751 438 651 438 l 751 479 q 560 492 651 479 q 397 538 469 506 z "},"R":{"ha":1065,"x_min":50,"x_max":1064,"o":"m 1032 606 q 999 439 1032 506 q 915 324 967 372 l 1064 -61 l 586 -61 l 496 201 l 494 201 l 494 -62 l 50 -62 l 50 1024 l 476 1024 q 731 997 625 1024 q 903 919 836 971 q 1001 788 969 867 q 1032 606 1032 710 m 404 664 l 379 629 q 453 596 408 610 q 549 572 499 582 q 649 558 599 563 q 738 553 699 553 l 738 592 q 651 597 699 592 q 558 613 604 603 q 470 635 511 622 q 404 664 429 649 z "},"S":{"ha":1092,"x_min":36,"x_max":1056,"o":"m 483 342 q 297 371 374 350 q 172 420 221 392 q 94 482 122 449 q 54 549 67 515 q 39 613 42 582 q 36 669 36 644 q 74 828 36 758 q 178 947 111 899 q 340 1020 246 994 q 546 1046 433 1046 q 817 1010 693 1046 q 1042 921 942 975 l 1042 579 q 913 639 976 617 q 789 672 850 661 q 667 687 728 683 q 546 690 606 690 l 546 651 q 922 574 788 651 q 1056 328 1056 496 q 1022 157 1056 233 q 925 27 989 81 q 769 -56 861 -26 q 560 -85 678 -85 q 310 -45 438 -85 q 50 90 182 -6 l 50 404 q 263 330 150 357 q 483 303 376 303 l 483 342 z "},"T":{"ha":1042,"x_min":24,"x_max":1018,"o":"m 24 1024 l 1018 1024 l 1018 669 l 757 669 l 757 -62 l 285 -62 l 285 669 l 24 669 l 24 1024 z "},"U":{"ha":1149,"x_min":50,"x_max":1099,"o":"m 50 481 l 50 1024 l 553 1024 l 553 346 l 601 346 l 601 1024 l 1099 1024 l 1099 481 q 1059 236 1099 342 q 949 60 1019 131 q 783 -47 879 -11 q 574 -83 688 -83 q 365 -48 461 -83 q 199 58 268 -12 q 90 235 129 129 q 50 481 50 340 z "},"V":{"ha":1083,"x_min":0,"x_max":1083,"o":"m 458 1024 l 533 719 l 479 511 l 517 501 l 658 1024 l 1083 1024 l 750 -61 l 347 -61 l 0 1024 l 458 1024 z "},"W":{"ha":1333,"x_min":0,"x_max":1333,"o":"m 167 -61 l 0 1024 l 431 1024 l 475 658 l 542 1024 l 792 1024 l 858 658 l 903 1024 l 1333 1024 l 1167 -61 l 736 -61 l 667 257 l 597 -61 l 167 -61 z "},"X":{"ha":1097,"x_min":1,"x_max":1096,"o":"m 549 139 l 488 -61 l 1 -61 l 222 482 l 1 1024 l 488 1024 l 549 824 l 610 1024 l 1096 1024 l 875 482 l 1096 -61 l 610 -61 l 549 139 z "},"Y":{"ha":1139,"x_min":0,"x_max":1139,"o":"m 486 1024 l 568 822 l 494 632 l 532 622 l 686 1024 l 1139 1024 l 821 303 l 821 -61 l 347 -61 l 347 300 l 0 1024 l 486 1024 z "},"Z":{"ha":961,"x_min":28,"x_max":942,"o":"m 458 728 l 50 728 l 50 1024 l 911 1024 l 911 728 l 453 140 l 482 128 l 572 235 l 942 235 l 942 -61 l 28 -61 l 28 182 l 458 728 z "},"[":{"ha":556,"x_min":76,"x_max":528,"o":"m 76 1024 l 528 1024 l 528 693 l 465 693 l 465 214 l 528 214 l 528 -117 l 76 -117 l 76 1024 z "},"\\":{"ha":847,"x_min":7,"x_max":836,"o":"m 836 -61 l 389 -61 l 7 1024 l 451 1024 l 836 -61 z "},"]":{"ha":556,"x_min":28,"x_max":479,"o":"m 479 1024 l 479 -117 l 28 -117 l 28 214 l 90 214 l 90 693 l 28 693 l 28 1024 l 479 1024 z "},"^":{"ha":1111,"x_min":14,"x_max":1097,"o":"m 639 356 l 557 557 l 631 747 l 593 757 l 439 356 l 14 356 l 306 1024 l 778 1024 l 1097 356 l 639 356 z "},"_":{"ha":871,"x_min":50,"x_max":821,"o":"m 50 -117 l 50 269 l 821 269 l 821 -117 l 50 -117 z "},"`":{"ha":494,"x_min":38,"x_max":453,"o":"m 453 669 l 135 669 l 38 1024 l 383 1024 l 453 669 z "},"a":{"ha":986,"x_min":21,"x_max":950,"o":"m 21 167 q 63 335 21 275 q 197 426 106 394 q 276 449 232 439 q 369 465 321 458 q 468 476 418 472 q 564 481 518 481 l 564 525 q 335 506 458 525 q 93 446 213 486 l 93 735 q 291 794 182 775 q 547 814 400 814 q 732 794 656 814 q 857 730 808 775 q 928 611 906 685 q 950 431 950 538 l 950 -62 l 603 -62 l 603 -15 q 581 141 603 67 q 524 264 558 215 l 482 249 q 514 195 500 228 q 538 123 528 163 q 553 41 547 83 q 558 -39 558 -1 q 436 -71 504 -58 q 278 -83 368 -83 q 85 -15 149 -83 q 21 167 21 54 z "},"b":{"ha":1056,"x_min":50,"x_max":1032,"o":"m 476 -62 l 50 -62 l 50 1024 l 522 1024 l 522 814 q 902 715 772 826 q 1032 382 1032 604 q 1001 173 1032 258 q 903 35 969 88 q 731 -40 836 -17 q 476 -62 625 -62 m 746 424 l 721 458 q 655 430 696 443 q 567 407 614 417 q 474 392 521 397 q 388 386 426 386 l 388 347 q 476 352 426 347 q 576 367 526 357 q 672 390 626 376 q 746 424 717 404 z "},"c":{"ha":992,"x_min":21,"x_max":964,"o":"m 21 358 q 56 547 21 463 q 156 691 90 632 q 318 782 222 750 q 538 814 414 814 q 776 788 668 814 q 964 710 885 763 l 964 378 q 694 388 826 378 q 432 425 563 399 l 432 376 q 558 352 492 361 q 694 338 625 343 q 831 331 763 333 q 964 329 900 329 l 964 40 q 755 -59 871 -33 q 490 -85 639 -85 q 298 -55 385 -85 q 150 32 211 -25 q 55 171 89 89 q 21 358 21 253 z "},"d":{"ha":1042,"x_min":24,"x_max":1006,"o":"m 1006 -62 l 579 -62 q 325 -40 431 -62 q 153 35 219 -17 q 55 173 86 88 q 24 382 24 258 q 153 715 24 604 q 533 814 283 826 l 533 1024 l 1006 1024 l 1006 -62 m 719 424 l 694 458 q 628 430 669 443 q 541 407 588 417 q 447 392 494 397 q 361 386 400 386 l 361 347 q 450 352 400 347 q 550 367 500 357 q 645 390 600 376 q 719 424 690 404 z "},"e":{"ha":1000,"x_min":21,"x_max":964,"o":"m 21 358 q 56 547 21 463 q 156 691 90 632 q 318 782 222 750 q 538 814 414 814 q 802 778 699 814 q 964 668 906 743 l 964 239 q 694 249 826 239 q 432 286 563 260 l 432 238 q 558 213 492 222 q 694 199 625 204 q 831 192 763 194 q 964 190 900 190 l 964 40 q 755 -59 871 -33 q 490 -85 639 -85 q 298 -55 385 -85 q 150 32 211 -25 q 55 171 89 89 q 21 358 21 253 m 432 539 l 432 499 q 492 487 458 492 q 562 478 526 482 q 631 472 597 474 q 690 469 664 469 l 690 508 q 631 510 664 508 q 565 517 599 513 q 496 526 531 521 q 432 539 461 532 z "},"f":{"ha":731,"x_min":28,"x_max":703,"o":"m 703 436 l 549 436 l 549 -62 l 76 -62 l 76 436 l 28 436 l 28 786 l 86 786 q 205 1003 113 929 q 464 1076 297 1076 q 524 1073 489 1076 q 593 1064 558 1069 q 658 1051 628 1058 q 703 1033 688 1043 l 703 756 q 569 764 633 756 q 444 786 504 772 l 444 746 q 565 725 499 733 q 703 717 632 717 l 703 436 z "},"g":{"ha":1013,"x_min":22,"x_max":976,"o":"m 22 393 q 50 573 22 494 q 128 705 78 651 q 247 786 178 758 q 397 814 315 814 q 472 810 439 814 q 533 800 506 807 q 587 781 561 793 q 639 753 613 769 l 671 786 l 976 786 l 976 63 q 863 -247 976 -142 q 519 -353 750 -353 q 303 -338 413 -353 q 115 -296 194 -324 l 115 21 q 229 -20 169 -4 q 348 -41 289 -36 q 462 -41 407 -46 q 560 -21 517 -36 l 560 22 q 351 2 449 -8 q 180 60 253 13 q 65 192 107 108 q 22 393 22 276 m 651 425 l 626 460 q 565 431 601 444 q 487 408 528 418 q 403 393 446 399 q 321 388 360 388 l 321 349 q 406 353 360 349 q 496 368 451 358 q 581 392 540 378 q 651 425 622 406 z "},"h":{"ha":1082,"x_min":50,"x_max":1046,"o":"m 522 -62 l 50 -62 l 50 1024 l 522 1024 l 522 800 q 422 759 472 781 q 321 706 371 738 l 335 661 q 444 718 382 690 q 572 767 506 746 q 701 801 638 789 q 819 814 765 814 q 922 801 879 814 q 993 757 965 788 q 1033 678 1021 726 q 1046 560 1046 631 l 1046 -62 l 574 -62 l 574 385 l 522 365 l 522 -62 z "},"i":{"ha":572,"x_min":50,"x_max":522,"o":"m 522 -62 l 50 -62 l 50 1024 l 522 1024 l 522 826 q 452 798 497 811 q 356 775 407 785 q 252 760 304 765 q 161 754 200 754 l 161 715 q 251 719 200 715 q 353 733 301 724 q 449 755 404 742 q 522 786 494 768 l 522 -62 z "},"j":{"ha":600,"x_min":-6,"x_max":550,"o":"m 550 63 q 456 -247 550 -142 q 163 -353 363 -353 q 69 -341 114 -353 q -6 -310 24 -329 l -6 7 q 58 -15 25 -10 q 111 -21 92 -21 q 189 -12 150 -21 q 260 19 228 -4 l 249 64 q 168 29 214 39 q 78 26 122 19 l 78 1024 l 550 1024 l 550 826 q 480 798 525 811 q 383 775 435 785 q 280 760 332 765 q 189 754 228 754 l 189 715 q 278 719 228 715 q 381 733 329 724 q 477 755 432 742 q 550 786 522 768 l 550 63 z "},"k":{"ha":1117,"x_min":50,"x_max":1103,"o":"m 522 -62 l 50 -62 l 50 1024 l 522 1024 l 522 613 l 446 421 l 483 411 l 633 786 l 1103 786 l 896 363 l 1103 -62 l 617 -62 l 522 136 l 522 -62 z "},"l":{"ha":572,"x_min":50,"x_max":522,"o":"m 522 -62 l 50 -62 l 50 1024 l 522 1024 l 522 -62 z "},"m":{"ha":1264,"x_min":50,"x_max":1228,"o":"m 810 410 l 810 -62 l 456 -62 l 456 426 l 411 407 l 411 -62 l 50 -62 l 50 786 l 314 786 l 363 738 q 414 774 390 760 q 462 798 438 789 q 513 810 486 807 q 576 814 540 814 q 740 751 682 814 q 856 795 793 776 q 988 814 919 814 q 1169 737 1110 814 q 1228 518 1228 660 l 1228 -62 l 853 -62 l 853 426 l 810 410 z "},"n":{"ha":1026,"x_min":50,"x_max":990,"o":"m 397 786 l 446 738 q 584 795 517 776 q 722 814 651 814 q 826 794 778 814 q 911 736 875 774 q 969 644 947 699 q 990 518 990 589 l 990 -62 l 546 -62 l 546 426 l 494 407 l 494 -62 l 50 -62 l 50 786 l 397 786 z "},"o":{"ha":1028,"x_min":21,"x_max":1007,"o":"m 21 358 q 58 547 21 463 q 162 690 96 631 q 318 781 228 749 q 514 814 408 814 q 710 781 619 814 q 866 690 800 749 q 969 547 932 631 q 1007 358 1007 463 q 969 169 1007 254 q 866 26 932 85 q 710 -66 800 -33 q 514 -99 619 -99 q 318 -67 408 -99 q 162 25 228 -35 q 58 169 96 85 q 21 358 21 254 m 706 388 l 681 422 q 615 394 656 407 q 527 371 574 381 q 433 356 481 361 q 347 350 386 350 l 347 311 q 436 316 386 311 q 536 331 486 321 q 631 354 586 340 q 706 388 676 368 z "},"p":{"ha":1056,"x_min":50,"x_max":1032,"o":"m 476 786 q 731 765 625 786 q 903 694 836 744 q 1001 562 969 644 q 1032 356 1032 479 q 902 29 1032 133 q 522 -62 772 -75 l 522 -271 l 50 -271 l 50 786 l 476 786 m 721 424 q 655 395 696 408 q 567 372 614 382 q 474 357 521 363 q 388 351 426 351 l 388 313 q 476 317 426 313 q 576 332 526 322 q 672 356 626 342 q 746 389 717 369 l 721 424 z "},"q":{"ha":1046,"x_min":28,"x_max":1010,"o":"m 583 786 l 1010 786 l 1010 -271 l 538 -271 l 538 -62 q 158 29 288 -75 q 28 356 28 133 q 59 562 28 479 q 157 694 90 644 q 329 765 224 744 q 583 786 435 786 m 306 375 q 380 342 335 356 q 475 318 425 328 q 575 303 525 308 q 664 299 625 299 l 664 338 q 578 343 625 338 q 484 358 531 349 q 397 381 438 368 q 331 410 356 394 l 306 375 z "},"r":{"ha":847,"x_min":50,"x_max":833,"o":"m 496 729 q 572 768 529 751 q 659 794 614 785 q 749 806 704 804 q 833 800 793 807 l 833 446 q 753 444 796 446 q 665 438 710 443 q 577 422 621 432 q 494 393 533 411 l 494 -62 l 50 -62 l 50 786 l 447 786 l 496 729 z "},"s":{"ha":974,"x_min":36,"x_max":936,"o":"m 436 256 q 226 300 304 272 q 105 363 147 328 q 49 438 63 399 q 36 514 36 476 q 72 645 36 589 q 167 739 107 701 q 310 795 228 776 q 486 814 392 814 q 624 806 561 814 q 739 783 686 797 q 837 750 792 768 q 922 714 882 732 l 922 444 q 810 502 865 482 q 699 531 754 522 q 591 540 644 539 q 486 542 538 542 l 486 500 q 936 250 936 500 q 901 101 936 164 q 805 -4 865 38 q 662 -66 744 -46 q 486 -86 579 -86 q 258 -49 374 -86 q 36 64 143 -11 l 36 314 q 251 240 149 265 q 436 214 353 214 l 436 256 z "},"t":{"ha":724,"x_min":14,"x_max":689,"o":"m 689 401 q 630 403 663 401 q 563 410 597 406 q 494 419 529 414 q 431 432 460 425 l 431 392 q 491 380 457 385 q 560 371 525 375 q 629 365 596 367 q 689 363 663 363 l 689 -60 q 560 -84 621 -79 q 450 -89 499 -89 q 297 -66 367 -89 q 178 0 228 -43 q 100 104 128 43 q 72 243 72 165 l 72 438 l 14 438 l 14 786 l 63 786 l 63 1024 l 535 1024 l 535 786 l 689 786 l 689 401 z "},"u":{"ha":1013,"x_min":36,"x_max":976,"o":"m 629 -62 l 581 -14 q 442 -72 510 -53 q 304 -90 375 -90 q 200 -70 249 -90 q 115 -12 151 -50 q 57 80 78 25 q 36 206 36 135 l 36 786 l 481 786 l 481 297 l 532 317 l 532 786 l 976 786 l 976 -62 l 629 -62 z "},"v":{"ha":1042,"x_min":0,"x_max":1042,"o":"m 438 786 l 519 585 l 446 394 l 483 385 l 638 786 l 1042 786 l 722 -62 l 347 -62 l 0 786 l 438 786 z "},"w":{"ha":1203,"x_min":1,"x_max":1200,"o":"m 151 -62 l 1 786 l 389 786 l 428 510 l 489 786 l 713 786 l 774 510 l 813 786 l 1200 786 l 1050 -62 l 663 -62 l 601 178 l 539 -62 l 151 -62 z "},"x":{"ha":1039,"x_min":8,"x_max":1033,"o":"m 521 94 l 467 -62 l 8 -62 l 215 363 l 8 786 l 464 786 l 521 625 l 578 786 l 1033 786 l 826 363 l 1033 -62 l 575 -62 l 521 94 z "},"y":{"ha":1040,"x_min":36,"x_max":1004,"o":"m 1004 64 q 876 -245 1004 -139 q 519 -351 749 -351 q 303 -337 413 -351 q 115 -294 194 -322 l 115 22 q 229 -19 169 -3 q 348 -40 289 -35 q 462 -40 407 -44 q 560 -19 517 -35 l 560 24 q 353 3 449 -7 q 187 62 257 14 q 76 194 117 110 q 36 394 36 278 l 36 786 l 494 786 l 494 339 l 546 358 l 546 786 l 1004 786 l 1004 64 z "},"z":{"ha":844,"x_min":14,"x_max":831,"o":"m 42 786 l 806 786 l 806 490 l 803 490 l 490 139 l 519 126 l 618 233 l 831 233 l 831 -62 l 14 -62 l 14 125 l 339 490 l 42 490 l 42 786 z "},"{":{"ha":556,"x_min":35,"x_max":528,"o":"m 257 435 q 351 405 293 417 q 479 393 408 393 l 479 261 q 492 207 479 222 q 528 192 504 192 l 528 -117 l 390 -117 q 164 -50 240 -117 q 92 140 88 17 l 92 163 q 73 200 92 186 q 35 214 54 214 l 35 693 q 72 707 53 692 q 92 746 92 722 l 92 768 q 164 958 88 892 q 390 1024 240 1025 l 528 1024 l 528 700 q 492 685 504 700 q 479 631 479 669 l 479 436 q 358 449 421 436 q 257 486 294 463 l 257 435 l 257 435 z "},"|":{"ha":461,"x_min":50,"x_max":411,"o":"m 411 -117 l 50 -117 l 50 1024 l 411 1024 l 411 -117 z "},"}":{"ha":556,"x_min":28,"x_max":521,"o":"m 76 446 q 119 425 90 435 q 180 408 147 415 q 245 397 213 401 q 299 390 278 392 l 299 432 q 240 440 278 433 q 166 456 203 446 q 103 479 129 465 q 76 511 76 493 l 76 631 q 64 685 76 669 q 28 700 51 700 l 28 1024 l 165 1024 q 392 958 315 1025 q 464 768 468 892 l 464 746 q 483 707 464 722 q 521 693 503 692 l 521 214 q 483 200 501 214 q 464 163 464 186 l 464 140 q 392 -50 468 17 q 165 -117 315 -117 l 28 -117 l 28 192 q 64 207 51 192 q 76 261 76 222 l 76 446 l 76 446 z "},"~":{"ha":928,"x_min":36,"x_max":892,"o":"m 601 633 q 680 641 639 633 q 760 660 721 649 q 833 686 799 672 q 892 714 867 700 l 892 314 q 781 259 851 285 q 618 235 710 233 q 513 251 561 235 q 420 289 464 268 q 339 327 376 310 q 268 344 301 344 q 201 335 235 344 q 135 313 167 326 q 78 283 104 300 q 36 253 53 267 l 36 653 q 119 715 67 685 q 254 746 172 744 q 356 728 310 746 q 442 689 401 710 q 522 651 483 668 q 601 633 561 633 z "},"₩":{"ha":1278,"x_min":0,"x_max":1278,"o":"m 189 -61 l 139 301 l 0 301 l 0 688 l 85 688 l 39 1024 l 426 1024 l 464 688 l 471 688 l 526 1024 l 751 1024 l 807 688 l 814 688 l 851 1024 l 1239 1024 l 1193 688 l 1278 688 l 1278 301 l 1139 301 l 1089 -61 l 701 -61 l 639 257 l 576 -61 l 189 -61 z "},"©":{"ha":1278,"x_min":32,"x_max":1246,"o":"m 1246 442 q 1198 208 1246 317 q 1067 20 1150 100 q 874 -106 985 -60 q 639 -151 764 -151 q 403 -106 514 -151 q 210 20 293 -60 q 80 208 128 100 q 32 442 32 317 q 80 675 32 567 q 210 863 128 783 q 403 989 293 943 q 639 1035 514 1035 q 874 989 764 1035 q 1067 863 985 943 q 1198 675 1150 783 q 1246 442 1246 567 m 1060 442 q 1028 609 1060 532 q 940 742 996 686 q 806 831 883 799 q 639 863 729 863 q 472 831 549 863 q 338 742 394 799 q 250 609 282 686 q 218 442 218 532 q 250 274 218 351 q 338 141 282 197 q 472 53 394 85 q 639 21 549 21 q 806 53 729 21 q 940 141 883 85 q 1028 274 996 197 q 1060 442 1060 351 m 339 439 q 419 639 339 565 q 649 713 500 713 q 792 697 726 713 q 904 650 857 682 l 904 450 q 743 457 822 450 q 585 479 664 464 l 585 450 q 742 426 657 432 q 904 421 828 421 l 904 247 q 779 188 849 203 q 621 172 710 172 q 505 190 557 172 q 416 242 453 208 q 359 326 379 276 q 339 439 339 376 z "},"　":{"ha":1278,"x_min":0,"x_max":0,"o":""},"、":{"ha":606,"x_min":39,"x_max":578,"o":"m 578 -47 l 283 -218 q 220 -69 254 -143 q 138 89 186 4 l 39 258 l 381 456 l 472 282 q 542 116 518 196 q 578 -47 565 36 z "},"。":{"ha":458,"x_min":29,"x_max":422,"o":"m 29 58 q 44 133 29 100 q 86 191 60 167 q 149 228 113 215 q 226 240 185 240 q 304 228 268 240 q 366 191 340 215 q 407 133 392 167 q 422 58 422 100 q 407 -17 422 17 q 366 -74 392 -50 q 304 -111 340 -99 q 226 -124 268 -124 q 149 -111 185 -124 q 86 -74 113 -99 q 44 -17 60 -50 q 29 58 29 17 m 356 65 l 331 100 q 274 76 306 85 q 213 62 243 67 q 156 56 183 57 q 108 56 128 56 l 108 17 q 156 17 126 17 q 221 22 186 17 q 291 36 256 26 q 356 65 326 46 z "},"·":{"ha":471,"x_min":50,"x_max":424,"o":"m 424 314 l 149 314 q 76 334 101 314 q 50 403 50 354 l 50 676 l 424 676 l 424 314 z "},"‥":{"ha":889,"x_min":50,"x_max":840,"o":"m 424 314 l 149 314 q 76 334 101 314 q 50 403 50 354 l 50 676 l 424 676 l 424 314 m 840 314 l 565 314 q 492 334 518 314 q 467 403 467 354 l 467 676 l 840 676 l 840 314 z "},"…":{"ha":1278,"x_min":36,"x_max":1242,"o":"m 410 314 l 135 314 q 62 334 88 314 q 36 403 36 354 l 36 676 l 410 676 l 410 314 m 826 314 l 551 314 q 478 334 504 314 q 453 403 453 354 l 453 676 l 826 676 l 826 314 m 1242 314 l 967 314 q 894 334 919 314 q 868 403 868 354 l 868 676 l 1242 676 l 1242 314 z "},"¨":{"ha":1278,"x_min":175,"x_max":1103,"o":"m 175 669 l 175 1024 l 549 1024 l 549 669 l 175 669 m 729 1024 l 1103 1024 l 1103 669 l 729 669 l 729 1024 z "},"〃":{"ha":831,"x_min":19,"x_max":824,"o":"m 89 686 l 435 686 l 338 300 l 19 300 l 89 686 m 478 686 l 824 686 l 699 300 l 381 300 l 478 686 z "},"­":{"ha":639,"x_min":51,"x_max":588,"o":"m 51 301 l 51 688 l 588 688 l 588 301 l 51 301 z "},"—":{"ha":1278,"x_min":51,"x_max":1226,"o":"m 51 301 l 51 688 l 1226 688 l 1226 301 l 51 301 z "},"∥":{"ha":1278,"x_min":153,"x_max":1125,"o":"m 153 -61 l 153 1024 l 583 1024 l 583 -61 l 153 -61 m 694 -61 l 694 1024 l 1125 1024 l 1125 -61 l 694 -61 z "},"＼":{"ha":1278,"x_min":225,"x_max":1054,"o":"m 1054 8 l 607 -131 l 225 954 l 669 1093 l 1054 8 z "},"∼":{"ha":1278,"x_min":114,"x_max":1164,"o":"m 114 678 q 418 771 240 771 q 583 752 506 771 q 731 714 660 733 q 781 700 760 706 q 819 692 803 694 q 850 688 836 689 q 879 686 864 686 q 974 705 919 686 q 1088 753 1028 724 l 1164 407 q 1017 338 1089 358 q 863 317 946 317 q 710 333 782 317 q 572 369 639 350 q 480 392 524 383 q 404 400 436 400 q 314 386 361 400 q 192 331 267 372 l 114 678 l 114 678 z "},"‘":{"ha":472,"x_min":26,"x_max":424,"o":"m 424 486 l 26 486 q 41 754 32 621 q 71 1022 50 888 l 374 1022 q 364 961 368 996 q 356 892 360 926 q 349 826 351 857 q 346 775 347 794 l 424 775 l 424 486 z "},"’":{"ha":472,"x_min":49,"x_max":446,"o":"m 49 1022 l 446 1022 q 431 754 440 888 q 401 486 422 621 l 99 486 q 108 547 104 513 q 116 617 113 582 q 122 683 119 651 q 125 733 124 714 l 49 733 l 49 1022 z "},"“":{"ha":833,"x_min":40,"x_max":785,"o":"m 396 486 l 40 486 q 52 754 46 621 q 78 1022 58 888 l 346 1022 q 336 961 340 996 q 329 892 332 926 q 324 826 326 857 q 321 775 322 794 l 396 775 l 396 486 m 785 486 l 429 486 q 441 754 435 621 q 467 1022 447 888 l 735 1022 q 725 961 729 996 q 718 892 721 926 q 713 826 715 857 q 710 775 711 794 l 785 775 l 785 486 z "},"”":{"ha":833,"x_min":51,"x_max":796,"o":"m 440 1022 l 796 1022 q 785 754 790 888 q 760 486 781 621 l 490 486 q 500 547 496 513 q 507 617 504 582 q 512 683 510 651 q 515 733 514 714 l 440 733 l 440 1022 m 51 1022 l 407 1022 q 397 754 401 888 q 371 486 392 621 l 101 486 q 111 547 107 513 q 118 617 115 582 q 123 683 121 651 q 126 733 125 714 l 51 733 l 51 1022 z "},"〔":{"ha":556,"x_min":76,"x_max":528,"o":"m 76 968 l 528 1038 l 528 707 l 465 679 l 465 228 l 528 200 l 528 -131 l 76 -61 l 76 968 z "},"〕":{"ha":556,"x_min":28,"x_max":479,"o":"m 479 968 l 479 -61 l 28 -131 l 28 200 l 90 228 l 90 679 l 28 707 l 28 1038 l 479 968 z "},"〈":{"ha":819,"x_min":24,"x_max":811,"o":"m 24 454 l 367 1024 l 811 1024 l 451 454 l 811 -117 l 367 -117 l 24 454 z "},"〉":{"ha":819,"x_min":8,"x_max":796,"o":"m 453 -117 l 8 -117 l 368 454 l 8 1024 l 453 1024 l 796 454 l 453 -117 z "},"《":{"ha":1278,"x_min":38,"x_max":1256,"o":"m 38 454 l 381 1024 l 797 1024 l 438 454 l 797 -117 l 381 -117 l 38 454 m 496 454 l 853 1024 l 1256 1024 l 896 454 l 1256 -117 l 853 -117 l 496 454 z "},"》":{"ha":1278,"x_min":22,"x_max":1240,"o":"m 897 -117 l 481 -117 l 840 454 l 481 1024 l 897 1024 l 1240 454 l 897 -117 m 425 -117 l 22 -117 l 382 454 l 22 1024 l 425 1024 l 782 454 l 425 -117 z "},"「":{"ha":528,"x_min":50,"x_max":488,"o":"m 50 1024 l 488 1024 l 488 693 l 439 693 l 439 481 l 50 481 l 50 1024 z "},"」":{"ha":528,"x_min":38,"x_max":475,"o":"m 475 -118 l 38 -118 l 38 213 l 86 213 l 86 425 l 475 425 l 475 -118 z "},"『":{"ha":528,"x_min":50,"x_max":488,"o":"m 50 481 l 50 1024 l 488 1024 l 488 693 l 439 693 l 439 481 l 254 481 l 254 821 l 349 821 l 349 863 l 213 863 l 213 481 l 50 481 z "},"』":{"ha":528,"x_min":38,"x_max":475,"o":"m 475 424 l 475 -119 l 38 -119 l 38 211 l 86 211 l 86 424 l 271 424 l 271 83 l 176 83 l 176 42 l 313 42 l 313 424 l 475 424 z "},"【":{"ha":758,"x_min":51,"x_max":743,"o":"m 51 -139 l 51 1044 l 743 1044 q 589 980 660 1031 q 467 851 518 929 q 387 670 415 772 q 358 453 358 568 q 386 210 358 313 q 464 35 414 107 q 585 -78 514 -36 q 743 -139 656 -121 l 51 -139 z "},"】":{"ha":758,"x_min":7,"x_max":699,"o":"m 7 -139 q 165 -78 94 -121 q 286 35 236 -36 q 364 210 336 107 q 392 453 392 313 q 363 670 392 568 q 283 851 335 772 q 161 980 232 929 q 7 1044 90 1031 l 699 1044 l 699 -139 l 7 -139 z "},"±":{"ha":1051,"x_min":51,"x_max":989,"o":"m 714 307 l 328 307 l 328 482 l 51 482 l 51 868 l 328 868 l 328 1022 l 714 1022 l 714 868 l 989 868 l 989 482 l 714 482 l 714 307 m 51 -118 l 51 268 l 989 268 l 989 -118 l 51 -118 z "},"×":{"ha":1039,"x_min":8,"x_max":1033,"o":"m 515 158 l 439 50 l 8 50 l 303 468 l 8 899 l 450 899 l 526 788 l 606 899 l 1033 899 l 739 478 l 1033 50 l 589 50 l 515 158 z "},"÷":{"ha":1058,"x_min":51,"x_max":1008,"o":"m 700 703 l 467 703 q 394 723 419 703 q 368 792 368 743 l 368 1024 l 700 1024 l 700 703 m 51 301 l 51 661 l 1008 661 l 1008 301 l 51 301 m 700 -61 l 467 -61 q 394 -41 419 -61 q 368 28 368 -21 l 368 260 l 700 260 l 700 -61 z "},"≠":{"ha":1278,"x_min":139,"x_max":1139,"o":"m 233 -62 l 313 147 l 139 147 l 139 478 l 436 478 l 458 536 l 139 536 l 139 867 l 583 867 l 642 1024 l 1044 1024 l 986 867 l 1139 867 l 1139 536 l 861 536 l 839 478 l 1139 478 l 1139 147 l 715 147 l 636 -62 l 233 -62 z "},"≤":{"ha":1278,"x_min":139,"x_max":1139,"o":"m 139 753 l 1139 1044 l 1139 739 l 571 635 l 1139 531 l 1139 225 l 139 517 l 139 753 m 1139 190 l 1139 -62 l 139 -62 l 139 190 l 1139 190 z "},"≥":{"ha":1278,"x_min":139,"x_max":1139,"o":"m 1139 517 l 139 225 l 139 531 l 707 635 l 139 739 l 139 1044 l 1139 753 l 1139 517 m 1139 190 l 1139 -62 l 139 -62 l 139 190 l 1139 190 z "},"∞":{"ha":1278,"x_min":64,"x_max":1214,"o":"m 64 521 q 89 661 64 599 q 158 768 114 724 q 264 837 203 813 q 396 861 325 861 q 533 835 471 861 q 639 761 594 810 q 746 835 683 810 q 883 861 808 861 q 1015 837 954 861 q 1119 768 1075 813 q 1189 661 1164 724 q 1214 521 1214 599 q 1189 380 1214 443 q 1119 272 1164 317 q 1015 203 1075 228 q 883 179 954 179 q 746 205 808 179 q 639 279 683 231 q 533 205 594 231 q 396 179 471 179 q 264 203 325 179 q 158 272 203 228 q 89 380 114 317 q 64 521 64 443 m 524 543 l 508 568 q 463 547 490 557 q 403 531 435 538 q 341 519 372 524 q 283 515 310 515 l 283 486 q 343 490 310 486 q 410 501 376 493 q 474 519 443 508 q 524 543 504 529 m 1011 543 l 996 568 q 950 547 978 557 q 891 531 922 538 q 828 519 860 524 q 771 515 797 515 l 771 486 q 831 490 797 486 q 897 501 864 493 q 961 519 931 508 q 1011 543 992 529 z "},"∴":{"ha":1278,"x_min":181,"x_max":1096,"o":"m 800 803 q 788 742 800 769 q 753 693 775 714 q 702 660 732 672 q 639 649 672 649 q 576 660 606 649 q 524 693 546 672 q 490 742 503 714 q 478 803 478 769 q 490 861 478 833 q 524 910 503 889 q 576 944 546 932 q 639 957 606 957 q 702 944 672 957 q 753 910 732 932 q 788 861 775 889 q 800 803 800 833 m 1096 318 q 1083 258 1096 286 q 1049 210 1071 231 q 998 176 1028 189 q 935 164 968 164 q 872 176 901 164 q 822 210 843 189 q 787 258 800 231 q 774 318 774 286 q 787 378 774 350 q 822 428 800 407 q 872 460 843 449 q 935 472 901 472 q 998 460 968 472 q 1049 428 1028 449 q 1083 378 1071 407 q 1096 318 1096 350 m 181 318 q 193 378 181 350 q 227 428 206 407 q 278 460 249 449 q 342 472 308 472 q 403 460 374 472 q 453 428 432 449 q 488 378 475 407 q 501 318 501 350 q 488 258 501 286 q 453 210 475 231 q 403 176 432 189 q 342 164 374 164 q 278 176 308 164 q 227 210 249 189 q 193 258 206 231 q 181 318 181 286 z "},"°":{"ha":581,"x_min":49,"x_max":532,"o":"m 49 844 q 67 933 49 893 q 119 1002 86 974 q 195 1047 151 1031 q 290 1063 239 1063 q 385 1047 340 1063 q 462 1002 429 1031 q 513 933 494 974 q 532 844 532 893 q 513 760 532 799 q 462 692 494 721 q 385 648 429 664 q 290 632 340 632 q 195 648 239 632 q 119 692 151 664 q 67 760 86 721 q 49 844 49 799 m 188 906 l 163 868 q 218 848 186 857 q 285 833 250 839 q 353 823 319 826 q 417 819 388 819 l 417 861 q 356 865 388 861 q 294 874 325 868 q 235 889 263 881 q 188 906 208 897 z "},"′":{"ha":494,"x_min":38,"x_max":453,"o":"m 38 669 l 107 1024 l 453 1024 l 356 669 l 38 669 z "},"″":{"ha":831,"x_min":24,"x_max":821,"o":"m 24 669 l 93 1024 l 439 1024 l 342 669 l 24 669 m 392 669 l 489 1024 l 821 1024 l 724 669 l 392 669 z "},"℃":{"ha":1389,"x_min":1,"x_max":1340,"o":"m 361 481 q 502 902 361 760 q 913 1044 643 1044 q 1144 1010 1042 1044 q 1340 906 1246 976 l 1340 490 q 1186 494 1260 490 q 1040 504 1113 497 q 890 524 967 511 q 726 553 814 536 l 726 511 q 1040 461 890 474 q 1340 449 1189 449 l 1340 83 q 1231 3 1285 35 q 1118 -49 1176 -29 q 996 -76 1060 -68 q 857 -83 932 -83 q 653 -48 744 -83 q 497 58 561 -12 q 397 235 432 129 q 361 481 361 340 m 1 863 q 17 938 1 904 q 58 995 32 971 q 121 1032 85 1019 q 199 1044 157 1044 q 276 1032 240 1044 q 338 995 313 1019 q 379 938 364 971 q 394 863 394 904 q 379 788 394 821 q 338 730 364 754 q 276 693 313 706 q 199 681 240 681 q 121 693 157 681 q 58 730 85 706 q 17 788 32 754 q 1 863 1 821 m 328 869 l 303 904 q 247 880 278 889 q 185 866 215 871 q 128 860 156 861 q 81 860 100 860 l 81 821 q 128 821 99 821 q 193 826 158 821 q 263 840 228 831 q 328 869 299 850 z "},"Å":{"ha":1278,"x_min":69,"x_max":1208,"o":"m 397 1081 q 416 1169 397 1129 q 467 1238 435 1210 q 544 1283 500 1267 q 639 1299 588 1299 q 733 1283 689 1299 q 810 1238 778 1267 q 862 1169 843 1210 q 881 1081 881 1129 q 838 957 881 1011 l 1208 -61 l 708 -61 l 639 164 l 569 -61 l 69 -61 l 440 957 q 397 1081 397 1011 m 536 1142 l 511 1104 q 567 1084 535 1093 q 633 1069 599 1075 q 702 1059 668 1063 q 765 1056 736 1056 l 765 1097 q 705 1101 736 1097 q 642 1110 674 1104 q 584 1125 611 1117 q 536 1142 557 1133 m 481 517 l 456 479 q 635 429 535 442 q 835 417 735 417 l 835 458 q 644 472 735 458 q 481 517 553 485 z "},"¢":{"ha":1278,"x_min":206,"x_max":1063,"o":"m 206 453 q 297 722 206 617 q 558 854 389 826 l 618 1024 l 1063 1024 l 986 807 q 1054 769 1021 792 l 1054 471 q 974 473 1031 471 q 849 480 918 475 q 706 493 779 485 q 575 513 633 501 l 575 469 q 708 450 635 458 q 851 436 782 442 q 975 428 919 431 q 1054 426 1031 426 l 1054 167 q 904 89 986 114 q 722 57 822 64 l 681 -61 l 233 -61 l 314 167 q 233 290 261 218 q 206 453 206 361 z "},"£":{"ha":1278,"x_min":185,"x_max":1147,"o":"m 965 279 l 1147 113 q 1086 65 1119 89 q 1014 21 1053 40 q 933 -11 975 1 q 843 -24 890 -24 q 719 -12 768 -24 q 638 11 671 0 q 603 22 622 17 q 565 28 583 28 q 484 6 539 28 q 361 -56 429 -17 l 185 126 q 287 181 242 150 q 366 246 332 211 q 422 316 400 281 q 456 385 444 351 l 307 385 l 307 604 l 397 604 q 366 684 378 642 q 354 771 354 726 q 378 882 354 835 q 447 960 403 929 q 553 1008 492 992 q 692 1024 615 1024 q 815 1007 758 1024 q 916 959 872 990 q 990 884 960 928 q 1033 788 1019 840 l 808 689 q 758 783 788 760 q 689 807 729 807 q 656 798 668 807 q 643 769 643 789 q 669 674 643 711 q 724 604 694 636 l 946 604 l 946 385 l 747 385 q 725 303 739 346 q 694 225 711 261 l 724 217 l 751 208 q 800 194 781 200 q 831 189 819 189 q 849 190 838 189 q 878 200 861 192 q 917 227 896 208 q 965 279 939 246 z "},"¥":{"ha":1278,"x_min":69,"x_max":1208,"o":"m 556 1024 l 638 822 l 564 632 l 601 622 l 756 1024 l 1208 1024 l 1025 610 l 1139 610 l 1139 385 l 926 385 l 903 332 l 1139 332 l 1139 107 l 890 107 l 890 -61 l 417 -61 l 417 107 l 139 107 l 139 332 l 401 332 l 376 385 l 139 385 l 139 610 l 268 610 l 69 1024 l 556 1024 z "},"♂":{"ha":861,"x_min":50,"x_max":815,"o":"m 475 724 l 475 682 l 618 593 l 618 379 q 702 283 671 342 q 733 149 733 224 q 709 28 733 82 q 642 -64 685 -26 q 542 -122 600 -101 q 418 -143 485 -143 q 294 -122 351 -143 q 194 -64 236 -101 q 127 28 151 -26 q 103 149 103 82 q 138 290 103 229 q 232 389 172 351 l 232 626 l 50 517 l 50 836 l 433 1053 l 815 819 l 815 517 l 475 724 m 610 178 l 585 213 q 519 184 560 197 q 431 161 478 171 q 338 146 385 151 q 251 140 290 140 l 251 101 q 340 106 290 101 q 440 121 390 111 q 535 144 490 131 q 610 178 581 158 z "},"♀":{"ha":1000,"x_min":51,"x_max":950,"o":"m 171 749 q 195 869 171 815 q 262 961 219 924 q 362 1019 304 999 q 486 1040 419 1040 q 610 1019 553 1040 q 710 961 668 999 q 777 869 753 924 q 801 749 801 815 q 770 615 801 674 q 686 518 739 556 l 686 438 l 950 438 l 950 107 l 686 107 l 686 -118 l 300 -118 l 300 107 l 51 107 l 51 438 l 300 438 l 300 508 q 206 607 240 546 q 171 749 171 668 m 678 775 l 653 810 q 587 781 628 794 q 499 758 546 768 q 406 743 453 749 q 319 738 358 738 l 319 699 q 408 703 358 699 q 508 718 458 708 q 603 742 558 728 q 678 775 649 756 z "},"∠":{"ha":1278,"x_min":60,"x_max":1233,"o":"m 1194 915 l 701 201 l 1233 201 l 1233 -62 l 60 -62 l 865 1058 l 1194 915 z "},"⊥":{"ha":1278,"x_min":111,"x_max":1167,"o":"m 111 -62 l 111 201 l 438 201 l 438 908 l 817 908 l 817 201 l 1167 201 l 1167 -62 l 111 -62 z "},"⌒":{"ha":1278,"x_min":103,"x_max":1174,"o":"m 446 -62 l 103 -62 q 171 124 125 39 q 284 271 217 210 q 440 367 351 332 q 636 401 528 401 q 842 363 751 401 q 1000 261 933 325 q 1110 113 1067 197 q 1174 -62 1153 29 l 847 -62 q 765 83 815 33 q 636 133 715 133 q 515 83 561 133 q 446 -62 468 32 z "},"∂":{"ha":1278,"x_min":204,"x_max":1078,"o":"m 571 733 q 463 713 515 733 q 367 665 410 693 l 226 893 q 298 958 256 931 q 389 1006 340 986 q 492 1035 438 1025 q 600 1044 546 1044 q 828 991 735 1044 q 978 847 922 938 q 1056 635 1035 756 q 1068 383 1078 515 q 1026 194 1060 279 q 934 48 992 108 q 799 -45 876 -12 q 629 -78 722 -78 q 464 -50 542 -78 q 329 30 386 -22 q 238 157 272 82 q 204 326 204 232 q 235 475 204 407 q 319 592 267 543 q 440 668 372 640 q 582 696 508 696 q 626 691 601 696 q 674 678 650 686 q 719 659 697 669 q 756 636 740 649 l 772 667 q 685 712 738 690 q 571 733 633 733 m 768 376 q 691 350 732 361 q 610 332 650 339 q 534 322 571 325 q 469 318 497 318 l 469 276 q 538 279 499 276 q 622 289 578 282 q 709 308 665 296 q 793 339 753 319 l 768 376 z "},"∇":{"ha":1278,"x_min":11,"x_max":1267,"o":"m 1267 908 l 632 -67 l 11 908 l 1267 908 m 1017 775 l 372 775 l 685 278 l 1017 775 z "},"≡":{"ha":1278,"x_min":139,"x_max":1139,"o":"m 139 693 l 139 1024 l 1139 1024 l 1139 693 l 139 693 m 139 326 l 139 635 l 1139 635 l 1139 326 l 139 326 m 139 -62 l 139 268 l 1139 268 l 1139 -62 l 139 -62 z "},"≒":{"ha":1278,"x_min":139,"x_max":1139,"o":"m 535 886 q 524 832 535 857 q 493 788 513 807 q 448 758 474 769 q 393 747 422 747 q 338 758 364 747 q 294 788 313 769 q 264 832 275 807 q 253 886 253 857 q 264 939 253 914 q 294 983 275 964 q 338 1013 313 1001 q 393 1024 364 1024 q 448 1013 422 1024 q 493 983 474 1001 q 524 939 513 964 q 535 886 535 914 m 1024 76 q 1013 23 1024 49 q 983 -22 1001 -3 q 938 -51 964 -40 q 883 -62 913 -62 q 828 -51 854 -62 q 783 -22 803 -40 q 753 23 764 -3 q 742 76 742 49 q 753 131 742 106 q 783 174 764 156 q 828 203 803 193 q 883 214 854 214 q 938 203 913 214 q 983 174 964 193 q 1013 131 1001 156 q 1024 76 1024 106 m 535 886 q 522 829 535 856 q 488 783 510 803 l 1139 783 l 1139 494 l 139 494 l 139 783 l 299 783 q 265 829 278 803 q 253 886 253 856 q 264 939 253 914 q 294 983 275 964 q 338 1013 313 1001 q 393 1024 364 1024 q 448 1013 422 1024 q 493 983 474 1001 q 524 939 513 964 q 535 886 535 914 m 1024 76 q 1013 23 1024 49 q 983 -22 1001 -3 q 938 -51 964 -40 q 883 -62 913 -62 q 828 -51 854 -62 q 783 -22 803 -40 q 753 23 764 -3 q 742 76 742 49 q 753 131 742 106 q 785 175 765 156 l 139 175 l 139 464 l 1139 464 l 1139 175 l 982 175 q 1024 76 1024 136 z "},"§":{"ha":1022,"x_min":36,"x_max":986,"o":"m 915 194 q 933 81 938 140 q 889 -27 929 22 q 767 -108 849 -76 q 556 -139 686 -139 q 284 -111 417 -139 q 50 -28 151 -83 l 50 219 q 256 131 158 158 q 457 103 353 103 l 457 144 q 321 158 394 144 q 184 203 247 171 q 78 290 121 235 q 36 432 36 346 q 56 565 36 513 q 90 633 76 618 q 85 816 65 738 q 163 947 106 894 q 310 1025 219 999 q 514 1051 400 1051 q 777 1013 669 1051 q 964 913 885 975 l 964 650 q 785 733 885 703 q 557 763 685 763 l 557 721 q 724 703 646 721 q 860 649 801 686 q 952 553 918 611 q 986 417 986 496 q 967 291 986 344 q 915 194 947 238 m 342 493 l 317 456 q 496 406 396 418 q 696 393 596 393 l 696 435 q 505 448 596 435 q 342 493 414 461 z "},"※":{"ha":1278,"x_min":18,"x_max":1256,"o":"m 769 1063 l 769 800 l 579 800 q 510 826 531 800 q 490 899 490 851 l 490 1063 l 769 1063 m 46 53 l 468 475 l 50 892 l 224 1061 l 639 646 l 1054 1061 l 1228 892 l 811 475 l 1232 53 l 1064 -122 l 639 303 l 214 -122 l 46 53 m 1256 608 l 1256 346 l 1065 346 q 997 372 1017 346 q 976 444 976 397 l 976 608 l 1256 608 m 297 608 l 297 346 l 107 346 q 38 372 58 346 q 18 444 18 397 l 18 608 l 297 608 m 769 143 l 769 -119 l 579 -119 q 510 -94 531 -119 q 490 -21 490 -68 l 490 143 l 769 143 z "},"☆":{"ha":1278,"x_min":1,"x_max":1276,"o":"m 371 574 l 293 567 l 476 383 l 393 132 l 639 276 l 886 132 l 815 383 l 993 564 l 767 572 l 638 815 l 542 642 q 475 694 506 663 q 433 756 444 726 l 639 1128 l 867 703 l 1276 682 l 972 344 l 1114 -156 l 639 115 l 164 -156 l 306 344 l 1 682 l 411 719 q 459 662 429 690 q 527 608 489 633 q 608 560 565 582 q 694 522 651 539 l 617 425 q 555 451 588 435 q 489 486 522 467 q 425 528 456 506 q 371 574 394 550 z "},"★":{"ha":1278,"x_min":1,"x_max":1276,"o":"m 457 729 l 639 1128 l 867 699 l 1276 682 l 972 344 l 1114 -156 l 639 115 l 164 -156 l 306 344 l 1 682 l 425 697 q 447 659 431 681 q 488 617 464 638 q 539 582 511 597 q 594 563 567 567 l 613 590 q 556 613 583 597 q 506 649 528 629 q 471 690 485 669 q 457 729 457 711 z "},"○":{"ha":1278,"x_min":32,"x_max":1246,"o":"m 1246 511 q 1198 276 1246 386 q 1067 83 1150 165 q 874 -48 985 0 q 639 -96 764 -96 q 403 -48 514 -96 q 210 83 293 0 q 80 276 128 165 q 32 511 32 386 q 80 747 32 636 q 210 940 128 857 q 403 1070 293 1022 q 639 1118 514 1118 q 874 1070 764 1118 q 1067 940 985 1022 q 1198 747 1150 857 q 1246 511 1246 636 m 1032 511 q 1001 662 1032 590 q 915 788 969 733 q 790 873 861 842 q 639 904 718 904 q 488 873 560 904 q 363 788 417 842 q 277 662 308 733 q 246 511 246 590 q 277 360 246 432 q 363 235 308 289 q 488 149 417 181 q 639 118 560 118 q 790 149 718 118 q 915 235 861 181 q 1001 360 969 289 q 1032 511 1032 432 z "},"●":{"ha":1278,"x_min":32,"x_max":1246,"o":"m 1246 511 q 1198 276 1246 386 q 1067 83 1150 165 q 874 -48 985 0 q 639 -96 764 -96 q 403 -48 514 -96 q 210 83 293 0 q 80 276 128 165 q 32 511 32 386 q 80 747 32 636 q 210 940 128 857 q 403 1070 293 1022 q 639 1118 514 1118 q 874 1070 764 1118 q 1067 940 985 1022 q 1198 747 1150 857 q 1246 511 1246 636 z "},"◎":{"ha":1278,"x_min":32,"x_max":1246,"o":"m 1246 511 q 1198 276 1246 386 q 1067 83 1150 165 q 874 -48 985 0 q 639 -96 764 -96 q 403 -48 514 -96 q 210 83 293 0 q 80 276 128 165 q 32 511 32 386 q 80 747 32 636 q 210 940 128 857 q 403 1070 293 1022 q 639 1118 514 1118 q 874 1070 764 1118 q 1067 940 985 1022 q 1198 747 1150 857 q 1246 511 1246 636 m 1032 511 q 1001 662 1032 590 q 915 788 969 733 q 790 873 861 842 q 639 904 718 904 q 488 873 560 904 q 363 788 417 842 q 277 662 308 733 q 246 511 246 590 q 277 360 246 432 q 363 235 308 289 q 488 149 417 181 q 639 118 560 118 q 790 149 718 118 q 915 235 861 181 q 1001 360 969 289 q 1032 511 1032 432 m 881 511 q 862 417 881 461 q 810 340 843 374 q 733 288 776 307 q 639 269 689 269 q 545 288 589 269 q 468 340 501 307 q 416 417 435 374 q 397 511 397 461 q 416 605 397 561 q 468 682 435 649 q 545 734 501 715 q 639 753 589 753 q 733 734 689 753 q 810 682 776 715 q 862 605 843 649 q 881 511 881 561 m 796 542 l 771 576 q 645 523 718 542 q 493 504 572 504 l 493 465 q 574 470 532 465 q 655 485 615 475 q 731 508 694 494 q 796 542 767 522 z "},"◇":{"ha":1278,"x_min":15,"x_max":1263,"o":"m 639 1121 l 1263 483 l 639 -168 l 15 483 l 639 1121 m 639 90 l 1013 481 l 639 863 l 265 481 l 639 90 z "},"◆":{"ha":1278,"x_min":15,"x_max":1263,"o":"m 639 1121 l 1263 483 l 639 -168 l 15 483 l 639 1121 z "},"□":{"ha":1278,"x_min":44,"x_max":1228,"o":"m 44 1022 l 1228 1022 l 1228 -118 l 44 -118 l 44 1022 m 1014 89 l 1014 817 l 258 817 l 258 89 l 1014 89 z "},"■":{"ha":1278,"x_min":44,"x_max":1228,"o":"m 44 1022 l 1228 1022 l 1228 -118 l 44 -118 l 44 1022 z "},"△":{"ha":1278,"x_min":4,"x_max":1274,"o":"m 625 1054 l 1274 -119 l 4 -119 l 625 1054 m 963 64 l 633 663 l 315 64 l 963 64 z "},"▲":{"ha":1278,"x_min":4,"x_max":1274,"o":"m 625 1054 l 1274 -119 l 4 -119 l 625 1054 z "},"▽":{"ha":1278,"x_min":4,"x_max":1274,"o":"m 4 1024 l 1274 1024 l 625 -150 l 4 1024 m 315 840 l 633 242 l 963 840 l 315 840 z "},"▼":{"ha":1278,"x_min":4,"x_max":1274,"o":"m 4 1022 l 1274 1022 l 625 -151 l 4 1022 z "},"→":{"ha":1278,"x_min":51,"x_max":1268,"o":"m 869 544 l 663 885 l 1035 885 l 1268 503 l 1051 119 l 663 119 l 772 301 l 51 301 l 51 688 l 739 688 l 828 544 l 869 544 z "},"←":{"ha":1278,"x_min":11,"x_max":1228,"o":"m 451 544 l 540 688 l 1228 688 l 1228 301 l 507 301 l 617 119 l 228 119 l 11 503 l 244 885 l 617 885 l 410 544 l 451 544 z "},"↑":{"ha":1278,"x_min":257,"x_max":1022,"o":"m 682 601 l 825 513 l 825 -175 l 439 -175 l 439 546 l 257 436 l 257 825 l 640 1042 l 1022 808 l 1022 436 l 682 643 l 682 601 z "},"↓":{"ha":1278,"x_min":257,"x_max":1022,"o":"m 682 204 l 1022 411 l 1022 39 l 640 -194 l 257 22 l 257 411 l 439 301 l 439 1022 l 825 1022 l 825 335 l 682 246 l 682 204 z "},"↔":{"ha":1278,"x_min":11,"x_max":1268,"o":"m 617 119 l 228 119 l 11 503 l 244 885 l 617 885 l 497 688 l 739 688 l 828 544 l 869 544 l 663 885 l 1035 885 l 1268 503 l 1051 119 l 663 119 l 772 301 l 507 301 l 617 119 z "},"〓":{"ha":1278,"x_min":50,"x_max":1228,"o":"m 50 536 l 50 867 l 1228 867 l 1228 536 l 50 536 m 50 147 l 50 478 l 1228 478 l 1228 147 l 50 147 z "},"«":{"ha":1278,"x_min":0,"x_max":1275,"o":"m 1275 760 l 822 467 l 1263 182 l 1115 22 l 446 468 l 1125 915 l 1275 760 m 821 760 l 376 467 l 808 182 l 661 22 l 0 468 l 669 915 l 821 760 z "},"»":{"ha":1278,"x_min":3,"x_max":1278,"o":"m 3 760 l 153 915 l 832 468 l 163 22 l 15 182 l 456 467 l 3 760 m 457 760 l 608 915 l 1278 468 l 617 22 l 469 182 l 901 467 l 457 760 z "},"√":{"ha":1278,"x_min":76,"x_max":1281,"o":"m 1281 1024 l 707 -62 l 472 -62 l 267 331 l 76 331 l 76 596 l 450 596 l 586 325 l 935 1024 l 1281 1024 z "},"∽":{"ha":1278,"x_min":64,"x_max":1214,"o":"m 676 232 q 717 294 699 265 q 748 354 735 324 q 772 418 761 385 q 794 492 783 451 q 855 494 822 490 q 918 506 888 499 q 974 524 949 514 q 1011 543 999 533 l 996 568 q 950 547 978 557 q 891 531 922 538 q 828 519 860 524 q 771 515 797 515 q 717 374 750 436 q 639 265 685 311 q 531 192 592 219 q 394 165 469 165 q 263 190 324 165 q 158 258 203 214 q 89 365 114 303 q 64 506 64 428 q 89 647 64 583 q 158 754 114 710 q 263 823 203 799 q 394 847 324 847 q 445 842 417 847 q 502 830 474 838 q 557 813 531 822 q 601 794 583 804 q 560 732 578 761 q 530 672 543 703 q 505 608 517 642 q 483 535 493 575 q 423 532 456 536 q 360 520 390 528 q 304 503 329 513 q 267 483 279 493 l 282 458 q 327 479 300 469 q 385 496 354 489 q 449 507 417 503 q 507 511 481 511 q 560 653 528 590 q 639 761 593 715 q 747 834 686 807 q 883 861 808 861 q 1015 837 954 861 q 1119 768 1075 813 q 1189 661 1164 724 q 1214 521 1214 599 q 1189 380 1214 443 q 1119 272 1164 317 q 1015 203 1075 228 q 883 179 954 179 q 832 184 860 179 q 776 197 804 189 q 721 213 747 204 q 676 232 694 222 z "},"∝":{"ha":1278,"x_min":104,"x_max":1179,"o":"m 104 504 q 128 642 104 581 q 197 747 153 703 q 299 814 240 790 q 428 838 358 838 q 553 815 496 838 q 654 751 611 793 q 758 815 697 793 q 899 838 819 838 q 1056 819 983 838 q 1179 763 1128 801 l 1179 519 q 1002 527 1089 519 q 829 554 915 535 l 829 518 q 1001 491 908 499 q 1179 483 1094 483 l 1179 274 q 1042 201 1118 221 q 868 182 967 182 q 654 258 735 182 q 553 194 611 217 q 428 172 496 172 q 299 196 358 172 q 197 263 240 219 q 128 367 153 306 q 104 504 104 429 m 554 528 l 538 553 q 494 532 521 542 q 437 515 467 522 q 376 504 407 508 q 319 500 344 500 l 319 471 q 377 474 344 471 q 442 485 410 478 q 505 503 475 493 q 554 528 535 514 z "},"∵":{"ha":1278,"x_min":181,"x_max":1096,"o":"m 1096 803 q 1083 742 1096 771 q 1049 693 1071 714 q 998 660 1028 672 q 935 649 968 649 q 872 660 901 649 q 822 693 843 672 q 787 742 800 714 q 774 803 774 771 q 787 862 774 833 q 822 911 800 890 q 872 944 843 932 q 935 957 901 957 q 998 944 968 957 q 1049 911 1028 932 q 1083 862 1071 890 q 1096 803 1096 833 m 181 803 q 193 862 181 833 q 227 911 206 890 q 278 944 249 932 q 342 957 308 957 q 403 944 374 957 q 453 911 432 932 q 488 862 475 890 q 501 803 501 833 q 488 742 501 771 q 453 693 475 714 q 403 660 432 672 q 342 649 374 649 q 278 660 308 649 q 227 693 249 672 q 193 742 206 714 q 181 803 181 771 m 800 318 q 788 260 800 288 q 753 210 775 232 q 702 176 732 189 q 639 164 672 164 q 576 176 606 164 q 524 210 546 189 q 490 260 503 232 q 478 318 478 288 q 490 379 478 351 q 524 428 503 407 q 576 460 546 449 q 639 472 606 472 q 702 460 672 472 q 753 428 732 449 q 788 379 775 407 q 800 318 800 351 z "},"∫":{"ha":1278,"x_min":324,"x_max":954,"o":"m 324 -81 l 324 285 q 415 311 392 288 q 438 390 438 335 l 438 611 q 460 790 438 710 q 527 926 482 869 q 642 1014 572 983 q 808 1044 713 1044 q 879 1044 840 1044 q 954 1042 918 1043 l 954 676 q 863 650 886 674 q 840 571 840 626 l 840 350 q 818 172 840 251 q 751 35 796 92 q 635 -53 706 -22 q 469 -83 565 -83 q 399 -83 438 -83 q 324 -81 360 -82 z "},"∬":{"ha":1278,"x_min":53,"x_max":1225,"o":"m 53 -81 l 53 285 q 144 311 121 288 q 167 390 167 335 l 167 611 q 189 790 167 710 q 256 926 211 869 q 372 1014 301 983 q 538 1044 442 1044 q 608 1044 569 1044 q 683 1042 647 1043 l 683 676 q 592 650 615 674 q 569 571 569 626 l 569 350 q 547 172 569 251 q 480 35 525 92 q 365 -53 435 -22 q 199 -83 294 -83 q 128 -83 167 -83 q 53 -81 89 -82 m 594 -81 l 594 285 q 685 311 663 288 q 708 390 708 335 l 708 611 q 731 790 708 710 q 798 926 753 869 q 913 1014 843 983 q 1079 1044 983 1044 q 1150 1044 1111 1044 q 1225 1042 1189 1043 l 1225 676 q 1134 650 1157 674 q 1111 571 1111 626 l 1111 350 q 1089 172 1111 251 q 1022 35 1067 92 q 906 -53 976 -22 q 740 -83 836 -83 q 669 -83 708 -83 q 594 -81 631 -82 z "},"∈":{"ha":1278,"x_min":118,"x_max":1139,"o":"m 538 326 q 598 267 560 288 q 694 247 636 247 l 1139 247 l 1139 -62 l 694 -62 q 434 -28 543 -62 q 255 75 325 7 q 151 245 185 143 q 118 482 118 347 q 151 719 118 617 q 255 889 185 821 q 434 991 325 957 q 694 1025 543 1025 l 1139 1025 l 1139 715 l 694 715 q 536 636 579 715 l 1139 636 l 1139 326 l 538 326 z "},"∋":{"ha":1278,"x_min":139,"x_max":1160,"o":"m 139 -62 l 139 247 l 583 247 q 680 267 642 247 q 740 326 718 288 l 139 326 l 139 636 l 742 636 q 583 715 697 715 l 139 715 l 139 1025 l 583 1025 q 844 991 735 1025 q 1023 889 953 957 q 1126 719 1093 821 q 1160 482 1160 617 q 1126 245 1160 347 q 1023 75 1093 143 q 844 -28 953 7 q 583 -62 735 -62 l 139 -62 z "},"⊆":{"ha":1278,"x_min":118,"x_max":1139,"o":"m 506 657 q 525 612 506 625 q 583 599 544 599 l 1139 599 l 1139 289 l 458 289 q 311 315 375 289 q 205 390 247 342 q 140 506 163 439 q 118 657 118 574 q 140 808 118 740 q 205 924 163 875 q 311 999 247 972 q 458 1025 375 1025 l 1139 1025 l 1139 715 l 583 715 q 525 702 544 715 q 506 657 506 689 m 139 190 l 1139 190 l 1139 -62 l 139 -62 l 139 190 z "},"⊇":{"ha":1278,"x_min":139,"x_max":1160,"o":"m 772 657 q 753 702 772 689 q 694 715 733 715 l 139 715 l 139 1025 l 819 1025 q 967 999 903 1025 q 1073 924 1031 972 q 1138 808 1115 875 q 1160 657 1160 740 q 1138 506 1160 574 q 1073 390 1115 439 q 967 315 1031 342 q 819 289 903 289 l 139 289 l 139 599 l 694 599 q 753 612 733 599 q 772 657 772 625 m 1139 190 l 1139 -62 l 139 -62 l 139 190 l 1139 190 z "},"⊂":{"ha":1278,"x_min":131,"x_max":1147,"o":"m 518 532 q 554 501 518 501 l 1147 501 l 1147 192 l 471 192 q 217 278 303 192 q 131 532 131 365 q 217 785 131 699 q 471 872 303 872 l 1147 872 l 1147 563 l 554 563 q 518 532 518 563 z "},"⊃":{"ha":1278,"x_min":131,"x_max":1147,"o":"m 760 532 q 724 563 760 563 l 131 563 l 131 872 l 807 872 q 1061 785 975 872 q 1147 532 1147 699 q 1061 278 1147 365 q 807 192 975 192 l 131 192 l 131 501 l 724 501 q 760 532 760 501 z "},"∪":{"ha":1278,"x_min":228,"x_max":1050,"o":"m 639 347 q 669 360 660 347 q 679 397 679 374 l 679 929 l 1050 929 l 1050 381 q 1024 251 1050 310 q 946 151 997 193 q 817 85 894 108 q 639 63 740 63 q 460 85 538 63 q 332 151 383 108 q 254 251 281 193 q 228 381 228 310 l 228 929 l 599 929 l 599 397 q 608 360 599 374 q 639 347 618 347 z "},"∩":{"ha":1278,"x_min":228,"x_max":1050,"o":"m 639 644 q 608 631 618 644 q 599 594 599 618 l 599 63 l 228 63 l 228 611 q 254 740 228 682 q 332 841 281 799 q 460 906 383 883 q 639 929 538 929 q 817 906 740 929 q 946 841 894 883 q 1024 740 997 799 q 1050 611 1050 682 l 1050 63 l 679 63 l 679 594 q 669 631 679 618 q 639 644 660 644 z "},"∧":{"ha":1278,"x_min":143,"x_max":1135,"o":"m 143 215 l 639 947 l 1135 215 l 875 31 l 639 376 l 403 31 l 143 215 z "},"∨":{"ha":1278,"x_min":143,"x_max":1135,"o":"m 143 763 l 403 947 l 639 601 l 875 947 l 1135 763 l 639 31 l 143 763 z "},"¬":{"ha":1278,"x_min":51,"x_max":1232,"o":"m 1232 742 l 1232 113 l 829 113 l 829 407 l 51 407 l 51 742 l 1232 742 z "},"⇒":{"ha":1278,"x_min":51,"x_max":1268,"o":"m 51 260 l 51 469 l 899 469 l 871 518 l 51 518 l 51 739 l 751 739 l 663 885 l 1035 885 l 1268 503 l 1051 119 l 663 119 l 747 260 l 51 260 z "},"⇔":{"ha":1278,"x_min":11,"x_max":1268,"o":"m 617 885 l 528 739 l 750 739 l 663 885 l 1035 885 l 1268 503 l 1051 119 l 663 119 l 746 258 l 532 258 l 617 119 l 228 119 l 11 503 l 244 885 l 617 885 m 426 518 l 399 469 l 899 469 l 871 518 l 426 518 z "},"∀":{"ha":1278,"x_min":69,"x_max":1208,"o":"m 708 1024 l 1208 1024 l 875 -61 l 403 -61 l 69 1024 l 569 1024 l 639 799 l 708 1024 m 797 446 l 822 483 q 643 533 743 521 q 443 546 543 546 l 443 504 q 634 491 543 504 q 797 446 725 478 z "},"∃":{"ha":1278,"x_min":210,"x_max":1068,"o":"m 210 1024 l 1068 1024 l 1068 -62 l 210 -62 l 210 264 l 651 264 l 651 313 l 210 313 l 210 649 l 651 649 l 651 697 l 210 697 l 210 1024 z "},"´":{"ha":490,"x_min":38,"x_max":453,"o":"m 38 669 l 107 1024 l 453 1024 l 356 669 l 38 669 z "},"˜":{"ha":1278,"x_min":104,"x_max":1175,"o":"m 432 739 q 538 724 486 739 q 649 681 590 708 q 695 658 671 669 q 742 638 719 647 q 782 624 764 629 q 808 618 800 618 q 860 632 833 618 q 910 669 886 646 q 952 723 933 692 q 979 790 971 754 l 1175 539 q 1017 320 1115 389 q 806 256 918 251 q 676 278 735 258 q 565 326 618 297 q 497 363 532 346 q 432 379 463 379 q 356 339 392 379 q 296 232 319 299 l 104 472 q 244 674 156 610 q 432 739 332 739 z "},"ˇ":{"ha":732,"x_min":-6,"x_max":738,"o":"m 203 669 l -6 1024 l 317 1024 l 365 911 l 414 1024 l 738 1024 l 531 669 l 203 669 z "},"˘":{"ha":742,"x_min":14,"x_max":728,"o":"m 435 1024 l 728 1024 q 703 837 728 910 q 631 722 678 764 q 519 665 585 681 q 372 649 453 649 q 217 665 283 649 q 105 724 150 682 q 37 839 60 767 q 14 1024 14 911 l 311 1024 q 330 953 311 976 q 372 929 349 929 q 414 953 396 929 q 435 1024 432 976 z "},"˝":{"ha":867,"x_min":38,"x_max":829,"o":"m 38 669 l 107 1024 l 453 1024 l 356 669 l 38 669 m 386 669 l 483 1024 l 829 1024 l 732 669 l 386 669 z "},"˚":{"ha":581,"x_min":49,"x_max":532,"o":"m 49 844 q 67 933 49 893 q 119 1002 86 974 q 195 1047 151 1031 q 290 1063 239 1063 q 385 1047 340 1063 q 462 1002 429 1031 q 513 933 494 974 q 532 844 532 893 q 513 760 532 799 q 462 692 494 721 q 385 648 429 664 q 290 632 340 632 q 195 648 239 632 q 119 692 151 664 q 67 760 86 721 q 49 844 49 799 m 188 906 l 163 868 q 218 848 186 857 q 285 833 250 839 q 353 823 319 826 q 417 819 388 819 l 417 861 q 356 865 388 861 q 294 874 325 868 q 235 889 263 881 q 188 906 208 897 z "},"˙":{"ha":347,"x_min":28,"x_max":319,"o":"m 319 1024 l 319 669 l 28 669 l 28 1024 l 319 1024 z "},"¸":{"ha":507,"x_min":29,"x_max":468,"o":"m 111 90 l 358 90 l 343 1 q 403 -20 379 -4 q 442 -57 428 -36 q 463 -103 457 -78 q 468 -153 468 -128 q 453 -242 468 -207 q 408 -299 439 -278 q 327 -328 376 -319 q 210 -336 278 -336 q 175 -335 197 -336 q 127 -331 153 -333 q 75 -323 101 -328 q 29 -311 49 -318 l 64 -146 q 129 -165 92 -158 q 192 -171 167 -171 q 227 -166 219 -171 q 239 -142 235 -161 q 69 -119 142 -146 l 111 90 z "},"˛":{"ha":438,"x_min":14,"x_max":425,"o":"m 228 81 l 385 -89 q 295 -97 318 -89 q 272 -115 272 -106 q 283 -125 272 -121 q 313 -129 294 -129 l 425 -128 l 425 -319 l 306 -319 q 85 -276 157 -319 q 14 -133 14 -233 q 74 -3 14 -58 q 228 81 133 53 z "},"¡":{"ha":529,"x_min":35,"x_max":492,"o":"m 63 1022 l 365 1022 q 438 1002 413 1022 q 464 933 464 982 l 464 660 l 63 660 l 63 1022 m 63 626 l 464 626 l 492 -118 l 35 -118 l 63 626 z "},"¿":{"ha":858,"x_min":28,"x_max":819,"o":"m 235 1044 l 538 1044 q 610 1024 585 1044 q 636 956 636 1004 l 636 710 l 235 710 l 235 1044 m 235 676 l 629 676 l 629 442 q 557 418 592 433 q 494 383 522 403 q 450 338 467 363 q 433 286 433 313 q 458 217 433 242 q 517 192 482 192 q 670 216 597 192 q 819 297 743 240 l 819 -12 q 653 -87 753 -58 q 410 -117 554 -117 q 242 -92 314 -117 q 123 -24 171 -68 q 51 83 75 21 q 28 221 28 146 q 78 427 28 333 q 235 579 128 521 l 235 676 z "},"ː":{"ha":1278,"x_min":322,"x_max":956,"o":"m 956 1022 l 632 478 l 322 1022 l 956 1022 m 632 425 l 956 -119 l 322 -119 l 632 425 z "},"∮":{"ha":1278,"x_min":224,"x_max":1056,"o":"m 224 489 q 282 688 224 604 q 449 813 340 771 q 555 969 476 914 q 760 1024 633 1024 q 795 1023 765 1024 q 859 1022 825 1022 q 922 1020 893 1021 q 958 1019 951 1019 l 957 810 q 915 818 928 817 q 894 819 903 819 q 838 810 861 819 q 999 685 943 767 q 1056 489 1056 603 q 999 293 1056 376 q 836 165 943 210 q 788 90 826 129 q 681 17 749 50 q 519 -39 614 -17 q 307 -61 425 -61 l 307 138 q 340 140 319 138 q 381 147 361 143 q 415 157 400 151 q 433 169 431 163 q 278 296 332 214 q 224 489 224 378 m 456 650 l 428 631 q 451 578 440 610 q 469 508 461 546 q 482 433 478 471 q 486 364 486 394 l 517 364 q 513 435 517 394 q 501 515 508 475 q 482 590 493 554 q 456 650 471 626 m 778 650 l 750 631 q 773 578 763 610 q 791 508 783 546 q 803 433 799 471 q 807 364 807 394 l 839 364 q 835 435 839 394 q 823 515 831 475 q 804 590 815 554 q 778 650 793 626 z "},"∑":{"ha":1278,"x_min":119,"x_max":1158,"o":"m 1158 -62 l 119 -62 l 119 146 l 539 492 l 122 740 l 122 1025 l 1158 1025 l 1158 714 l 711 714 l 1039 538 l 701 256 l 1158 256 l 1158 -62 z "},"∏":{"ha":1278,"x_min":50,"x_max":1228,"o":"m 1228 697 l 1103 697 l 1103 -62 l 701 -62 l 701 697 l 576 697 l 576 -62 l 175 -62 l 175 697 l 50 697 l 50 1024 l 1228 1024 l 1228 697 z "},"¤":{"ha":1278,"x_min":-6,"x_max":1283,"o":"m 104 453 q 122 601 104 533 q 175 728 140 669 l -6 1024 l 439 1024 l 488 946 q 628 961 557 961 q 788 940 713 961 l 839 1024 l 1283 1024 l 1092 708 q 1137 590 1121 654 q 1153 453 1153 526 q 1137 316 1153 381 q 1090 197 1121 251 l 1283 -119 l 839 -119 l 788 -35 q 628 -56 713 -56 q 488 -40 557 -56 l 439 -119 l -6 -119 l 176 179 q 104 453 104 296 m 467 510 l 442 472 q 621 422 521 435 q 821 410 721 410 l 821 451 q 630 465 721 451 q 467 510 539 478 z "},"℉":{"ha":1333,"x_min":1,"x_max":1283,"o":"m 1 863 q 17 938 1 904 q 58 995 32 971 q 121 1032 85 1019 q 199 1044 157 1044 q 276 1032 240 1044 q 338 995 313 1019 q 379 938 364 971 q 394 863 394 904 q 379 788 394 821 q 338 730 364 754 q 276 693 313 706 q 199 681 240 681 q 121 693 157 681 q 58 730 85 706 q 17 788 32 754 q 1 863 1 821 m 842 -62 l 425 -62 l 425 1024 l 1283 1024 l 1283 669 l 842 669 l 842 621 l 1283 621 l 1283 271 l 842 271 l 842 -62 m 328 869 l 303 904 q 247 880 278 889 q 185 866 215 871 q 128 860 156 861 q 81 860 100 860 l 81 821 q 128 821 99 821 q 193 826 158 821 q 263 840 228 831 q 328 869 299 850 z "},"‰":{"ha":1278,"x_min":19,"x_max":1268,"o":"m 19 708 q 63 948 19 858 q 197 1038 107 1038 q 331 948 286 1038 q 375 708 375 858 q 331 469 375 558 q 197 381 286 381 q 63 469 107 381 q 19 708 19 558 m 447 -61 l 239 -61 l 467 1024 l 672 1024 l 447 -61 m 104 733 q 184 676 139 696 q 274 657 229 657 l 274 696 q 189 716 229 696 q 117 768 149 736 l 104 733 m 536 240 q 580 480 536 390 q 714 569 624 569 q 847 480 803 569 q 890 240 890 390 q 847 1 890 90 q 714 -87 803 -87 q 580 1 624 -87 q 536 240 536 90 m 914 240 q 957 480 914 390 q 1090 569 1000 569 q 1224 480 1179 569 q 1268 240 1268 390 q 1224 1 1268 90 q 1090 -87 1179 -87 q 957 1 1000 -87 q 914 240 914 90 m 621 265 q 699 208 654 228 q 790 189 744 189 l 790 228 q 705 248 744 228 q 635 300 665 268 l 621 265 m 997 265 q 1077 208 1032 228 q 1168 189 1122 189 l 1168 228 q 1082 248 1122 228 q 1013 300 1042 268 l 997 265 z "},"◁":{"ha":1278,"x_min":56,"x_max":1228,"o":"m 1228 1064 l 1228 -204 l 56 442 l 1228 1064 m 1044 753 l 447 433 l 1044 107 l 1044 753 z "},"◀":{"ha":1278,"x_min":54,"x_max":1228,"o":"m 54 442 l 1228 1090 l 1228 -179 l 54 442 z "},"▷":{"ha":1278,"x_min":50,"x_max":1224,"o":"m 1224 442 l 50 -204 l 51 1064 l 1224 442 m 233 107 l 832 433 l 235 753 l 233 107 z "},"▶":{"ha":1278,"x_min":50,"x_max":1224,"o":"m 50 -179 l 50 1090 l 1224 442 l 50 -179 z "},"♤":{"ha":1278,"x_min":3,"x_max":1269,"o":"m 963 125 q 797 145 879 125 q 632 219 714 165 l 600 189 q 781 106 686 129 q 951 83 875 83 l 1075 83 l 1075 -119 l 175 -119 l 175 83 l 415 83 l 415 131 q 365 121 388 122 q 315 119 342 119 q 149 156 219 119 q 40 253 78 192 q 3 398 3 315 q 50 575 4 481 q 178 782 108 693 q 326 931 249 871 q 483 1019 403 990 q 640 1049 563 1049 q 797 1021 717 1049 q 953 935 876 993 q 1101 787 1031 876 q 1228 574 1171 697 q 1266 402 1269 483 q 1224 259 1263 321 q 1117 161 1185 197 q 963 125 1050 125 m 414 415 l 525 525 q 616 431 567 476 q 718 349 665 385 q 826 293 771 314 q 936 272 882 272 q 1024 293 988 272 q 1078 349 1060 314 q 1094 433 1096 385 q 1065 535 1092 481 q 974 684 1025 618 q 869 797 924 750 q 757 867 814 843 q 647 892 700 892 q 415 799 531 892 q 208 535 299 707 q 174 426 176 475 q 191 342 172 376 q 248 288 210 307 q 336 268 286 268 q 421 283 381 268 q 494 325 461 297 q 452 369 471 347 q 414 415 433 392 z "},"♠":{"ha":1278,"x_min":6,"x_max":1279,"o":"m 976 122 q 766 159 863 122 q 588 249 669 196 l 564 211 q 758 118 656 153 q 951 83 860 83 l 1075 83 l 1075 -119 l 175 -119 l 175 83 l 425 83 l 425 176 q 354 142 397 160 q 260 126 311 125 q 117 163 174 126 q 33 259 60 199 q 10 398 6 319 q 50 561 14 476 q 170 766 99 675 q 322 921 242 857 q 485 1018 401 985 q 640 1049 568 1051 q 794 1017 711 1050 q 956 919 876 983 q 1108 765 1036 856 q 1228 560 1179 674 q 1272 396 1264 475 q 1251 256 1279 317 q 1156 159 1222 196 q 976 122 1089 122 z "},"♡":{"ha":1278,"x_min":17,"x_max":1275,"o":"m 646 928 q 777 1019 708 986 q 929 1051 846 1051 q 1097 1009 1025 1051 q 1212 893 1169 967 q 1265 720 1254 819 q 1249 507 1275 621 q 1158 269 1219 383 q 1016 67 1097 156 q 838 -74 935 -21 q 640 -126 742 -126 q 449 -73 543 -126 q 273 69 354 -19 q 131 272 192 157 q 40 508 69 386 q 23 706 17 608 q 69 880 29 803 q 182 1005 108 957 q 364 1053 256 1053 q 525 1016 458 1053 q 646 928 592 979 m 413 635 q 474 720 444 679 q 532 799 503 761 q 447 858 489 835 q 371 881 404 881 q 264 850 304 881 q 207 766 224 819 q 196 640 190 713 q 228 483 201 568 q 301 319 254 400 q 403 176 347 239 q 519 74 458 113 q 636 36 581 36 q 761 68 696 36 q 885 160 826 100 q 994 303 944 219 q 1072 490 1043 388 q 1076 781 1125 678 q 903 883 1028 883 q 819 859 860 883 q 735 790 778 835 q 645 680 692 744 q 544 535 599 615 l 413 635 z "},"♥":{"ha":1278,"x_min":6,"x_max":1274,"o":"m 636 861 q 705 925 668 892 q 785 987 742 958 q 878 1033 828 1015 q 985 1051 928 1051 q 1143 1004 1081 1051 q 1237 880 1206 957 q 1271 705 1268 803 q 1249 507 1274 607 q 1147 259 1217 376 q 992 54 1078 142 q 813 -83 906 -33 q 640 -126 719 -132 q 526 -107 586 -129 q 406 -43 467 -85 q 287 58 344 -1 q 179 188 229 117 q 90 340 129 258 q 31 508 51 421 q 8 706 6 608 q 42 881 11 804 q 136 1006 74 958 q 294 1053 199 1053 q 396 1040 351 1053 q 476 1007 440 1028 q 544 958 513 986 q 607 899 575 931 q 533 818 569 860 q 465 726 497 776 l 494 692 q 559 779 526 740 q 636 861 592 818 z "},"♧":{"ha":1278,"x_min":11,"x_max":1268,"o":"m 175 -119 l 175 83 l 425 83 l 425 132 q 343 122 388 122 q 213 147 274 122 q 108 213 153 171 q 38 314 64 256 q 11 442 11 372 q 35 572 11 513 q 101 674 60 632 q 198 735 143 715 q 314 744 253 754 q 338 872 314 815 q 406 967 363 928 q 508 1026 449 1006 q 639 1047 568 1047 q 765 1025 706 1047 q 867 963 824 1003 q 937 868 911 924 q 963 744 963 813 q 1085 735 1029 754 q 1182 674 1142 715 q 1245 572 1222 632 q 1268 442 1268 511 q 1242 314 1268 372 q 1170 213 1215 256 q 1064 147 1125 171 q 935 122 1003 122 q 781 149 857 122 q 635 215 704 175 q 617 199 626 207 q 600 185 608 192 q 772 108 682 133 q 938 83 863 83 l 1075 83 l 1075 -119 l 175 -119 m 519 522 q 600 435 550 479 q 706 354 650 390 q 817 295 761 318 q 915 272 872 272 q 1053 323 1004 272 q 1101 450 1101 374 q 1074 539 1101 501 q 1005 597 1047 576 q 911 618 963 617 q 811 600 860 619 q 814 710 822 658 q 781 802 806 763 q 719 865 757 842 q 632 889 681 889 q 544 865 581 889 q 485 802 507 842 q 458 710 463 763 q 467 600 453 658 q 369 619 421 619 q 276 599 318 619 q 206 541 233 579 q 178 447 178 503 q 194 364 178 397 q 235 310 210 331 q 293 282 261 290 q 357 274 325 274 q 433 286 399 274 q 496 318 468 299 q 449 365 471 342 q 413 411 428 388 l 519 522 z "},"♣":{"ha":1278,"x_min":11,"x_max":1268,"o":"m 938 83 l 1075 83 l 1075 -119 l 175 -119 l 175 83 l 425 83 l 425 132 q 343 122 388 122 q 213 144 274 122 q 108 206 153 167 q 38 302 64 246 q 11 428 11 358 q 35 551 11 492 q 100 656 58 611 q 197 725 142 700 q 314 744 251 750 q 338 872 314 815 q 406 967 363 928 q 508 1026 449 1006 q 639 1047 568 1047 q 765 1025 706 1047 q 867 963 824 1003 q 937 868 911 924 q 963 744 963 813 q 1082 725 1026 750 q 1179 656 1138 700 q 1244 551 1221 611 q 1268 428 1268 492 q 1242 302 1268 358 q 1170 206 1215 246 q 1064 144 1125 167 q 935 122 1003 122 q 756 159 842 122 q 588 249 669 196 l 564 211 q 751 118 656 153 q 938 83 846 83 z "},"⊙":{"ha":1278,"x_min":32,"x_max":1246,"o":"m 1246 511 q 1198 276 1246 386 q 1067 83 1150 165 q 874 -48 985 0 q 639 -96 764 -96 q 403 -48 514 -96 q 210 83 293 0 q 80 276 128 165 q 32 511 32 386 q 80 747 32 636 q 210 940 128 857 q 403 1070 293 1022 q 639 1118 514 1118 q 874 1070 764 1118 q 1067 940 985 1022 q 1198 747 1150 857 q 1246 511 1246 636 m 1032 511 q 1001 662 1032 590 q 915 788 969 733 q 790 873 861 842 q 639 904 718 904 q 488 873 560 904 q 363 788 417 842 q 277 662 308 733 q 246 511 246 590 q 277 360 246 432 q 363 235 308 289 q 488 149 417 181 q 639 118 560 118 q 790 149 718 118 q 915 235 861 181 q 1001 360 969 289 q 1032 511 1032 432 m 881 511 q 862 417 881 461 q 810 340 843 374 q 733 288 776 307 q 639 269 689 269 q 545 288 589 269 q 468 340 501 307 q 416 417 435 374 q 397 511 397 461 q 416 605 397 561 q 468 682 435 649 q 545 734 501 715 q 639 753 589 753 q 733 734 689 753 q 810 682 776 715 q 862 605 843 649 q 881 511 881 561 z "},"◈":{"ha":1278,"x_min":15,"x_max":1263,"o":"m 639 1121 l 1263 483 l 639 -168 l 15 483 l 639 1121 m 639 90 l 1013 481 l 639 863 l 265 481 l 639 90 m 639 785 l 938 479 l 639 168 l 340 479 l 639 785 z "},"▣":{"ha":1278,"x_min":44,"x_max":1228,"o":"m 44 1022 l 1228 1022 l 1228 -118 l 44 -118 l 44 1022 m 1014 89 l 1014 817 l 258 817 l 258 89 l 1014 89 m 335 743 l 938 743 l 938 163 l 335 163 l 335 743 z "},"◐":{"ha":1278,"x_min":32,"x_max":1246,"o":"m 1246 511 q 1198 276 1246 386 q 1067 83 1150 165 q 874 -48 985 0 q 639 -96 764 -96 q 403 -48 514 -96 q 210 83 293 0 q 80 276 128 165 q 32 511 32 386 q 80 747 32 636 q 210 940 128 857 q 403 1070 293 1022 q 639 1118 514 1118 q 874 1070 764 1118 q 1067 940 985 1022 q 1198 747 1150 857 q 1246 511 1246 636 m 1032 511 q 1001 662 1032 590 q 915 788 969 733 q 790 873 861 842 q 639 904 718 904 l 639 118 q 790 149 718 118 q 915 235 861 181 q 1001 360 969 289 q 1032 511 1032 432 z "},"◑":{"ha":1278,"x_min":32,"x_max":1246,"o":"m 32 511 q 80 747 32 636 q 210 940 128 857 q 403 1070 293 1022 q 639 1118 514 1118 q 874 1070 764 1118 q 1067 940 985 1022 q 1198 747 1150 857 q 1246 511 1246 636 q 1198 276 1246 386 q 1067 83 1150 165 q 874 -48 985 0 q 639 -96 764 -96 q 403 -48 514 -96 q 210 83 293 0 q 80 276 128 165 q 32 511 32 386 m 639 118 l 639 904 q 488 873 560 904 q 363 788 417 842 q 277 662 308 733 q 246 511 246 590 q 277 360 246 432 q 363 235 308 289 q 488 149 417 181 q 639 118 560 118 z "},"▒":{"ha":1278,"x_min":22,"x_max":1260,"o":"m 93 1024 l 93 954 l 22 954 l 22 1024 l 93 1024 m 385 1024 l 385 954 l 314 954 l 314 1024 l 385 1024 m 1065 1024 l 1065 954 l 994 954 l 994 1024 l 1065 1024 m 968 1024 l 968 954 l 897 954 l 897 1024 l 968 1024 m 482 1024 l 482 954 l 411 954 l 411 1024 l 482 1024 m 676 1024 l 676 954 l 606 954 l 606 1024 l 676 1024 m 774 1024 l 774 954 l 703 954 l 703 1024 l 774 1024 m 288 1024 l 288 954 l 217 954 l 217 1024 l 288 1024 m 1163 1024 l 1163 954 l 1092 954 l 1092 1024 l 1163 1024 m 871 1024 l 871 954 l 800 954 l 800 1024 l 871 1024 m 579 1024 l 579 954 l 508 954 l 508 1024 l 579 1024 m 1260 1024 l 1260 954 l 1189 954 l 1189 1024 l 1260 1024 m 190 1024 l 190 954 l 119 954 l 119 1024 l 190 1024 m 190 926 l 190 857 l 119 857 l 119 926 l 190 926 m 579 926 l 579 857 l 508 857 l 508 926 l 579 926 m 1260 926 l 1260 857 l 1189 857 l 1189 926 l 1260 926 m 871 926 l 871 857 l 800 857 l 800 926 l 871 926 m 1163 926 l 1163 857 l 1092 857 l 1092 926 l 1163 926 m 774 926 l 774 857 l 703 857 l 703 926 l 774 926 m 288 926 l 288 857 l 217 857 l 217 926 l 288 926 m 482 926 l 482 857 l 411 857 l 411 926 l 482 926 m 676 926 l 676 857 l 606 857 l 606 926 l 676 926 m 968 926 l 968 857 l 897 857 l 897 926 l 968 926 m 1065 926 l 1065 857 l 994 857 l 994 926 l 1065 926 m 93 926 l 93 857 l 22 857 l 22 926 l 93 926 m 385 926 l 385 857 l 314 857 l 314 926 l 385 926 m 190 829 l 190 760 l 119 760 l 119 829 l 190 829 m 579 829 l 579 760 l 508 760 l 508 829 l 579 829 m 1260 829 l 1260 760 l 1189 760 l 1189 829 l 1260 829 m 871 829 l 871 760 l 800 760 l 800 829 l 871 829 m 1163 829 l 1163 760 l 1092 760 l 1092 829 l 1163 829 m 774 829 l 774 760 l 703 760 l 703 829 l 774 829 m 288 829 l 288 760 l 217 760 l 217 829 l 288 829 m 482 829 l 482 760 l 411 760 l 411 829 l 482 829 m 676 829 l 676 760 l 606 760 l 606 829 l 676 829 m 968 829 l 968 760 l 897 760 l 897 829 l 968 829 m 1065 829 l 1065 760 l 994 760 l 994 829 l 1065 829 m 93 829 l 93 760 l 22 760 l 22 829 l 93 829 m 385 829 l 385 760 l 314 760 l 314 829 l 385 829 m 385 732 l 385 663 l 314 663 l 314 732 l 385 732 m 676 732 l 676 663 l 606 663 l 606 732 l 676 732 m 968 732 l 968 663 l 897 663 l 897 732 l 968 732 m 1065 732 l 1065 663 l 994 663 l 994 732 l 1065 732 m 93 732 l 93 663 l 22 663 l 22 732 l 93 732 m 288 732 l 288 663 l 217 663 l 217 732 l 288 732 m 482 732 l 482 663 l 411 663 l 411 732 l 482 732 m 1260 732 l 1260 663 l 1189 663 l 1189 732 l 1260 732 m 871 732 l 871 663 l 800 663 l 800 732 l 871 732 m 1163 732 l 1163 663 l 1092 663 l 1092 732 l 1163 732 m 774 732 l 774 663 l 703 663 l 703 732 l 774 732 m 190 732 l 190 663 l 119 663 l 119 732 l 190 732 m 579 732 l 579 663 l 508 663 l 508 732 l 579 732 m 385 635 l 385 565 l 314 565 l 314 635 l 385 635 m 676 635 l 676 565 l 606 565 l 606 635 l 676 635 m 968 635 l 968 565 l 897 565 l 897 635 l 968 635 m 1065 635 l 1065 565 l 994 565 l 994 635 l 1065 635 m 93 635 l 93 565 l 22 565 l 22 635 l 93 635 m 288 635 l 288 565 l 217 565 l 217 635 l 288 635 m 482 635 l 482 565 l 411 565 l 411 635 l 482 635 m 1260 635 l 1260 565 l 1189 565 l 1189 635 l 1260 635 m 871 635 l 871 565 l 800 565 l 800 635 l 871 635 m 1163 635 l 1163 565 l 1092 565 l 1092 635 l 1163 635 m 774 635 l 774 565 l 703 565 l 703 635 l 774 635 m 190 635 l 190 565 l 119 565 l 119 635 l 190 635 m 579 635 l 579 565 l 508 565 l 508 635 l 579 635 m 579 538 l 579 468 l 508 468 l 508 538 l 579 538 m 774 538 l 774 468 l 703 468 l 703 538 l 774 538 m 190 538 l 190 468 l 119 468 l 119 538 l 190 538 m 1163 538 l 1163 468 l 1092 468 l 1092 538 l 1163 538 m 871 538 l 871 468 l 800 468 l 800 538 l 871 538 m 482 538 l 482 468 l 411 468 l 411 538 l 482 538 m 1260 538 l 1260 468 l 1189 468 l 1189 538 l 1260 538 m 93 538 l 93 468 l 22 468 l 22 538 l 93 538 m 288 538 l 288 468 l 217 468 l 217 538 l 288 538 m 1065 538 l 1065 468 l 994 468 l 994 538 l 1065 538 m 968 538 l 968 468 l 897 468 l 897 538 l 968 538 m 385 538 l 385 468 l 314 468 l 314 538 l 385 538 m 676 538 l 676 468 l 606 468 l 606 538 l 676 538 m 676 440 l 676 371 l 606 371 l 606 440 l 676 440 m 968 440 l 968 371 l 897 371 l 897 440 l 968 440 m 1260 440 l 1260 371 l 1189 371 l 1189 440 l 1260 440 m 93 440 l 93 371 l 22 371 l 22 440 l 93 440 m 385 440 l 385 371 l 314 371 l 314 440 l 385 440 m 579 440 l 579 371 l 508 371 l 508 440 l 579 440 m 774 440 l 774 371 l 703 371 l 703 440 l 774 440 m 288 440 l 288 371 l 217 371 l 217 440 l 288 440 m 1163 440 l 1163 371 l 1092 371 l 1092 440 l 1163 440 m 190 440 l 190 371 l 119 371 l 119 440 l 190 440 m 1065 440 l 1065 371 l 994 371 l 994 440 l 1065 440 m 482 440 l 482 371 l 411 371 l 411 440 l 482 440 m 871 440 l 871 371 l 800 371 l 800 440 l 871 440 m 676 343 l 676 274 l 606 274 l 606 343 l 676 343 m 968 343 l 968 274 l 897 274 l 897 343 l 968 343 m 1260 343 l 1260 274 l 1189 274 l 1189 343 l 1260 343 m 93 343 l 93 274 l 22 274 l 22 343 l 93 343 m 385 343 l 385 274 l 314 274 l 314 343 l 385 343 m 579 343 l 579 274 l 508 274 l 508 343 l 579 343 m 774 343 l 774 274 l 703 274 l 703 343 l 774 343 m 288 343 l 288 274 l 217 274 l 217 343 l 288 343 m 1163 343 l 1163 274 l 1092 274 l 1092 343 l 1163 343 m 190 343 l 190 274 l 119 274 l 119 343 l 190 343 m 1065 343 l 1065 274 l 994 274 l 994 343 l 1065 343 m 482 343 l 482 274 l 411 274 l 411 343 l 482 343 m 871 343 l 871 274 l 800 274 l 800 343 l 871 343 m 871 246 l 871 176 l 800 176 l 800 246 l 871 246 m 1065 246 l 1065 176 l 994 176 l 994 246 l 1065 246 m 482 246 l 482 176 l 411 176 l 411 246 l 482 246 m 190 246 l 190 176 l 119 176 l 119 246 l 190 246 m 1163 246 l 1163 176 l 1092 176 l 1092 246 l 1163 246 m 774 246 l 774 176 l 703 176 l 703 246 l 774 246 m 288 246 l 288 176 l 217 176 l 217 246 l 288 246 m 385 246 l 385 176 l 314 176 l 314 246 l 385 246 m 579 246 l 579 176 l 508 176 l 508 246 l 579 246 m 93 246 l 93 176 l 22 176 l 22 246 l 93 246 m 1260 246 l 1260 176 l 1189 176 l 1189 246 l 1260 246 m 676 246 l 676 176 l 606 176 l 606 246 l 676 246 m 968 246 l 968 176 l 897 176 l 897 246 l 968 246 m 968 149 l 968 79 l 897 79 l 897 149 l 968 149 m 1260 149 l 1260 79 l 1189 79 l 1189 149 l 1260 149 m 288 149 l 288 79 l 217 79 l 217 149 l 288 149 m 385 149 l 385 79 l 314 79 l 314 149 l 385 149 m 676 149 l 676 79 l 606 79 l 606 149 l 676 149 m 871 149 l 871 79 l 800 79 l 800 149 l 871 149 m 1065 149 l 1065 79 l 994 79 l 994 149 l 1065 149 m 579 149 l 579 79 l 508 79 l 508 149 l 579 149 m 190 149 l 190 79 l 119 79 l 119 149 l 190 149 m 482 149 l 482 79 l 411 79 l 411 149 l 482 149 m 93 149 l 93 79 l 22 79 l 22 149 l 93 149 m 774 149 l 774 79 l 703 79 l 703 149 l 774 149 m 1163 149 l 1163 79 l 1092 79 l 1092 149 l 1163 149 m 968 51 l 968 -18 l 897 -18 l 897 51 l 968 51 m 1260 51 l 1260 -18 l 1189 -18 l 1189 51 l 1260 51 m 288 51 l 288 -18 l 217 -18 l 217 51 l 288 51 m 385 51 l 385 -18 l 314 -18 l 314 51 l 385 51 m 676 51 l 676 -18 l 606 -18 l 606 51 l 676 51 m 871 51 l 871 -18 l 800 -18 l 800 51 l 871 51 m 1065 51 l 1065 -18 l 994 -18 l 994 51 l 1065 51 m 579 51 l 579 -18 l 508 -18 l 508 51 l 579 51 m 190 51 l 190 -18 l 119 -18 l 119 51 l 190 51 m 482 51 l 482 -18 l 411 -18 l 411 51 l 482 51 m 93 51 l 93 -18 l 22 -18 l 22 51 l 93 51 m 774 51 l 774 -18 l 703 -18 l 703 51 l 774 51 m 1163 51 l 1163 -18 l 1092 -18 l 1092 51 l 1163 51 m 1163 -46 l 1163 -115 l 1092 -115 l 1092 -46 l 1163 -46 m 93 -46 l 93 -115 l 22 -115 l 22 -46 l 93 -46 m 774 -46 l 774 -115 l 703 -115 l 703 -46 l 774 -46 m 482 -46 l 482 -115 l 411 -115 l 411 -46 l 482 -46 m 190 -46 l 190 -115 l 119 -115 l 119 -46 l 190 -46 m 1065 -46 l 1065 -115 l 994 -115 l 994 -46 l 1065 -46 m 579 -46 l 579 -115 l 508 -115 l 508 -46 l 579 -46 m 676 -46 l 676 -115 l 606 -115 l 606 -46 l 676 -46 m 871 -46 l 871 -115 l 800 -115 l 800 -46 l 871 -46 m 385 -46 l 385 -115 l 314 -115 l 314 -46 l 385 -46 m 288 -46 l 288 -115 l 217 -115 l 217 -46 l 288 -46 m 968 -46 l 968 -115 l 897 -115 l 897 -46 l 968 -46 m 1260 -46 l 1260 -115 l 1189 -115 l 1189 -46 l 1260 -46 z "},"▤":{"ha":1278,"x_min":44,"x_max":1228,"o":"m 44 1022 l 1228 1022 l 1228 -118 l 44 -118 l 44 1022 m 176 901 l 176 857 l 1107 857 l 1107 901 l 176 901 m 176 779 l 176 735 l 1107 735 l 1107 779 l 176 779 m 176 657 l 176 613 l 1107 613 l 1107 657 l 176 657 m 176 535 l 176 490 l 1107 490 l 1107 535 l 176 535 m 176 413 l 176 368 l 1107 368 l 1107 413 l 176 413 m 176 290 l 176 246 l 1107 246 l 1107 290 l 176 290 m 176 168 l 176 124 l 1107 124 l 1107 168 l 176 168 m 176 46 l 176 1 l 1107 1 l 1107 46 l 176 46 z "},"▥":{"ha":1278,"x_min":44,"x_max":1228,"o":"m 44 1022 l 1228 1022 l 1228 -118 l 44 -118 l 44 1022 m 206 918 l 161 918 l 161 -12 l 206 -12 l 206 918 m 335 918 l 290 918 l 290 -12 l 335 -12 l 335 918 m 464 918 l 419 918 l 419 -12 l 464 -12 l 464 918 m 593 918 l 549 918 l 549 -12 l 593 -12 l 593 918 m 722 918 l 678 918 l 678 -12 l 722 -12 l 722 918 m 851 918 l 807 918 l 807 -12 l 851 -12 l 851 918 m 981 918 l 936 918 l 936 -12 l 981 -12 l 981 918 m 1110 918 l 1065 918 l 1065 -12 l 1110 -12 l 1110 918 z "},"▨":{"ha":1278,"x_min":46,"x_max":1229,"o":"m 46 -118 l 46 1022 l 1229 1022 l 1229 -118 l 46 -118 m 1060 910 l 1004 910 l 183 90 l 183 38 l 1060 910 m 922 910 l 867 910 l 183 229 l 183 176 l 922 910 m 781 910 l 725 910 l 183 368 l 183 315 l 781 910 m 636 910 l 581 910 l 183 507 l 183 454 l 636 910 m 499 910 l 443 910 l 183 646 l 183 593 l 499 910 m 358 910 l 303 910 l 183 785 l 183 732 l 358 910 m 222 910 l 183 910 l 183 871 l 222 910 m 224 -4 l 279 -4 l 1100 815 l 1100 868 l 224 -4 m 361 -4 l 417 -4 l 1100 676 l 1100 729 l 361 -4 m 503 -4 l 558 -4 l 1100 538 l 1100 590 l 503 -4 m 647 -4 l 703 -4 l 1100 399 l 1100 451 l 647 -4 m 785 -4 l 840 -4 l 1100 260 l 1100 313 l 785 -4 m 925 -4 l 981 -4 l 1100 121 l 1100 174 l 925 -4 m 1061 -4 l 1100 -4 l 1100 35 l 1061 -4 z "},"▧":{"ha":1278,"x_min":44,"x_max":1228,"o":"m 44 -118 l 44 1022 l 1228 1022 l 1228 -118 l 44 -118 m 1090 38 l 1090 90 l 269 910 l 214 910 l 1090 38 m 1090 176 l 1090 229 l 407 910 l 351 910 l 1090 176 m 1090 315 l 1090 368 l 549 910 l 493 910 l 1090 315 m 1090 454 l 1090 507 l 693 910 l 638 910 l 1090 454 m 1090 593 l 1090 646 l 831 910 l 775 910 l 1090 593 m 1090 732 l 1090 785 l 971 910 l 915 910 l 1090 732 m 1090 871 l 1090 910 l 1051 910 l 1090 871 m 174 868 l 174 815 l 994 -4 l 1050 -4 l 174 868 m 174 729 l 174 676 l 857 -4 l 913 -4 l 174 729 m 174 590 l 174 538 l 715 -4 l 771 -4 l 174 590 m 174 451 l 174 399 l 571 -4 l 626 -4 l 174 451 m 174 313 l 174 260 l 433 -4 l 489 -4 l 174 313 m 174 174 l 174 121 l 293 -4 l 349 -4 l 174 174 m 174 35 l 174 -4 l 213 -4 l 174 35 z "},"▦":{"ha":1278,"x_min":44,"x_max":1228,"o":"m 44 -118 l 44 1022 l 1228 1022 l 1228 -118 l 44 -118 m 1060 924 l 1060 839 l 1133 839 l 1133 924 l 1060 924 m 133 924 l 133 839 l 207 839 l 207 924 l 133 924 m 264 924 l 264 839 l 342 839 l 342 924 l 264 924 m 399 924 l 399 839 l 475 839 l 475 924 l 399 924 m 532 924 l 532 839 l 610 839 l 610 924 l 532 924 m 667 924 l 667 839 l 744 839 l 744 924 l 667 924 m 801 924 l 801 839 l 878 839 l 878 924 l 801 924 m 935 924 l 935 839 l 1008 839 l 1008 924 l 935 924 m 264 785 l 264 700 l 342 700 l 342 785 l 264 785 m 1060 785 l 1060 700 l 1133 700 l 1133 785 l 1060 785 m 935 785 l 935 700 l 1008 700 l 1008 785 l 935 785 m 801 785 l 801 700 l 878 700 l 878 785 l 801 785 m 133 785 l 133 700 l 207 700 l 207 785 l 133 785 m 667 785 l 667 700 l 744 700 l 744 785 l 667 785 m 532 785 l 532 700 l 610 700 l 610 785 l 532 785 m 399 785 l 399 700 l 475 700 l 475 785 l 399 785 m 399 643 l 399 557 l 475 557 l 475 643 l 399 643 m 532 643 l 532 557 l 610 557 l 610 643 l 532 643 m 667 643 l 667 557 l 744 557 l 744 643 l 667 643 m 801 643 l 801 557 l 878 557 l 878 643 l 801 643 m 935 643 l 935 557 l 1008 557 l 1008 643 l 935 643 m 264 643 l 264 557 l 342 557 l 342 643 l 264 643 m 1060 643 l 1060 557 l 1133 557 l 1133 643 l 1060 643 m 133 643 l 133 557 l 207 557 l 207 643 l 133 643 m 133 500 l 133 414 l 207 414 l 207 500 l 133 500 m 264 500 l 264 414 l 342 414 l 342 500 l 264 500 m 532 500 l 532 414 l 610 414 l 610 500 l 532 500 m 667 500 l 667 414 l 744 414 l 744 500 l 667 500 m 801 500 l 801 414 l 878 414 l 878 500 l 801 500 m 935 500 l 935 414 l 1008 414 l 1008 500 l 935 500 m 1060 500 l 1060 414 l 1133 414 l 1133 500 l 1060 500 m 399 500 l 399 414 l 475 414 l 475 500 l 399 500 m 935 357 l 935 271 l 1008 271 l 1008 357 l 935 357 m 801 357 l 801 271 l 878 271 l 878 357 l 801 357 m 667 357 l 667 271 l 744 271 l 744 357 l 667 357 m 532 357 l 532 271 l 610 271 l 610 357 l 532 357 m 399 357 l 399 271 l 475 271 l 475 357 l 399 357 m 264 357 l 264 271 l 342 271 l 342 357 l 264 357 m 133 357 l 133 271 l 207 271 l 207 357 l 133 357 m 1060 357 l 1060 271 l 1133 271 l 1133 357 l 1060 357 m 801 214 l 801 128 l 878 128 l 878 214 l 801 214 m 935 214 l 935 128 l 1008 128 l 1008 214 l 935 214 m 532 214 l 532 128 l 610 128 l 610 214 l 532 214 m 399 214 l 399 128 l 475 128 l 475 214 l 399 214 m 264 214 l 264 128 l 342 128 l 342 214 l 264 214 m 667 214 l 667 128 l 744 128 l 744 214 l 667 214 m 1060 214 l 1060 128 l 1133 128 l 1133 214 l 1060 214 m 133 214 l 133 128 l 207 128 l 207 214 l 133 214 m 133 71 l 133 -11 l 207 -11 l 207 71 l 133 71 m 264 71 l 264 -11 l 342 -11 l 342 71 l 264 71 m 399 71 l 399 -11 l 475 -11 l 475 71 l 399 71 m 532 71 l 532 -11 l 610 -11 l 610 71 l 532 71 m 667 71 l 667 -11 l 744 -11 l 744 71 l 667 71 m 801 71 l 801 -11 l 878 -11 l 878 71 l 801 71 m 935 71 l 935 -11 l 1008 -11 l 1008 71 l 935 71 m 1060 71 l 1060 -11 l 1133 -11 l 1133 71 l 1060 71 z "},"▩":{"ha":1278,"x_min":44,"x_max":1228,"o":"m 44 -118 l 44 1022 l 1228 1022 l 1228 -118 l 44 -118 m 260 864 l 286 892 l 269 910 l 222 910 l 218 906 l 260 864 m 397 864 l 425 892 l 407 910 l 358 910 l 354 906 l 397 864 m 1090 871 l 1090 910 l 1060 910 l 1056 906 l 1090 871 m 958 865 l 986 892 l 971 910 l 922 910 l 918 906 l 958 865 m 821 864 l 849 892 l 831 910 l 781 910 l 778 907 l 821 864 m 681 865 l 708 893 l 693 910 l 638 910 l 681 865 m 538 865 l 564 893 l 549 910 l 499 910 l 496 907 l 538 865 m 174 868 l 174 815 l 193 796 l 219 822 l 174 868 m 329 794 l 357 822 l 314 865 l 286 836 l 329 794 m 751 794 l 779 822 l 736 865 l 708 838 l 751 794 m 610 793 l 636 821 l 592 865 l 564 838 l 610 793 m 1028 796 l 1054 822 l 1014 864 l 986 838 l 1028 796 m 467 794 l 494 822 l 453 864 l 425 836 l 467 794 m 889 794 l 917 822 l 876 864 l 849 836 l 889 794 m 246 796 l 219 769 l 263 726 l 289 753 l 246 796 m 1090 732 l 1090 785 l 1079 796 l 1053 769 l 1090 732 m 539 724 l 567 750 l 522 794 l 494 767 l 539 724 m 957 726 l 985 753 l 943 794 l 917 767 l 957 726 m 399 725 l 425 753 l 385 794 l 357 767 l 399 725 m 819 726 l 847 753 l 807 794 l 779 767 l 819 726 m 679 724 l 707 750 l 664 793 l 636 767 l 679 724 m 174 729 l 174 676 l 193 657 l 219 683 l 174 729 m 1026 657 l 1053 683 l 1011 726 l 983 699 l 1026 657 m 315 726 l 289 699 l 332 657 l 358 685 l 315 726 m 469 654 l 497 682 l 453 726 l 425 699 l 469 654 m 888 657 l 915 683 l 874 725 l 847 699 l 888 657 m 749 654 l 776 682 l 735 724 l 707 696 l 749 654 m 610 653 l 636 681 l 593 724 l 567 696 l 610 653 m 1090 593 l 1090 646 l 1079 657 l 1053 629 l 1090 593 m 246 657 l 219 629 l 263 588 l 289 614 l 246 657 m 385 657 l 358 631 l 403 588 l 429 614 l 385 657 m 957 588 l 983 614 l 942 657 l 915 631 l 957 588 m 818 588 l 844 614 l 803 654 l 776 628 l 818 588 m 540 585 l 567 611 l 524 654 l 497 628 l 540 585 m 679 585 l 706 611 l 664 653 l 636 626 l 679 585 m 174 590 l 174 538 l 193 518 l 219 544 l 174 590 m 888 518 l 914 544 l 871 588 l 844 560 l 888 518 m 1026 518 l 1053 544 l 1010 588 l 983 561 l 1026 518 m 456 588 l 429 560 l 472 517 l 500 544 l 456 588 m 315 588 l 289 561 l 333 518 l 360 544 l 315 588 m 610 515 l 636 543 l 594 585 l 567 557 l 610 515 m 747 517 l 774 544 l 733 585 l 706 558 l 747 517 m 957 449 l 983 475 l 940 518 l 914 490 l 957 449 m 1090 454 l 1090 507 l 1079 518 l 1053 490 l 1090 454 m 386 518 l 360 490 l 403 449 l 431 475 l 386 518 m 246 518 l 219 490 l 263 447 l 290 475 l 246 518 m 817 449 l 843 475 l 801 517 l 774 490 l 817 449 m 526 517 l 500 490 l 542 449 l 569 475 l 526 517 m 678 449 l 704 475 l 664 515 l 636 489 l 678 449 m 174 451 l 174 399 l 193 378 l 219 404 l 174 451 m 317 449 l 289 421 l 333 378 l 360 404 l 317 449 m 1026 378 l 1053 404 l 1010 449 l 983 421 l 1026 378 m 888 378 l 914 406 l 871 449 l 843 421 l 888 378 m 457 449 l 431 421 l 472 379 l 500 406 l 457 449 m 596 449 l 568 421 l 610 379 l 636 407 l 596 449 m 747 379 l 774 406 l 732 447 l 706 421 l 747 379 m 817 310 l 844 336 l 801 379 l 774 351 l 817 310 m 664 379 l 636 353 l 679 311 l 706 338 l 664 379 m 526 379 l 500 351 l 540 311 l 567 338 l 526 379 m 957 308 l 983 335 l 940 378 l 914 351 l 957 308 m 246 378 l 219 351 l 263 308 l 289 335 l 246 378 m 1090 315 l 1090 368 l 1079 378 l 1053 351 l 1090 315 m 386 378 l 360 351 l 403 308 l 429 336 l 386 378 m 174 313 l 174 260 l 193 239 l 219 265 l 174 313 m 594 311 l 568 283 l 610 242 l 636 269 l 594 311 m 733 311 l 706 283 l 749 240 l 776 268 l 733 311 m 456 310 l 429 282 l 469 240 l 497 268 l 456 310 m 1026 239 l 1053 265 l 1010 308 l 985 282 l 1026 239 m 888 239 l 914 265 l 871 308 l 844 282 l 888 239 m 315 308 l 289 282 l 332 238 l 358 265 l 315 308 m 664 242 l 636 215 l 679 172 l 707 199 l 664 242 m 804 242 l 776 214 l 819 169 l 847 197 l 804 242 m 524 240 l 497 213 l 539 172 l 567 199 l 524 240 m 246 239 l 219 213 l 263 169 l 289 196 l 246 239 m 1090 176 l 1090 229 l 1079 239 l 1053 213 l 1090 176 m 385 239 l 358 211 l 399 171 l 426 197 l 385 239 m 957 169 l 983 196 l 942 238 l 915 211 l 957 169 m 174 174 l 174 121 l 193 100 l 219 126 l 174 174 m 735 172 l 707 144 l 751 101 l 779 128 l 735 172 m 593 172 l 567 144 l 610 101 l 636 129 l 593 172 m 875 171 l 847 142 l 889 101 l 917 128 l 875 171 m 453 169 l 426 142 l 467 101 l 494 128 l 453 169 m 1028 100 l 1053 126 l 1011 169 l 985 143 l 1028 100 m 315 169 l 289 143 l 329 101 l 357 128 l 315 169 m 807 101 l 779 74 l 821 32 l 847 60 l 807 101 m 522 101 l 494 74 l 538 29 l 564 58 l 522 101 m 664 101 l 636 74 l 681 29 l 708 57 l 664 101 m 943 101 l 917 74 l 958 31 l 986 58 l 943 101 m 385 101 l 357 74 l 397 32 l 425 60 l 385 101 m 246 100 l 219 74 l 260 31 l 286 58 l 246 100 m 1090 38 l 1090 90 l 1079 100 l 1054 74 l 1090 38 m 174 35 l 174 -4 l 213 -4 l 174 35 m 876 32 l 849 4 l 857 -4 l 913 -4 l 876 32 m 453 32 l 425 4 l 433 -4 l 489 -4 l 453 32 m 314 31 l 286 3 l 293 -4 l 349 -4 l 314 31 m 1014 31 l 988 3 l 994 -4 l 1050 -4 l 1014 31 m 592 29 l 564 3 l 571 -4 l 626 -4 l 592 29 m 736 29 l 708 1 l 715 -4 l 771 -4 l 736 29 z "},"♨":{"ha":1278,"x_min":10,"x_max":1268,"o":"m 292 801 q 280 917 292 857 q 232 1024 268 978 l 457 1024 q 502 935 482 990 q 522 801 522 879 q 513 729 522 765 q 492 656 503 693 q 471 579 481 618 q 461 499 461 540 q 475 396 461 443 q 507 321 489 349 l 282 321 q 247 390 263 346 q 232 501 232 433 q 241 586 232 546 q 262 663 250 626 q 283 733 274 699 q 292 801 292 768 m 563 801 q 546 924 563 865 q 503 1024 529 983 l 728 1024 q 752 981 740 1007 q 774 924 764 954 q 789 861 783 893 q 794 801 794 829 q 785 724 794 760 q 765 653 776 689 q 745 581 754 618 q 736 499 736 543 q 751 396 736 443 q 785 321 767 349 l 553 321 q 534 356 543 339 q 518 394 525 374 q 507 442 511 415 q 503 501 503 468 q 512 580 503 540 q 533 657 521 619 q 553 731 544 694 q 563 801 563 768 m 639 -110 q 364 -85 482 -111 q 167 -9 246 -58 q 49 111 89 40 q 10 269 10 182 q 19 369 10 322 q 51 450 29 415 q 110 505 74 485 q 201 525 147 525 l 201 414 q 231 326 201 358 q 315 279 260 294 q 452 260 371 264 q 639 258 533 257 q 794 261 728 258 q 909 271 861 264 q 988 290 957 278 q 1038 321 1018 301 l 826 321 q 806 356 815 339 q 790 394 797 374 q 779 441 783 415 q 775 500 775 467 q 785 575 775 539 q 806 647 794 611 q 826 719 817 682 q 836 801 836 757 q 817 924 836 865 q 776 1024 799 983 l 1001 1024 q 1024 981 1014 1007 q 1043 924 1035 954 q 1056 861 1051 893 q 1060 801 1060 829 q 1052 728 1060 765 q 1035 652 1044 690 q 1017 575 1025 614 q 1010 499 1010 536 q 1019 403 1010 447 q 1046 331 1029 358 q 1071 388 1065 354 q 1076 469 1076 422 l 1076 525 q 1167 505 1131 525 q 1226 450 1204 485 q 1258 369 1249 415 q 1268 269 1268 322 q 1228 112 1268 182 q 1110 -8 1189 42 q 914 -83 1032 -57 q 639 -110 796 -110 z "},"☏":{"ha":1278,"x_min":7,"x_max":1271,"o":"m 907 575 q 912 503 907 538 q 935 444 917 469 q 986 402 953 418 q 1078 386 1019 386 l 1169 386 l 1235 156 q 1250 67 1250 110 q 1231 -6 1250 25 q 1171 -56 1211 -37 q 1064 -75 1131 -75 l 214 -75 q 107 -56 147 -75 q 47 -6 67 -37 q 28 67 28 25 q 43 156 28 110 l 108 386 l 200 386 q 301 407 267 386 q 352 458 336 428 q 369 520 368 488 q 371 575 371 553 l 371 606 l 339 606 l 339 579 q 335 515 339 544 q 317 463 331 485 q 276 429 303 442 q 206 417 250 417 l 89 417 q 30 444 53 417 q 10 535 7 472 q 54 686 10 614 q 181 813 99 758 q 381 901 264 868 q 639 935 497 933 q 898 902 782 935 q 1097 814 1014 869 q 1224 686 1179 758 q 1268 535 1268 614 q 1248 444 1271 472 q 1189 417 1225 417 l 1072 417 q 1001 429 1028 417 q 961 463 975 442 q 943 515 947 485 q 939 579 939 544 l 939 606 l 907 606 l 907 575 m 921 731 q 965 726 943 731 q 1005 710 988 721 q 1033 683 1022 700 q 1044 640 1044 665 l 1044 576 q 1053 531 1044 544 q 1082 517 1061 517 l 1092 517 q 1131 524 1119 517 q 1142 556 1142 532 q 1106 649 1142 603 q 1003 733 1069 696 q 845 794 938 771 q 639 819 753 818 q 433 794 525 818 q 274 733 340 771 q 172 649 208 696 q 136 556 136 603 q 147 524 136 531 q 186 517 158 517 l 196 517 q 225 529 217 517 q 233 576 233 542 l 233 626 q 266 703 233 676 q 343 731 299 731 l 921 731 m 499 586 q 641 551 569 561 q 781 540 713 540 l 781 582 q 647 594 713 582 q 514 628 582 606 l 499 586 m 1004 275 q 918 287 954 275 q 856 318 882 299 q 815 363 831 338 q 793 418 800 389 q 640 428 710 417 q 490 460 571 440 q 417 323 475 371 q 271 275 360 275 l 224 275 l 197 197 q 193 88 172 122 q 307 54 214 54 l 969 54 q 1084 89 1064 54 q 1079 197 1104 124 l 1051 275 l 1004 275 m 446 276 q 540 253 486 264 q 649 234 593 242 q 759 222 706 226 q 851 217 813 217 l 851 175 q 757 180 813 175 q 642 192 701 185 q 527 211 583 200 q 431 235 471 222 l 446 276 z "},"☎":{"ha":1278,"x_min":7,"x_max":1271,"o":"m 214 -61 q 107 -42 147 -61 q 47 8 67 -24 q 28 81 28 39 q 43 169 28 124 l 108 400 l 200 400 q 306 424 271 400 q 356 479 342 447 q 371 546 371 511 q 371 603 371 581 l 371 647 l 339 647 l 339 593 q 335 528 339 558 q 317 477 331 499 q 276 443 303 456 q 206 431 250 431 l 89 431 q 30 458 53 431 q 10 549 7 486 q 54 700 10 628 q 181 827 99 772 q 381 915 264 882 q 639 949 497 947 q 898 916 782 949 q 1097 828 1014 883 q 1224 700 1179 772 q 1268 549 1268 628 q 1248 458 1271 486 q 1189 431 1225 431 l 1072 431 q 1001 443 1028 431 q 961 477 975 456 q 943 528 947 499 q 939 593 939 558 l 939 647 l 907 647 l 907 603 q 907 546 907 581 q 922 479 907 511 q 972 424 936 447 q 1078 400 1007 400 l 1169 400 l 1235 169 q 1250 81 1250 124 q 1231 8 1250 39 q 1171 -42 1211 -24 q 1064 -61 1131 -61 l 214 -61 m 499 653 q 641 617 569 628 q 781 607 713 607 l 781 649 q 647 660 713 649 q 514 694 582 672 l 499 653 m 431 290 q 527 267 471 278 q 642 248 583 256 q 757 235 701 240 q 851 231 813 231 l 851 272 q 759 277 813 272 q 649 290 706 282 q 540 308 593 297 q 446 332 486 319 l 431 290 z "},"☜":{"ha":1278,"x_min":31,"x_max":1228,"o":"m 928 685 l 928 776 l 1228 776 l 1228 83 l 928 83 l 928 146 q 807 110 865 125 q 685 90 749 96 q 550 87 622 83 q 388 108 478 90 q 324 140 347 117 q 292 194 300 164 q 288 253 283 224 q 307 301 292 282 q 293 328 296 313 q 294 362 290 344 q 306 395 297 379 q 322 421 314 411 q 315 434 318 425 q 313 454 313 443 q 315 475 313 465 q 319 489 317 485 l 175 489 q 123 495 149 489 q 76 516 97 501 q 43 554 56 531 q 31 613 31 578 q 42 667 31 644 q 74 706 54 690 q 120 728 94 721 q 175 736 146 736 l 547 736 q 596 772 564 760 q 656 785 628 785 q 800 756 735 785 q 928 685 865 726 m 546 543 l 589 528 l 643 608 q 664 629 651 621 q 694 633 676 638 q 731 621 714 629 q 767 601 747 613 l 692 490 l 714 476 q 750 478 728 475 q 799 486 772 481 q 851 500 825 492 q 900 521 878 508 l 900 465 q 860 447 883 456 q 814 433 838 439 q 766 425 790 428 q 724 422 742 422 l 710 188 q 823 207 763 190 q 928 247 883 224 l 928 563 q 872 597 904 578 q 806 635 839 617 q 742 665 772 653 q 690 679 711 678 q 618 651 642 683 l 546 543 m 1018 189 l 1061 189 l 1061 657 l 1018 657 l 1018 189 m 161 632 l 161 589 l 453 589 l 478 632 l 161 632 m 428 489 l 413 447 q 537 412 483 422 q 639 401 590 401 l 639 443 q 549 455 603 443 q 428 489 496 467 m 414 378 l 399 336 q 452 318 422 326 q 513 303 482 310 q 572 294 543 297 q 625 290 601 290 l 625 332 q 519 344 578 332 q 414 378 460 357 m 400 267 l 385 225 q 495 191 440 203 q 611 179 550 179 l 611 221 q 502 234 558 221 q 400 267 446 247 z "},"☞":{"ha":1278,"x_min":50,"x_max":1247,"o":"m 350 685 q 478 756 413 726 q 622 785 543 785 q 682 772 650 785 q 731 736 714 760 l 1103 736 q 1158 728 1132 736 q 1203 706 1183 721 q 1235 667 1224 690 q 1247 613 1247 644 q 1235 554 1247 578 q 1201 516 1222 531 q 1155 495 1181 501 q 1103 489 1129 489 l 958 489 q 963 475 961 485 q 965 454 965 465 q 963 434 965 443 q 956 421 960 425 q 972 395 964 411 q 984 362 981 379 q 985 328 988 344 q 971 301 982 313 q 990 253 985 282 q 986 194 994 224 q 954 140 978 164 q 890 108 931 117 q 728 87 800 90 q 592 90 656 83 q 471 110 529 96 q 350 146 413 125 l 350 83 l 50 83 l 50 776 l 350 776 l 350 685 m 689 528 l 732 543 l 660 651 q 630 674 649 667 q 588 679 611 682 q 536 665 567 678 q 472 635 506 653 q 406 597 439 617 q 350 563 374 578 l 350 247 q 455 207 394 224 q 568 188 515 190 l 554 422 q 511 425 535 422 q 464 433 488 428 q 417 447 440 439 q 378 465 394 456 l 378 521 q 426 500 400 508 q 479 486 453 492 q 528 478 506 481 q 564 476 550 475 l 586 490 l 511 601 q 547 621 531 613 q 583 633 564 629 q 614 629 601 638 q 635 608 626 621 l 689 528 m 217 189 l 260 189 l 260 657 l 217 657 l 217 189 m 1117 589 l 1117 632 l 800 632 l 825 589 l 1117 589 m 850 489 q 728 455 782 467 q 639 443 675 443 l 639 401 q 741 412 688 401 q 865 447 794 422 l 850 489 m 864 378 q 759 344 818 357 q 653 332 700 332 l 653 290 q 706 294 676 290 q 765 303 735 297 q 826 318 796 310 q 879 336 856 326 l 864 378 m 879 267 q 777 234 833 247 q 668 221 721 221 l 668 179 q 784 191 729 179 q 894 225 839 203 l 879 267 z "},"¶":{"ha":1292,"x_min":24,"x_max":1242,"o":"m 468 1024 l 783 1024 l 783 1022 l 839 1022 l 839 1024 l 1242 1024 l 1242 -118 l 839 -118 l 839 639 l 783 639 l 783 -118 l 422 -118 l 422 146 q 267 163 340 138 q 140 244 194 189 q 55 383 86 299 q 24 578 24 467 q 64 786 24 701 q 167 923 104 871 q 310 999 231 975 q 468 1024 389 1022 z "},"†":{"ha":1278,"x_min":260,"x_max":1019,"o":"m 838 -62 l 436 -62 l 436 454 l 260 454 l 260 786 l 436 786 l 436 1024 l 838 1024 l 838 786 l 1019 786 l 1019 454 l 838 454 l 838 -62 z "},"‡":{"ha":1278,"x_min":260,"x_max":1019,"o":"m 838 -62 l 436 -62 l 436 79 l 260 79 l 260 411 l 436 411 l 436 496 l 260 496 l 260 828 l 436 828 l 436 1024 l 838 1024 l 838 828 l 1019 828 l 1019 496 l 838 496 l 838 411 l 1019 411 l 1019 79 l 838 79 l 838 -62 z "},"↕":{"ha":1278,"x_min":257,"x_max":1022,"o":"m 439 282 l 439 547 l 257 438 l 257 826 l 640 1043 l 1022 810 l 1022 438 l 682 644 l 682 603 l 825 514 l 825 272 l 1022 392 l 1022 19 l 640 -214 l 257 3 l 257 392 l 439 282 z "},"↗":{"ha":1278,"x_min":85,"x_max":1192,"o":"m 763 661 l 376 756 l 639 1018 l 1074 914 l 1192 489 l 917 215 l 865 422 l 357 -87 l 85 185 l 569 669 l 733 632 l 763 661 z "},"↙":{"ha":1278,"x_min":85,"x_max":1192,"o":"m 514 264 l 900 169 l 638 -93 l 203 11 l 85 436 l 360 710 l 411 503 l 919 1013 l 1192 740 l 707 256 l 543 293 l 514 264 z "},"↖":{"ha":1278,"x_min":85,"x_max":1192,"o":"m 543 632 l 707 669 l 1192 185 l 919 -87 l 411 422 l 360 215 l 85 489 l 203 914 l 638 1018 l 900 756 l 514 661 l 543 632 z "},"↘":{"ha":1278,"x_min":85,"x_max":1192,"o":"m 733 293 l 569 256 l 85 740 l 357 1013 l 865 503 l 917 710 l 1192 436 l 1074 11 l 639 -93 l 376 169 l 763 264 l 733 293 z "},"♭":{"ha":1056,"x_min":50,"x_max":1032,"o":"m 296 -61 l 50 -61 l 50 1024 l 522 1024 l 522 774 q 728 797 635 806 q 890 744 822 789 q 994 618 957 699 q 1032 425 1032 538 q 972 219 1032 310 q 812 67 913 129 q 578 -28 711 4 q 296 -61 444 -61 m 718 425 l 693 460 q 627 431 668 444 q 540 408 586 418 q 446 393 493 399 q 360 388 399 388 l 360 349 q 449 353 399 349 q 549 368 499 358 q 644 392 599 378 q 718 425 689 406 z "},"♩":{"ha":944,"x_min":29,"x_max":896,"o":"m 896 1024 l 896 217 q 861 53 894 126 q 770 -73 828 -21 q 633 -153 713 -125 q 463 -181 554 -181 q 290 -152 369 -181 q 153 -72 211 -124 q 62 55 94 -19 q 29 221 29 129 q 62 385 29 311 q 153 512 94 460 q 290 592 211 564 q 463 621 369 621 l 479 621 l 479 1024 l 896 1024 z "},"♪":{"ha":1278,"x_min":28,"x_max":1258,"o":"m 894 564 l 894 217 q 860 53 893 126 q 769 -73 826 -21 q 632 -153 711 -125 q 461 -181 553 -181 q 289 -152 368 -181 q 151 -72 210 -124 q 60 55 93 -19 q 28 221 28 129 q 60 385 28 311 q 151 512 93 460 q 289 592 210 564 q 461 621 368 621 l 478 621 l 478 1024 l 839 1024 q 1008 991 935 1024 q 1134 903 1082 958 q 1216 776 1186 847 q 1252 625 1246 704 q 1240 466 1258 546 q 1180 314 1222 386 q 1070 184 1138 242 q 910 93 1003 126 q 926 205 925 149 q 928 339 926 261 l 928 589 q 884 606 908 596 q 837 628 860 617 q 794 651 814 640 q 764 671 774 663 l 740 646 q 812 602 774 624 q 894 564 850 581 z "},"♬":{"ha":1439,"x_min":1,"x_max":1424,"o":"m 1424 1024 l 1424 147 q 1398 8 1424 69 q 1326 -94 1372 -53 q 1215 -158 1279 -136 q 1074 -181 1151 -181 q 935 -159 999 -181 q 824 -92 871 -137 q 751 20 778 -47 q 724 179 724 88 q 752 335 724 269 q 829 442 781 400 q 941 503 878 483 q 1074 524 1004 524 l 1090 524 l 1090 568 l 701 568 l 701 147 q 676 8 701 69 q 603 -94 650 -53 q 493 -158 557 -136 q 351 -181 429 -181 q 213 -159 276 -181 q 102 -92 149 -137 q 28 20 56 -47 q 1 179 1 88 q 30 335 1 269 q 107 442 58 400 q 219 503 156 483 q 351 524 282 524 l 368 524 l 368 1024 l 1424 1024 m 1042 817 l 1017 851 q 957 823 992 836 q 884 800 922 810 q 805 785 846 790 q 725 779 764 779 l 725 740 q 808 745 764 740 q 894 760 851 750 q 974 783 936 769 q 1042 817 1013 797 z "},"㉿":{"ha":1278,"x_min":33,"x_max":1244,"o":"m 314 525 l 314 393 l 38 393 q 34 426 33 408 q 35 458 35 443 q 54 622 33 543 q 115 769 75 700 q 209 894 154 838 q 331 990 264 950 q 476 1053 399 1031 q 636 1075 553 1075 q 807 1051 722 1075 q 966 977 892 1026 q 1102 854 1040 928 q 1204 682 1164 781 l 1064 682 q 988 791 1032 743 q 888 872 943 839 q 769 924 833 906 q 638 942 706 942 q 467 909 547 942 q 323 820 386 876 q 219 688 260 764 q 167 525 178 613 l 314 525 m 692 681 l 908 681 l 718 543 l 893 240 l 744 240 l 614 467 l 499 385 l 499 240 l 368 240 l 368 681 l 499 681 l 499 544 l 692 681 m 908 526 l 1239 526 q 1243 494 1242 511 q 1244 464 1244 478 q 1197 224 1244 336 q 1067 28 1150 113 q 875 -106 985 -57 q 640 -154 765 -154 q 467 -128 554 -154 q 303 -51 379 -101 q 167 72 228 -1 q 75 239 107 144 l 214 239 q 290 130 244 178 q 392 48 336 82 q 510 -4 447 14 q 640 -22 574 -22 q 810 10 729 -22 q 953 98 890 42 q 1058 231 1017 154 q 1111 394 1100 307 l 908 394 l 908 526 z "},"㈜":{"ha":1278,"x_min":32,"x_max":1246,"o":"m 1246 454 q 1203 142 1246 274 q 1074 -89 1161 11 l 888 -89 q 971 39 938 -26 q 1024 172 1004 104 q 1052 309 1044 239 q 1060 454 1060 379 q 1052 599 1060 529 q 1024 737 1044 669 q 971 869 1004 804 q 888 996 938 933 l 1074 996 q 1203 765 1161 896 q 1246 454 1246 635 m 32 454 q 74 765 32 635 q 204 996 117 896 l 390 996 q 307 869 340 933 q 253 737 274 804 q 226 599 233 669 q 218 454 218 529 q 226 309 218 379 q 253 172 233 239 q 307 39 274 104 q 390 -89 340 -26 l 204 -89 q 74 142 117 11 q 32 454 32 274 m 315 757 l 963 757 l 963 614 l 776 614 q 838 571 793 583 q 963 558 883 558 l 963 417 q 838 420 892 417 q 739 433 783 424 q 656 458 694 443 q 574 497 617 474 l 551 483 q 581 464 565 474 q 617 447 597 454 q 481 422 553 428 q 315 417 408 415 l 315 558 q 439 571 394 558 q 499 614 483 583 l 315 614 l 315 757 m 521 129 l 521 238 l 315 238 l 315 400 l 963 400 l 963 238 l 757 238 l 757 129 l 521 129 z "},"№":{"ha":1278,"x_min":50,"x_max":1264,"o":"m 571 481 q 638 902 571 760 q 818 1044 704 1044 q 999 902 932 1044 q 1067 481 1067 760 q 999 59 1067 201 q 818 -83 932 -83 q 638 58 704 -83 q 571 481 571 200 m 542 1024 l 542 -62 l 296 -62 l 226 303 l 226 -62 l 50 -62 l 50 1024 l 297 1024 l 371 592 l 404 601 l 358 861 l 358 1024 l 542 1024 m 724 538 l 711 500 q 758 469 731 481 q 815 450 785 457 q 874 440 844 443 q 928 438 903 438 l 928 479 q 875 483 903 479 q 819 493 847 486 q 767 511 792 500 q 724 538 742 522 m 1264 -61 l 1126 -61 q 1090 -41 1103 -61 q 1076 28 1076 -21 l 1076 301 l 1264 301 l 1264 -61 z "},"㏇":{"ha":1278,"x_min":35,"x_max":1249,"o":"m 35 481 q 99 902 35 760 q 286 1044 164 1044 q 481 906 397 1044 l 481 490 q 411 494 444 490 q 344 504 378 497 q 276 524 311 511 q 201 553 240 536 l 201 511 q 344 461 276 474 q 481 449 411 449 l 481 83 q 431 3 456 35 q 379 -49 406 -29 q 323 -76 353 -68 q 260 -83 293 -83 q 97 58 158 -83 q 35 481 35 200 m 508 358 q 525 547 508 463 q 572 690 542 631 q 644 781 603 749 q 733 814 685 814 q 822 781 781 814 q 893 690 863 749 q 940 547 924 631 q 957 358 957 463 q 940 169 957 254 q 893 26 924 85 q 822 -66 863 -33 q 733 -99 781 -99 q 644 -67 685 -99 q 572 25 603 -35 q 525 169 542 85 q 508 358 508 254 m 819 388 l 811 422 q 780 394 799 407 q 740 371 761 381 q 696 356 718 361 q 656 350 674 350 l 656 311 q 697 316 674 311 q 742 331 719 321 q 786 354 765 340 q 819 388 807 368 m 1249 -117 l 1058 -117 q 1008 -97 1026 -117 q 990 -28 990 -76 l 990 246 l 1249 246 l 1249 -117 z "},"™":{"ha":1208,"x_min":22,"x_max":1161,"o":"m 22 1024 l 519 1024 l 519 847 l 389 847 l 389 482 l 153 482 l 153 847 l 22 847 l 22 1024 m 851 882 l 817 782 l 849 769 l 935 1024 l 1161 1024 l 1161 482 l 974 482 l 974 665 l 918 482 l 793 482 l 738 665 l 738 482 l 549 482 l 549 1024 l 807 1024 l 851 882 z "},"㏂":{"ha":1278,"x_min":21,"x_max":1249,"o":"m 21 167 q 38 335 21 275 q 93 426 56 394 q 164 465 122 450 q 243 481 206 481 l 243 525 q 150 506 201 525 q 51 446 99 486 l 51 735 q 236 814 122 814 q 311 794 279 814 q 363 730 343 775 q 392 611 382 685 q 401 431 401 538 l 401 -62 l 260 -62 l 260 -15 q 251 141 260 67 q 228 264 242 215 l 208 249 q 223 195 217 228 q 233 123 229 163 q 240 41 238 83 q 242 -39 242 -1 q 191 -71 219 -58 q 126 -83 163 -83 q 47 -15 74 -83 q 21 167 21 54 m 906 410 l 906 -62 l 763 -62 l 763 426 l 743 407 l 743 -62 l 594 -62 l 594 786 l 703 786 l 722 738 q 765 798 746 782 q 811 814 783 814 q 878 751 854 814 q 925 795 900 776 q 978 814 950 814 q 1053 737 1029 814 q 1076 518 1076 660 l 1076 -62 l 924 -62 l 924 426 l 906 410 m 572 -117 l 458 -117 q 429 -97 439 -117 q 419 -28 419 -76 l 419 246 l 572 246 l 572 -117 m 1249 -117 l 1135 -117 q 1106 -97 1115 -117 q 1096 -28 1096 -76 l 1096 246 l 1249 246 l 1249 -117 z "},"㏘":{"ha":1278,"x_min":50,"x_max":1258,"o":"m 919 410 l 919 -62 l 775 -62 l 775 426 l 763 407 l 763 -62 l 618 -62 l 618 786 l 722 786 l 739 738 q 783 797 765 781 q 828 814 800 814 q 893 753 869 814 q 938 796 914 778 q 989 814 963 814 q 1063 737 1039 814 q 1086 518 1086 660 l 1086 -62 l 939 -62 l 939 426 l 919 410 m 221 786 q 321 765 279 786 q 390 694 363 744 q 429 562 417 644 q 442 356 442 479 q 390 29 442 133 q 239 -62 339 -75 l 239 -271 l 50 -271 l 50 786 l 221 786 m 326 389 l 315 424 q 290 395 306 408 q 256 372 274 382 q 219 357 238 363 q 185 351 200 351 l 185 313 q 220 317 200 313 q 260 332 240 322 q 297 356 279 342 q 326 389 315 369 m 596 -117 l 486 -117 q 458 -97 469 -117 q 447 -28 447 -76 l 447 246 l 596 246 l 596 -117 m 1258 -117 l 1146 -117 q 1119 -97 1129 -117 q 1110 -28 1110 -76 l 1110 246 l 1258 246 l 1258 -117 z "},"℡":{"ha":1278,"x_min":22,"x_max":1249,"o":"m 22 1024 l 519 1024 l 519 669 l 389 669 l 389 -62 l 153 -62 l 153 669 l 22 669 l 22 1024 m 1249 -61 l 1013 -61 l 1013 1024 l 1249 1024 l 1249 -61 m 479 360 q 499 549 479 464 q 553 692 518 633 q 639 783 589 751 q 750 815 689 815 q 890 780 831 815 q 978 669 949 744 l 978 240 q 828 251 908 240 q 683 288 749 261 l 683 239 q 751 215 714 224 q 828 201 789 206 q 907 194 868 196 q 978 192 946 192 l 978 42 q 866 -58 931 -32 q 726 -83 801 -83 q 628 -53 674 -83 q 550 33 583 -24 q 498 172 517 90 q 479 360 479 254 m 683 540 l 683 500 q 718 488 697 493 q 762 479 739 483 q 806 473 785 475 q 840 471 828 471 l 840 510 q 807 512 828 510 q 764 518 786 514 q 720 528 742 522 q 683 540 699 533 z "},"！":{"ha":1278,"x_min":410,"x_max":867,"o":"m 839 279 l 438 279 l 410 1024 l 867 1024 l 839 279 m 839 -117 l 536 -117 q 463 -97 489 -117 q 438 -28 438 -76 l 438 246 l 839 246 l 839 -117 z "},"＂":{"ha":1278,"x_min":314,"x_max":964,"o":"m 314 669 l 314 1024 l 618 1024 l 618 669 l 314 669 m 660 1024 l 964 1024 l 964 669 l 660 669 l 660 1024 z "},"＃":{"ha":1278,"x_min":113,"x_max":1164,"o":"m 561 -61 l 142 -61 l 163 146 l 113 146 l 113 496 l 200 496 l 204 535 l 113 535 l 113 885 l 240 885 l 256 1024 l 672 1024 l 658 885 l 699 885 l 714 1024 l 1131 1024 l 1117 885 l 1164 885 l 1164 535 l 1081 535 l 1076 496 l 1164 496 l 1164 146 l 1040 146 l 1019 -61 l 600 -61 l 621 146 l 582 146 l 561 -61 m 474 544 l 449 507 q 628 457 528 469 q 828 444 728 444 l 828 486 q 637 499 728 486 q 474 544 546 513 z "},"＄":{"ha":1278,"x_min":129,"x_max":1149,"o":"m 411 1082 l 874 1082 l 874 1019 q 1013 978 947 1003 q 1135 921 1078 953 l 1135 579 q 1006 639 1069 617 q 882 672 943 661 q 760 687 821 683 q 639 690 699 690 l 639 651 q 1015 574 881 651 q 1149 328 1149 496 q 1078 90 1149 189 q 874 -53 1007 -8 l 874 -118 l 411 -118 l 411 -47 q 278 8 344 -26 q 143 90 211 42 l 143 404 q 356 330 243 357 q 576 303 469 303 l 576 342 q 390 371 467 350 q 265 420 314 392 q 188 482 215 449 q 147 549 160 515 q 132 613 135 582 q 129 669 129 644 q 205 886 129 799 q 411 1014 281 974 l 411 1082 z "},"％":{"ha":1278,"x_min":-18,"x_max":1310,"o":"m -18 708 q 49 948 -18 858 q 253 1038 115 1038 q 455 948 388 1038 q 522 708 522 858 q 455 469 522 558 q 253 381 388 381 q 49 469 115 381 q -18 708 -18 558 m 633 -61 l 318 -61 l 665 1024 l 978 1024 l 633 -61 m 110 733 q 231 676 163 696 q 369 657 299 657 l 369 696 q 238 716 299 696 q 132 768 178 736 l 110 733 m 769 240 q 836 480 769 390 q 1040 569 903 569 q 1242 480 1175 569 q 1310 240 1310 390 q 1242 1 1310 90 q 1040 -87 1175 -87 q 836 1 903 -87 q 769 240 769 90 m 897 265 q 1018 208 950 228 q 1157 189 1086 189 l 1157 228 q 1026 248 1086 228 q 919 300 965 268 l 897 265 z "},"＆":{"ha":1278,"x_min":156,"x_max":1214,"o":"m 1074 126 l 1183 -61 l 751 -61 l 726 -25 q 686 -49 713 -37 q 628 -69 660 -60 q 563 -83 596 -78 q 500 -89 529 -89 q 373 -67 435 -89 q 263 -3 311 -44 q 185 99 214 39 q 156 232 156 158 q 163 301 156 264 q 187 376 171 339 q 228 448 203 414 q 288 507 253 482 q 224 597 250 542 q 197 721 197 653 q 226 847 197 788 q 306 949 256 906 q 426 1019 357 993 q 572 1044 494 1044 q 733 1021 658 1044 q 861 953 807 997 q 946 847 915 910 q 976 707 976 785 q 956 603 976 654 q 894 508 936 553 q 919 476 906 497 l 1050 542 l 1214 199 l 1074 126 m 486 779 l 461 742 q 583 703 521 714 q 689 693 644 692 l 689 735 q 646 738 671 735 q 592 746 621 740 q 536 760 564 751 q 486 779 508 768 m 458 307 l 433 269 q 505 241 465 253 q 584 222 544 229 q 659 210 624 214 q 717 207 694 207 l 717 249 q 667 253 700 249 q 596 265 633 257 q 522 283 558 272 q 458 307 485 294 z "},"＇":{"ha":1278,"x_min":488,"x_max":792,"o":"m 792 669 l 488 669 l 488 1024 l 792 1024 l 792 669 z "},"（":{"ha":1278,"x_min":782,"x_max":1250,"o":"m 1250 -139 q 1049 -99 1136 -139 q 902 17 961 -58 q 813 203 843 93 q 782 453 782 313 q 811 701 782 592 q 899 888 840 811 q 1046 1004 958 964 q 1250 1044 1133 1044 l 1250 650 l 1189 650 l 1189 225 l 1250 225 l 1250 -139 l 1250 -139 z "},"）":{"ha":1278,"x_min":28,"x_max":496,"o":"m 28 -139 l 28 225 l 89 225 l 89 650 l 28 650 l 28 1044 q 232 1004 144 1044 q 378 888 319 964 q 467 701 438 811 q 496 453 496 592 q 465 203 496 313 q 375 17 435 93 q 228 -99 315 -58 q 28 -139 142 -139 z "},"＊":{"ha":1278,"x_min":156,"x_max":1121,"o":"m 156 593 l 267 910 l 486 778 l 446 1022 l 832 1022 l 799 828 l 619 732 l 638 693 l 1010 896 l 1121 593 l 879 538 l 1038 349 l 793 149 l 644 383 l 494 163 l 231 363 l 378 540 l 156 593 z "},"＋":{"ha":1278,"x_min":169,"x_max":1107,"o":"m 832 56 l 446 56 l 446 300 l 169 300 l 169 686 l 446 686 l 446 910 l 832 910 l 832 686 l 1107 686 l 1107 300 l 832 300 l 832 56 z "},"，":{"ha":1278,"x_min":29,"x_max":401,"o":"m 322 -261 l 29 -261 q 39 -187 35 -222 q 45 -115 43 -151 q 48 -38 47 -78 q 49 50 49 1 l 49 246 l 401 246 l 401 119 q 395 20 401 71 q 378 -80 389 -31 q 353 -176 368 -129 q 322 -261 339 -222 z "},"－":{"ha":1278,"x_min":308,"x_max":968,"o":"m 308 301 l 308 688 l 968 688 l 968 301 l 308 301 z "},"．":{"ha":1278,"x_min":50,"x_max":424,"o":"m 424 -117 l 149 -117 q 76 -97 101 -117 q 50 -28 50 -76 l 50 246 l 424 246 l 424 -117 z "},"／":{"ha":1278,"x_min":224,"x_max":1053,"o":"m 671 -61 l 224 -61 l 608 1024 l 1053 1024 l 671 -61 z "},"０":{"ha":1278,"x_min":197,"x_max":1079,"o":"m 197 481 q 228 725 197 619 q 317 901 260 831 q 456 1008 375 972 q 638 1044 538 1044 q 819 1008 738 1044 q 959 901 901 972 q 1048 725 1017 831 q 1079 481 1079 619 q 1048 236 1079 342 q 959 60 1017 131 q 819 -47 901 -11 q 638 -83 738 -83 q 456 -48 538 -83 q 317 58 375 -12 q 228 235 260 129 q 197 481 197 340 m 476 538 l 451 500 q 631 450 531 463 q 831 438 731 438 l 831 479 q 640 492 731 479 q 476 538 549 506 z "},"１":{"ha":1278,"x_min":354,"x_max":882,"o":"m 882 -61 l 465 -61 l 465 564 q 548 602 510 581 q 619 646 586 624 l 596 671 q 546 639 575 656 q 484 607 517 622 q 417 577 451 592 q 354 551 383 563 l 354 892 q 472 947 419 914 q 590 1024 525 979 l 882 1024 l 882 -61 z "},"２":{"ha":1278,"x_min":236,"x_max":1039,"o":"m 236 -61 l 236 182 q 435 393 344 294 q 596 578 526 492 q 626 633 618 606 q 631 683 633 661 q 606 722 628 707 q 550 736 585 736 q 397 712 469 736 q 247 631 324 688 l 247 940 q 413 1015 314 986 q 657 1044 513 1044 q 1039 707 1039 1044 q 1023 599 1039 651 q 979 497 1007 546 q 913 400 951 447 q 831 307 875 353 q 794 269 815 290 q 749 226 772 249 q 704 181 726 203 q 664 140 682 158 l 693 128 q 753 183 718 151 q 815 235 788 214 l 1025 235 l 1025 -61 l 236 -61 z "},"３":{"ha":1278,"x_min":243,"x_max":1035,"o":"m 1035 260 q 1004 112 1035 175 q 918 6 974 49 q 785 -57 863 -36 q 611 -78 707 -78 q 397 -59 483 -78 q 243 -1 311 -40 l 243 308 q 369 253 300 276 q 518 231 439 231 q 554 235 535 231 q 590 249 574 239 q 616 274 606 258 q 626 311 626 289 q 559 383 626 365 q 383 389 492 400 l 383 606 q 479 605 435 603 q 556 615 524 607 q 608 637 589 622 q 626 674 626 651 q 603 719 626 701 q 532 736 581 736 q 458 730 496 736 q 382 713 419 724 q 309 687 344 701 q 243 656 274 672 l 243 968 q 409 1024 310 1004 q 653 1044 508 1044 q 940 960 844 1044 q 1035 721 1035 876 q 1008 601 1035 653 q 940 514 981 550 q 852 458 900 478 q 761 432 804 438 l 771 400 q 855 423 811 407 q 935 463 899 439 q 969 429 951 450 q 1001 381 986 408 q 1025 323 1015 354 q 1035 260 1035 292 z "},"４":{"ha":1278,"x_min":178,"x_max":1097,"o":"m 178 64 l 178 333 l 617 1024 l 1006 1024 l 1006 361 l 1097 361 l 1097 64 l 1006 64 l 1006 -61 l 589 -61 l 589 64 l 178 64 m 529 501 l 504 464 q 648 414 583 426 q 772 401 713 401 l 772 443 q 659 456 717 443 q 529 501 601 469 z "},"５":{"ha":1278,"x_min":243,"x_max":1035,"o":"m 646 728 l 646 672 q 938 583 840 672 q 1035 329 1035 494 q 1000 151 1035 228 q 904 24 965 75 q 761 -52 843 -26 q 583 -78 679 -78 q 399 -62 486 -78 q 243 -15 313 -47 l 243 294 q 490 231 358 231 q 536 235 513 231 q 580 251 560 240 q 613 278 600 261 q 626 319 626 296 q 587 383 626 363 q 490 404 547 404 l 243 404 l 243 1024 l 967 1024 l 967 728 l 646 728 z "},"６":{"ha":1278,"x_min":206,"x_max":1069,"o":"m 703 733 q 651 724 679 731 q 596 709 624 718 q 543 690 568 700 q 501 667 518 679 l 518 636 q 553 659 532 649 q 599 678 575 669 q 648 691 624 686 q 692 696 672 696 q 833 668 765 696 q 954 592 901 640 q 1038 475 1007 543 q 1069 326 1069 407 q 1035 157 1069 232 q 944 30 1001 82 q 810 -50 888 -22 q 644 -78 732 -78 q 471 -49 551 -78 q 331 31 390 -21 q 239 158 272 83 q 206 328 206 233 q 223 481 206 397 q 276 629 240 564 l 496 1024 l 867 1024 l 703 733 m 506 376 l 481 339 q 564 308 519 319 q 652 289 608 296 q 735 279 696 282 q 804 276 775 276 l 804 318 q 740 322 776 318 q 663 332 703 325 q 583 350 624 339 q 506 376 542 361 z "},"７":{"ha":1278,"x_min":250,"x_max":1056,"o":"m 250 1024 l 1056 1024 l 1056 756 l 672 -64 l 292 -61 l 651 728 l 250 728 l 250 1024 z "},"８":{"ha":1278,"x_min":228,"x_max":1050,"o":"m 919 492 q 1015 388 979 456 q 1050 246 1050 321 q 1024 106 1050 168 q 947 -1 997 43 q 824 -68 897 -44 q 658 -92 751 -92 q 478 -73 558 -92 q 343 -13 399 -54 q 258 92 288 28 q 228 246 228 156 q 235 311 228 278 q 256 376 243 344 q 288 433 269 407 q 328 476 306 460 q 408 437 364 453 q 492 414 451 421 l 501 446 q 415 472 458 451 q 335 528 371 492 q 278 615 300 564 q 256 735 256 667 q 285 855 256 799 q 365 953 314 911 q 484 1020 415 996 q 631 1044 553 1044 q 791 1022 717 1044 q 919 956 865 999 q 1004 854 974 914 q 1035 721 1035 794 q 1027 656 1035 689 q 1005 593 1019 624 q 969 536 990 563 q 919 492 947 510 m 544 793 l 519 756 q 641 717 579 728 q 747 707 703 706 l 747 749 q 704 751 729 749 q 651 760 679 754 q 594 774 622 765 q 544 793 567 782 m 503 279 l 478 242 q 564 210 517 222 q 657 192 611 199 q 745 182 703 185 q 817 179 788 179 l 817 221 q 750 224 789 221 q 668 235 711 228 q 582 253 625 242 q 503 279 539 264 z "},"９":{"ha":1278,"x_min":206,"x_max":1069,"o":"m 572 231 q 623 240 594 233 q 679 255 651 246 q 732 274 707 264 q 774 297 757 285 l 757 328 q 720 304 742 315 q 675 285 699 293 q 627 271 651 276 q 583 265 603 265 q 442 293 510 265 q 321 369 374 321 q 237 485 268 418 q 206 635 206 553 q 240 804 206 729 q 331 932 274 879 q 465 1013 388 985 q 631 1042 543 1042 q 804 1013 724 1042 q 944 933 885 985 q 1036 805 1003 881 q 1069 636 1069 729 q 1052 483 1069 567 q 999 335 1035 400 l 779 -60 l 408 -60 l 572 231 m 492 699 l 467 661 q 550 630 506 642 q 638 611 594 618 q 722 601 682 604 q 790 599 761 599 l 790 640 q 726 644 763 640 q 649 654 689 647 q 569 672 610 661 q 492 699 528 683 z "},"：":{"ha":1278,"x_min":513,"x_max":826,"o":"m 826 850 l 826 536 l 513 536 l 513 850 l 826 850 m 826 368 l 826 54 l 513 54 l 513 368 l 826 368 z "},"；":{"ha":1278,"x_min":508,"x_max":835,"o":"m 822 850 l 822 536 l 508 536 l 508 850 l 822 850 m 835 400 l 754 -37 l 508 -37 l 508 400 l 835 400 z "},"＜":{"ha":1278,"x_min":643,"x_max":1278,"o":"m 643 454 l 833 1024 l 1278 1024 l 1071 454 l 1278 -117 l 833 -117 l 643 454 z "},"＝":{"ha":1278,"x_min":307,"x_max":967,"o":"m 307 536 l 307 867 l 967 867 l 967 536 l 307 536 m 307 147 l 307 478 l 967 478 l 967 147 l 307 147 z "},"＞":{"ha":1278,"x_min":0,"x_max":635,"o":"m 444 -117 l 0 -117 l 207 454 l 0 1024 l 444 1024 l 635 454 l 444 -117 z "},"？":{"ha":1278,"x_min":243,"x_max":1035,"o":"m 828 251 l 433 251 l 433 486 q 506 510 471 494 q 568 545 540 525 q 613 590 596 565 q 629 642 629 614 q 605 711 629 686 q 546 736 581 736 q 392 712 465 736 q 243 631 319 688 l 243 940 q 409 1015 310 986 q 653 1044 508 1044 q 820 1020 749 1044 q 940 951 892 996 q 1011 844 988 907 q 1035 707 1035 782 q 985 501 1035 594 q 828 349 935 407 l 828 251 m 828 -117 l 525 -117 q 452 -97 478 -117 q 426 -28 426 -76 l 426 218 l 828 218 l 828 -117 z "},"＠":{"ha":1278,"x_min":47,"x_max":1231,"o":"m 1221 481 q 1175 314 1211 378 q 1075 217 1139 250 q 919 178 1011 185 q 708 185 828 172 l 708 218 q 692 331 708 278 q 650 419 676 383 l 621 408 q 643 369 633 393 q 660 317 653 346 q 672 258 668 289 q 675 201 675 228 q 588 178 638 186 q 475 169 539 169 q 335 219 381 169 q 289 349 289 268 q 319 470 289 428 q 415 536 349 513 q 472 552 440 544 q 540 565 504 560 q 611 572 575 569 q 679 575 647 575 l 679 607 q 515 593 604 607 q 340 550 426 579 l 340 758 q 483 801 404 788 q 668 815 563 815 q 801 801 746 815 q 891 755 856 788 q 942 669 926 722 q 958 539 958 617 l 958 439 l 992 429 l 992 543 q 974 686 992 628 q 917 781 956 744 q 818 832 879 817 q 672 847 757 847 q 468 832 557 847 q 308 785 379 817 l 308 518 q 276 478 288 501 q 261 431 265 456 q 256 382 257 407 q 256 335 256 357 q 306 192 256 246 q 461 138 357 138 q 572 135 511 138 q 699 131 633 132 q 828 131 764 131 q 952 140 893 132 q 1060 161 1011 147 q 1142 200 1110 175 q 1093 108 1126 157 q 1001 16 1060 58 q 853 -55 942 -26 q 640 -83 765 -83 q 366 -40 479 -83 q 182 78 253 3 q 79 258 111 154 q 47 481 47 361 q 92 729 47 624 q 218 905 138 835 q 407 1010 299 975 q 640 1044 515 1044 q 919 999 804 1044 q 1104 877 1033 954 q 1203 698 1175 800 q 1221 481 1231 596 z "},"Ａ":{"ha":1278,"x_min":69,"x_max":1208,"o":"m 569 -61 l 69 -61 l 403 1024 l 875 1024 l 1208 -61 l 708 -61 l 639 164 l 569 -61 m 481 517 l 456 479 q 635 429 535 442 q 835 417 735 417 l 835 458 q 644 472 735 458 q 481 517 553 485 z "},"Ｂ":{"ha":1278,"x_min":149,"x_max":1129,"o":"m 860 -61 l 149 -61 l 149 1024 l 850 1024 q 951 1008 903 1024 q 1035 961 999 993 q 1092 879 1071 929 q 1114 760 1114 829 q 1075 597 1114 660 q 975 500 1036 535 q 1085 397 1042 471 q 1129 218 1129 322 q 1107 100 1129 151 q 1048 13 1085 49 q 963 -42 1011 -24 q 860 -61 914 -61 m 478 765 l 458 732 q 517 715 482 722 q 590 701 551 707 q 667 691 628 694 q 740 688 707 688 l 740 725 q 669 729 707 725 q 595 739 631 733 q 529 751 560 744 q 478 765 499 758 m 464 293 l 444 260 q 507 242 468 250 q 590 228 546 235 q 677 219 633 222 q 754 215 721 215 l 754 253 q 678 257 721 253 q 595 267 636 261 q 519 279 554 272 q 464 293 485 286 z "},"Ｃ":{"ha":1278,"x_min":150,"x_max":1129,"o":"m 150 481 q 291 902 150 760 q 701 1044 432 1044 q 933 1010 831 1044 q 1129 906 1035 976 l 1129 490 q 975 494 1049 490 q 828 504 901 497 q 679 524 756 511 q 515 553 603 536 l 515 511 q 828 461 679 474 q 1129 449 978 449 l 1129 83 q 1019 3 1074 35 q 907 -49 965 -29 q 785 -76 849 -68 q 646 -83 721 -83 q 442 -48 533 -83 q 285 58 350 -12 q 185 235 221 129 q 150 481 150 340 z "},"Ｄ":{"ha":1278,"x_min":153,"x_max":1132,"o":"m 531 -61 l 153 -61 l 153 1024 l 521 1024 q 787 997 672 1024 q 978 906 901 969 q 1093 736 1054 842 q 1132 472 1132 631 q 1095 208 1132 311 q 984 45 1058 106 q 797 -38 910 -15 q 531 -61 683 -61 m 417 550 l 392 513 q 500 484 442 496 q 619 465 558 472 q 740 453 679 457 q 854 450 800 450 l 854 492 q 742 496 800 492 q 627 508 683 500 q 517 526 571 515 q 417 550 463 538 z "},"Ｅ":{"ha":1278,"x_min":210,"x_max":1068,"o":"m 1068 -62 l 210 -62 l 210 1024 l 1068 1024 l 1068 697 l 626 697 l 626 649 l 1068 649 l 1068 313 l 626 313 l 626 264 l 1068 264 l 1068 -62 z "},"Ｆ":{"ha":1278,"x_min":210,"x_max":1068,"o":"m 626 -62 l 210 -62 l 210 1024 l 1068 1024 l 1068 669 l 626 669 l 626 621 l 1068 621 l 1068 271 l 626 271 l 626 -62 z "},"Ｇ":{"ha":1278,"x_min":121,"x_max":1156,"o":"m 121 481 q 161 725 121 619 q 276 901 201 831 q 459 1008 351 972 q 700 1044 567 1044 q 828 1039 764 1044 q 951 1021 892 1033 q 1062 990 1010 1008 q 1156 947 1114 972 l 1156 560 q 1013 563 1075 560 q 893 574 950 567 q 776 593 836 581 q 639 622 715 606 l 639 308 l 688 308 l 688 557 q 916 526 800 533 q 1156 518 1032 518 l 1156 28 q 926 -60 1057 -37 q 644 -83 796 -83 q 435 -48 532 -83 q 269 58 339 -12 q 160 235 200 129 q 121 481 121 340 z "},"Ｈ":{"ha":1278,"x_min":110,"x_max":1167,"o":"m 1167 1024 l 1167 -62 l 663 -62 l 663 185 l 614 185 l 614 -62 l 110 -62 l 110 1024 l 614 1024 l 614 776 l 663 776 l 663 1024 l 1167 1024 z "},"Ｉ":{"ha":1278,"x_min":407,"x_max":869,"o":"m 869 1024 l 869 -62 l 407 -62 l 407 1024 l 869 1024 z "},"Ｊ":{"ha":1278,"x_min":118,"x_max":1153,"o":"m 635 1024 l 1153 1024 l 1153 481 q 1113 235 1153 340 q 1004 58 1074 129 q 838 -48 935 -12 q 629 -83 742 -83 q 408 -44 503 -83 q 248 59 313 -4 q 151 201 183 122 q 118 361 118 281 l 118 557 l 586 557 l 586 308 l 635 308 l 635 1024 z "},"Ｋ":{"ha":1278,"x_min":140,"x_max":1193,"o":"m 613 -61 l 140 -61 l 140 1024 l 613 1024 l 613 861 l 521 601 l 558 592 l 707 1024 l 1193 1024 l 986 482 l 1193 -61 l 707 -61 l 613 214 l 613 -61 z "},"Ｌ":{"ha":1278,"x_min":213,"x_max":1067,"o":"m 1067 -61 l 213 -61 l 213 1024 l 713 1024 l 713 325 l 1067 325 l 1067 -61 z "},"Ｍ":{"ha":1278,"x_min":25,"x_max":1251,"o":"m 632 739 l 564 539 l 601 529 l 771 1024 l 1251 1024 l 1251 -61 l 876 -61 l 876 304 l 765 -61 l 515 -61 l 404 304 l 404 -61 l 25 -61 l 25 1024 l 543 1024 l 632 739 z "},"Ｎ":{"ha":1278,"x_min":119,"x_max":1158,"o":"m 1158 1024 l 1158 -62 l 611 -62 l 500 303 l 500 -62 l 119 -62 l 119 1024 l 668 1024 l 817 592 l 854 601 l 763 861 l 763 1024 l 1158 1024 z "},"Ｏ":{"ha":1278,"x_min":114,"x_max":1163,"o":"m 114 481 q 153 725 114 619 q 263 901 193 831 q 428 1008 332 972 q 638 1044 525 1044 q 847 1008 751 1044 q 1013 901 943 972 q 1123 725 1083 831 q 1163 481 1163 619 q 1123 236 1163 342 q 1013 60 1083 131 q 847 -47 943 -11 q 638 -83 751 -83 q 428 -48 525 -83 q 263 58 332 -12 q 153 235 193 129 q 114 481 114 340 m 476 538 l 451 500 q 631 450 531 463 q 831 438 731 438 l 831 479 q 640 492 731 479 q 476 538 549 506 z "},"Ｐ":{"ha":1278,"x_min":147,"x_max":1129,"o":"m 574 1024 q 828 1001 722 1024 q 1000 925 933 978 q 1098 787 1067 872 q 1129 578 1129 701 q 999 244 1129 356 q 619 146 869 133 l 619 -62 l 147 -62 l 147 1024 l 574 1024 m 476 594 q 551 561 506 575 q 646 538 596 547 q 746 523 696 528 q 835 518 796 518 l 835 557 q 749 563 796 557 q 655 578 701 568 q 567 601 608 588 q 501 629 526 614 l 476 594 z "},"Ｑ":{"ha":1278,"x_min":93,"x_max":1179,"o":"m 1033 107 l 1179 -228 l 675 -228 l 625 -83 l 617 -83 q 408 -48 504 -83 q 242 58 311 -12 q 133 235 172 129 q 93 481 93 340 q 133 725 93 619 q 242 901 172 831 q 408 1008 311 972 q 617 1044 504 1044 q 826 1008 731 1044 q 992 901 922 972 q 1102 725 1063 831 q 1142 481 1142 619 q 1111 259 1142 351 q 1033 107 1081 167 m 456 538 l 431 500 q 610 450 510 463 q 810 438 710 438 l 810 479 q 619 492 710 479 q 456 538 528 506 z "},"Ｒ":{"ha":1278,"x_min":132,"x_max":1146,"o":"m 1114 606 q 1081 439 1114 506 q 997 324 1049 372 l 1146 -61 l 668 -61 l 578 201 l 576 201 l 576 -62 l 132 -62 l 132 1024 l 558 1024 q 813 997 707 1024 q 985 919 918 971 q 1083 788 1051 867 q 1114 606 1114 710 m 486 664 l 461 629 q 535 596 490 610 q 631 572 581 582 q 731 558 681 563 q 819 553 781 553 l 819 592 q 733 597 781 592 q 640 613 686 603 q 552 635 593 622 q 486 664 511 649 z "},"Ｓ":{"ha":1278,"x_min":129,"x_max":1149,"o":"m 576 342 q 390 371 467 350 q 265 420 314 392 q 188 482 215 449 q 147 549 160 515 q 132 613 135 582 q 129 669 129 644 q 167 828 129 758 q 272 947 204 899 q 433 1020 339 994 q 639 1046 526 1046 q 910 1010 786 1046 q 1135 921 1035 975 l 1135 579 q 1006 639 1069 617 q 882 672 943 661 q 760 687 821 683 q 639 690 699 690 l 639 651 q 1015 574 881 651 q 1149 328 1149 496 q 1115 157 1149 233 q 1018 27 1082 81 q 863 -56 954 -26 q 653 -85 771 -85 q 403 -45 531 -85 q 143 90 275 -6 l 143 404 q 356 330 243 357 q 576 303 469 303 l 576 342 z "},"Ｔ":{"ha":1278,"x_min":142,"x_max":1136,"o":"m 142 1024 l 1136 1024 l 1136 669 l 875 669 l 875 -62 l 403 -62 l 403 669 l 142 669 l 142 1024 z "},"Ｕ":{"ha":1278,"x_min":115,"x_max":1164,"o":"m 115 481 l 115 1024 l 618 1024 l 618 346 l 667 346 l 667 1024 l 1164 1024 l 1164 481 q 1124 236 1164 342 q 1015 60 1085 131 q 849 -47 944 -11 q 639 -83 753 -83 q 430 -48 526 -83 q 264 58 333 -12 q 155 235 194 129 q 115 481 115 340 z "},"Ｖ":{"ha":1278,"x_min":97,"x_max":1181,"o":"m 556 1024 l 631 719 l 576 511 l 614 501 l 756 1024 l 1181 1024 l 847 -61 l 444 -61 l 97 1024 l 556 1024 z "},"Ｗ":{"ha":1278,"x_min":-28,"x_max":1306,"o":"m 139 -61 l -28 1024 l 403 1024 l 447 658 l 514 1024 l 764 1024 l 831 658 l 875 1024 l 1306 1024 l 1139 -61 l 708 -61 l 639 257 l 569 -61 l 139 -61 z "},"Ｘ":{"ha":1278,"x_min":92,"x_max":1186,"o":"m 639 139 l 578 -61 l 92 -61 l 313 482 l 92 1024 l 578 1024 l 639 824 l 700 1024 l 1186 1024 l 965 482 l 1186 -61 l 700 -61 l 639 139 z "},"Ｙ":{"ha":1278,"x_min":69,"x_max":1208,"o":"m 556 1024 l 638 822 l 564 632 l 601 622 l 756 1024 l 1208 1024 l 890 303 l 890 -61 l 417 -61 l 417 300 l 69 1024 l 556 1024 z "},"Ｚ":{"ha":1278,"x_min":182,"x_max":1096,"o":"m 613 728 l 204 728 l 204 1024 l 1065 1024 l 1065 728 l 607 140 l 636 128 l 726 235 l 1096 235 l 1096 -61 l 182 -61 l 182 182 l 613 728 z "},"［":{"ha":1278,"x_min":813,"x_max":1250,"o":"m 813 1024 l 1250 1024 l 1250 693 l 1201 693 l 1201 214 l 1250 214 l 1250 -117 l 813 -117 l 813 1024 z "},"￦":{"ha":1278,"x_min":0,"x_max":1278,"o":"m 189 -61 l 139 301 l 0 301 l 0 688 l 85 688 l 39 1024 l 426 1024 l 464 688 l 471 688 l 526 1024 l 751 1024 l 807 688 l 814 688 l 851 1024 l 1239 1024 l 1193 688 l 1278 688 l 1278 301 l 1139 301 l 1089 -61 l 701 -61 l 639 257 l 576 -61 l 189 -61 z "},"］":{"ha":1278,"x_min":28,"x_max":465,"o":"m 465 -117 l 28 -117 l 28 214 l 76 214 l 76 693 l 28 693 l 28 1024 l 465 1024 l 465 -117 z "},"＾":{"ha":1278,"x_min":97,"x_max":1181,"o":"m 722 354 l 640 556 l 714 746 l 676 756 l 522 354 l 97 354 l 389 1022 l 861 1022 l 1181 354 l 722 354 z "},"＿":{"ha":1278,"x_min":253,"x_max":1024,"o":"m 253 -117 l 253 269 l 1024 269 l 1024 -117 l 253 -117 z "},"｀":{"ha":1278,"x_min":432,"x_max":847,"o":"m 847 669 l 529 669 l 432 1024 l 778 1024 l 847 669 z "},"ａ":{"ha":1278,"x_min":174,"x_max":1103,"o":"m 174 168 q 216 336 174 276 q 350 428 258 396 q 429 450 385 440 q 522 467 474 460 q 621 478 571 474 q 717 482 671 482 l 717 526 q 488 507 611 526 q 246 447 365 488 l 246 736 q 444 796 335 776 q 700 815 553 815 q 885 796 808 815 q 1010 731 961 776 q 1081 613 1058 686 q 1103 432 1103 539 l 1103 -61 l 756 -61 l 756 -14 q 733 142 756 68 q 676 265 711 217 l 635 250 q 667 197 653 229 q 690 124 681 164 q 706 42 700 85 q 711 -37 711 0 q 589 -69 657 -57 q 431 -82 521 -82 q 238 -13 301 -82 q 174 168 174 56 z "},"ｂ":{"ha":1278,"x_min":149,"x_max":1131,"o":"m 575 -61 l 149 -61 l 149 1024 l 621 1024 l 621 815 q 1001 717 871 828 q 1131 383 1131 606 q 1099 174 1131 260 q 1001 37 1068 89 q 829 -38 935 -15 q 575 -61 724 -61 m 844 425 l 819 460 q 753 431 794 444 q 666 408 713 418 q 572 393 619 399 q 486 388 525 388 l 486 349 q 575 353 525 349 q 675 368 625 358 q 770 392 725 378 q 844 425 815 406 z "},"ｃ":{"ha":1278,"x_min":167,"x_max":1110,"o":"m 167 360 q 201 549 167 464 q 302 692 236 633 q 464 783 368 751 q 683 815 560 815 q 922 790 814 815 q 1110 711 1031 764 l 1110 379 q 840 390 972 379 q 578 426 708 400 l 578 378 q 704 353 638 363 q 840 340 771 344 q 977 333 908 335 q 1110 331 1046 331 l 1110 42 q 901 -58 1017 -32 q 636 -83 785 -83 q 444 -53 531 -83 q 296 33 357 -24 q 201 172 235 90 q 167 360 167 254 z "},"ｄ":{"ha":1278,"x_min":147,"x_max":1129,"o":"m 1129 -61 l 703 -61 q 449 -38 554 -61 q 276 37 343 -15 q 178 174 210 89 q 147 383 147 260 q 277 717 147 606 q 657 815 407 828 l 657 1024 l 1129 1024 l 1129 -61 m 843 425 l 818 460 q 752 431 793 444 q 665 408 711 418 q 571 393 618 399 q 485 388 524 388 l 485 349 q 574 353 524 349 q 674 368 624 358 q 769 392 724 378 q 843 425 814 406 z "},"ｅ":{"ha":1278,"x_min":168,"x_max":1111,"o":"m 168 360 q 203 549 168 464 q 303 692 238 633 q 465 783 369 751 q 685 815 561 815 q 949 780 846 815 q 1111 669 1053 744 l 1111 240 q 842 251 974 240 q 579 288 710 261 l 579 239 q 706 215 639 224 q 841 201 772 206 q 978 194 910 196 q 1111 192 1047 192 l 1111 42 q 902 -58 1018 -32 q 638 -83 786 -83 q 445 -53 532 -83 q 297 33 358 -24 q 202 172 236 90 q 168 360 168 254 m 579 540 l 579 500 q 640 488 606 493 q 709 479 674 483 q 778 473 744 475 q 838 471 811 471 l 838 510 q 778 512 811 510 q 712 518 746 514 q 643 528 678 522 q 579 540 608 533 z "},"ｆ":{"ha":1278,"x_min":301,"x_max":976,"o":"m 976 438 l 822 438 l 822 -61 l 350 -61 l 350 438 l 301 438 l 301 788 l 360 788 q 478 1004 386 931 q 738 1078 571 1078 q 797 1074 763 1078 q 867 1065 832 1071 q 931 1052 901 1060 q 976 1035 961 1044 l 976 757 q 842 765 907 757 q 718 788 778 774 l 718 747 q 839 726 772 735 q 976 718 906 718 l 976 438 z "},"ｇ":{"ha":1278,"x_min":161,"x_max":1115,"o":"m 161 394 q 189 574 161 496 q 267 706 217 653 q 385 788 317 760 q 536 815 454 815 q 611 812 578 815 q 672 801 644 808 q 726 783 700 794 q 778 754 751 771 l 810 788 l 1115 788 l 1115 64 q 1002 -246 1115 -140 q 658 -351 889 -351 q 442 -337 551 -351 q 254 -294 333 -322 l 254 22 q 368 -19 308 -3 q 487 -40 428 -35 q 601 -40 546 -44 q 699 -19 656 -35 l 699 24 q 490 3 588 -7 q 319 62 392 14 q 203 194 246 110 q 161 394 161 278 m 790 426 l 765 461 q 703 433 740 446 q 626 410 667 419 q 542 394 585 400 q 460 389 499 389 l 460 350 q 544 355 499 350 q 635 369 590 360 q 720 393 679 379 q 790 426 761 407 z "},"ｈ":{"ha":1278,"x_min":142,"x_max":1138,"o":"m 614 -61 l 142 -61 l 142 1024 l 614 1024 l 614 801 q 513 760 564 782 q 413 707 463 739 l 426 663 q 535 719 474 692 q 663 769 597 747 q 793 803 729 790 q 911 815 857 815 q 1014 802 971 815 q 1085 758 1057 789 q 1125 680 1113 728 q 1138 561 1138 632 l 1138 -61 l 665 -61 l 665 386 l 614 367 l 614 -61 z "},"ｉ":{"ha":1278,"x_min":403,"x_max":875,"o":"m 875 -61 l 403 -61 l 403 1024 l 875 1024 l 875 828 q 805 799 850 813 q 708 776 760 786 q 605 761 657 767 q 514 756 553 756 l 514 717 q 603 721 553 717 q 706 734 654 725 q 802 756 757 743 q 875 788 847 769 l 875 -61 z "},"ｊ":{"ha":1278,"x_min":361,"x_max":917,"o":"m 917 64 q 823 -246 917 -140 q 529 -351 729 -351 q 435 -340 481 -351 q 361 -308 390 -328 l 361 8 q 425 -14 392 -8 q 478 -19 458 -19 q 556 -11 517 -19 q 626 21 594 -3 l 615 65 q 535 31 581 40 q 444 28 489 21 l 444 1024 l 917 1024 l 917 828 q 847 799 892 813 q 750 776 801 786 q 647 761 699 767 q 556 756 594 756 l 556 717 q 645 721 594 717 q 747 734 696 725 q 844 756 799 743 q 917 788 889 769 l 917 64 z "},"ｋ":{"ha":1278,"x_min":144,"x_max":1197,"o":"m 617 -61 l 144 -61 l 144 1024 l 617 1024 l 617 614 l 540 422 l 578 413 l 728 788 l 1197 788 l 990 364 l 1197 -61 l 711 -61 l 617 138 l 617 -61 z "},"ｌ":{"ha":1278,"x_min":403,"x_max":875,"o":"m 875 -61 l 403 -61 l 403 1024 l 875 1024 l 875 -61 z "},"ｍ":{"ha":1278,"x_min":50,"x_max":1228,"o":"m 810 411 l 810 -61 l 456 -61 l 456 428 l 411 408 l 411 -61 l 50 -61 l 50 788 l 314 788 l 363 739 q 414 776 390 761 q 462 799 438 790 q 513 812 486 808 q 576 815 540 815 q 740 753 682 815 q 856 797 793 778 q 988 815 919 815 q 1169 738 1110 815 q 1228 519 1228 661 l 1228 -61 l 853 -61 l 853 428 l 810 411 z "},"ｎ":{"ha":1278,"x_min":168,"x_max":1108,"o":"m 515 788 l 564 739 q 702 797 635 778 q 840 815 769 815 q 944 795 896 815 q 1029 738 993 775 q 1087 645 1065 700 q 1108 519 1108 590 l 1108 -61 l 664 -61 l 664 428 l 613 408 l 613 -61 l 168 -61 l 168 788 l 515 788 z "},"ｏ":{"ha":1278,"x_min":146,"x_max":1132,"o":"m 146 360 q 183 548 146 464 q 287 691 221 632 q 443 783 353 750 q 639 815 533 815 q 835 783 744 815 q 991 691 925 750 q 1094 548 1057 632 q 1132 360 1132 464 q 1094 171 1132 256 q 991 27 1057 86 q 835 -65 925 -32 q 639 -97 744 -97 q 443 -65 533 -97 q 287 26 353 -33 q 183 171 221 86 q 146 360 146 256 m 831 389 l 806 424 q 740 395 781 408 q 652 372 699 382 q 558 357 606 363 q 472 351 511 351 l 472 313 q 561 317 511 313 q 661 332 611 322 q 756 356 711 342 q 831 389 801 369 z "},"ｐ":{"ha":1278,"x_min":147,"x_max":1129,"o":"m 574 815 q 828 792 722 815 q 1000 717 933 769 q 1098 580 1067 665 q 1129 371 1129 494 q 999 38 1129 149 q 619 -61 869 -74 l 619 -269 l 147 -269 l 147 815 l 574 815 m 818 439 q 752 410 793 424 q 665 388 711 397 q 571 372 618 378 q 485 367 524 367 l 485 328 q 574 333 524 328 q 674 347 624 338 q 769 371 724 357 q 843 404 814 385 l 818 439 z "},"ｑ":{"ha":1278,"x_min":149,"x_max":1131,"o":"m 704 815 l 1131 815 l 1131 -269 l 658 -269 l 658 -61 q 278 38 408 -74 q 149 371 149 149 q 180 580 149 494 q 278 717 211 665 q 450 792 344 769 q 704 815 556 815 m 426 390 q 501 357 456 371 q 596 333 546 343 q 696 319 646 324 q 785 314 746 314 l 785 353 q 699 358 746 353 q 605 374 651 364 q 517 397 558 383 q 451 425 476 410 l 426 390 z "},"ｒ":{"ha":1278,"x_min":247,"x_max":1031,"o":"m 693 731 q 769 769 726 753 q 856 796 811 786 q 946 807 901 806 q 1031 801 990 808 l 1031 447 q 950 446 993 447 q 863 439 907 444 q 774 423 818 433 q 692 394 731 413 l 692 -61 l 247 -61 l 247 788 l 644 788 l 693 731 z "},"ｓ":{"ha":1278,"x_min":189,"x_max":1089,"o":"m 589 257 q 378 301 457 274 q 258 365 300 329 q 202 439 215 400 q 189 515 189 478 q 224 647 189 590 q 320 740 260 703 q 463 797 381 778 q 639 815 544 815 q 776 807 714 815 q 892 784 839 799 q 990 751 944 769 q 1075 715 1035 733 l 1075 446 q 963 503 1018 483 q 852 532 907 524 q 744 542 797 540 q 639 543 690 543 l 639 501 q 1089 251 1089 501 q 1053 102 1089 165 q 958 -3 1018 39 q 815 -65 897 -44 q 639 -85 732 -85 q 411 -47 526 -85 q 189 65 296 -10 l 189 315 q 403 241 301 267 q 589 215 506 215 l 589 257 z "},"ｔ":{"ha":1278,"x_min":300,"x_max":975,"o":"m 975 403 q 916 405 949 403 q 849 411 883 407 q 781 421 815 415 q 717 433 746 426 l 717 393 q 777 381 743 386 q 847 372 811 376 q 915 366 882 368 q 975 364 949 364 l 975 -58 q 846 -83 907 -78 q 736 -87 785 -87 q 583 -65 653 -87 q 464 1 514 -42 q 386 106 414 44 q 358 244 358 167 l 358 439 l 300 439 l 300 788 l 349 788 l 349 1024 l 821 1024 l 821 788 l 975 788 l 975 403 z "},"ｕ":{"ha":1278,"x_min":167,"x_max":1107,"o":"m 760 -61 l 711 -12 q 573 -70 640 -51 q 435 -89 506 -89 q 331 -69 379 -89 q 245 -11 282 -49 q 188 81 208 26 q 167 207 167 136 l 167 788 l 611 788 l 611 299 l 663 318 l 663 788 l 1107 788 l 1107 -61 l 760 -61 z "},"ｖ":{"ha":1278,"x_min":118,"x_max":1160,"o":"m 556 788 l 638 586 l 564 396 l 601 386 l 756 788 l 1160 788 l 840 -61 l 465 -61 l 118 788 l 556 788 z "},"ｗ":{"ha":1278,"x_min":39,"x_max":1238,"o":"m 189 -61 l 39 788 l 426 788 l 465 511 l 526 788 l 750 788 l 811 511 l 850 788 l 1238 788 l 1088 -61 l 700 -61 l 639 179 l 576 -61 l 189 -61 z "},"ｘ":{"ha":1278,"x_min":125,"x_max":1150,"o":"m 638 96 l 583 -61 l 125 -61 l 332 364 l 125 788 l 581 788 l 638 626 l 694 788 l 1150 788 l 943 364 l 1150 -61 l 692 -61 l 638 96 z "},"ｙ":{"ha":1278,"x_min":154,"x_max":1122,"o":"m 1122 64 q 994 -245 1122 -139 q 638 -351 867 -351 q 422 -337 531 -351 q 233 -294 313 -322 l 233 22 q 347 -19 288 -3 q 466 -40 407 -35 q 580 -40 525 -44 q 678 -19 635 -35 l 678 24 q 471 3 567 -7 q 305 62 375 14 q 194 194 235 110 q 154 394 154 278 l 154 786 l 613 786 l 613 339 l 664 358 l 664 786 l 1122 786 l 1122 64 z "},"ｚ":{"ha":1278,"x_min":229,"x_max":1046,"o":"m 257 790 l 1021 790 l 1021 494 l 706 140 l 735 128 l 833 235 l 1046 235 l 1046 -61 l 229 -61 l 229 126 l 556 494 l 257 494 l 257 790 z "},"｛":{"ha":1278,"x_min":757,"x_max":1250,"o":"m 979 435 q 1073 405 1015 417 q 1201 393 1131 393 l 1201 261 q 1214 207 1201 222 q 1250 192 1226 192 l 1250 -117 l 1113 -117 q 886 -50 963 -117 q 814 140 810 17 l 814 163 q 795 200 814 186 q 757 214 776 214 l 757 693 q 794 707 775 692 q 814 746 814 722 l 814 768 q 886 958 810 892 q 1113 1024 963 1025 l 1250 1024 l 1250 700 q 1214 685 1226 700 q 1201 631 1201 669 l 1201 436 q 1080 449 1143 436 q 979 486 1017 463 l 979 435 l 979 435 z "},"｜":{"ha":1278,"x_min":458,"x_max":819,"o":"m 819 -117 l 458 -117 l 458 1024 l 819 1024 l 819 -117 z "},"｝":{"ha":1278,"x_min":28,"x_max":521,"o":"m 76 446 q 119 425 90 435 q 180 408 147 415 q 245 397 213 401 q 299 390 278 392 l 299 432 q 240 440 278 433 q 166 456 203 446 q 103 479 129 465 q 76 511 76 493 l 76 631 q 64 685 76 669 q 28 700 51 700 l 28 1024 l 165 1024 q 392 958 315 1025 q 464 768 468 892 l 464 746 q 483 707 464 722 q 521 693 503 692 l 521 214 q 483 200 501 214 q 464 163 464 186 l 464 140 q 392 -50 468 17 q 165 -117 315 -117 l 28 -117 l 28 192 q 64 207 51 192 q 76 261 76 222 l 76 446 l 76 446 z "},"‾":{"ha":1278,"x_min":65,"x_max":1213,"o":"m 1213 669 l 65 669 l 65 1024 l 1213 1024 l 1213 669 z "},"ㄱ":{"ha":1278,"x_min":50,"x_max":1228,"o":"m 1228 899 l 1228 47 l 744 47 l 744 563 l 50 563 l 50 899 l 1228 899 z "},"ㄲ":{"ha":1278,"x_min":50,"x_max":1228,"o":"m 1228 899 l 1228 51 l 803 51 l 803 563 l 658 563 l 658 899 l 1228 899 m 606 899 l 606 51 l 194 51 l 194 563 l 50 563 l 50 899 l 606 899 z "},"ㄳ":{"ha":1278,"x_min":50,"x_max":1236,"o":"m 653 49 l 653 371 q 682 388 665 376 q 713 417 699 399 q 738 462 728 436 q 749 524 749 488 l 749 899 l 1140 899 l 1140 524 q 1151 462 1140 488 q 1176 417 1161 436 q 1207 388 1190 399 q 1236 371 1224 376 l 1236 49 q 1144 60 1190 49 q 1056 93 1099 72 q 973 142 1013 114 q 901 200 933 169 l 872 175 q 916 131 892 154 q 972 93 940 108 q 808 58 888 69 q 653 49 729 47 m 606 899 l 606 51 l 194 51 l 194 563 l 50 563 l 50 899 l 606 899 z "},"ㄴ":{"ha":1278,"x_min":50,"x_max":1228,"o":"m 50 226 l 50 899 l 510 899 l 510 408 l 1228 408 l 1228 51 l 225 51 q 96 97 142 51 q 50 226 50 143 z "},"ㄵ":{"ha":1278,"x_min":50,"x_max":1199,"o":"m 50 269 l 50 899 l 419 899 l 419 385 q 464 339 419 339 q 499 342 481 339 q 533 347 518 344 l 533 51 q 488 46 517 49 q 428 41 460 43 q 365 38 396 39 q 311 36 333 36 q 117 99 185 36 q 50 269 50 161 m 569 47 l 569 356 q 610 368 588 358 q 654 395 633 378 q 690 439 675 413 q 704 501 704 465 l 704 593 l 569 593 l 569 899 l 1199 899 l 1199 593 l 1065 593 l 1065 501 q 1078 442 1065 468 q 1110 397 1090 415 q 1154 369 1131 379 q 1199 356 1178 358 l 1199 47 q 1111 55 1161 47 q 1008 78 1061 63 q 906 119 956 94 q 819 178 856 144 l 790 153 q 830 117 808 133 q 883 86 851 101 q 815 66 856 74 q 728 54 774 58 q 641 49 683 50 q 569 47 599 47 z "},"ㄶ":{"ha":1278,"x_min":50,"x_max":1233,"o":"m 508 842 l 688 842 q 706 806 692 825 q 740 772 719 788 q 783 747 760 757 q 826 735 806 736 l 844 763 q 751 805 786 772 q 717 874 717 838 l 717 936 l 1051 936 l 1051 842 l 1233 842 l 1233 526 l 1143 526 q 1197 438 1179 488 q 1214 331 1214 389 q 1195 223 1214 276 q 1135 126 1176 169 q 1031 57 1094 83 q 878 31 967 31 q 738 51 800 31 q 631 112 675 72 q 565 206 588 151 q 542 331 542 261 q 565 438 542 389 q 629 526 589 488 l 508 526 l 508 842 m 50 269 l 50 899 l 419 899 l 419 350 q 464 304 419 304 q 492 307 481 304 q 519 313 504 310 l 519 51 q 476 46 503 49 q 421 41 450 43 q 363 38 392 39 q 311 36 333 36 q 117 99 185 36 q 50 269 50 161 m 768 388 l 750 347 q 813 327 783 336 q 873 313 843 318 q 935 304 903 307 q 1004 301 967 301 l 1004 342 q 939 345 968 342 q 883 354 910 349 q 828 368 856 360 q 768 388 800 376 z "},"ㄷ":{"ha":1278,"x_min":50,"x_max":1228,"o":"m 50 226 l 50 899 l 1228 899 l 1228 500 l 468 500 l 468 450 l 1228 450 l 1228 51 l 225 51 q 96 97 142 51 q 50 226 50 143 z "},"ㄸ":{"ha":1278,"x_min":50,"x_max":1228,"o":"m 399 443 l 647 443 l 647 899 l 1228 899 l 1228 493 l 1010 493 l 1010 443 l 1228 443 l 1228 51 l 225 51 q 96 97 142 51 q 50 226 50 143 l 50 899 l 603 899 l 603 493 l 399 493 l 399 443 z "},"ㄹ":{"ha":1278,"x_min":50,"x_max":1228,"o":"m 479 38 q 151 121 251 38 q 50 367 50 204 l 50 508 q 181 516 117 508 q 304 536 246 524 q 413 565 363 549 q 504 599 464 581 l 504 646 q 415 612 465 629 q 305 581 364 594 q 181 558 246 567 q 50 550 117 550 l 50 899 l 1228 899 l 1228 444 q 1022 408 1133 422 q 786 394 910 394 l 786 351 q 1022 365 910 351 q 1228 400 1133 378 l 1228 93 q 890 49 1081 61 q 479 38 699 38 z "},"ㄺ":{"ha":1278,"x_min":50,"x_max":1228,"o":"m 372 28 q 240 47 299 28 q 138 102 181 67 q 73 189 96 138 q 50 303 50 240 l 50 581 q 183 586 122 581 q 308 604 243 592 l 308 636 q 183 618 243 624 q 50 613 122 613 l 50 897 l 653 897 l 653 396 q 560 371 608 378 q 449 364 513 364 l 449 332 q 595 340 528 332 q 742 378 663 349 l 742 78 q 578 39 671 50 q 372 28 486 28 m 1228 897 l 1228 50 l 826 50 l 826 563 l 696 563 l 696 897 l 1228 897 z "},"ㄻ":{"ha":1278,"x_min":50,"x_max":1228,"o":"m 50 608 l 50 899 l 638 899 l 638 401 q 526 368 585 376 q 400 360 467 360 l 400 328 q 526 336 467 328 q 638 367 585 344 l 638 78 q 487 39 567 50 q 324 28 407 28 q 114 102 178 28 q 50 303 50 176 l 50 576 q 174 582 122 576 q 267 600 225 588 l 267 632 q 172 615 222 621 q 50 608 122 608 m 671 171 l 671 899 l 1228 899 l 1228 51 l 790 51 q 699 80 728 51 q 671 171 671 108 m 867 532 l 842 494 q 969 453 911 463 q 1054 446 1026 443 l 1054 488 q 978 497 1028 488 q 867 532 929 507 z "},"ㄼ":{"ha":1278,"x_min":50,"x_max":1229,"o":"m 50 608 l 50 899 l 610 899 l 610 401 q 498 368 557 376 q 372 360 439 360 l 372 328 q 498 336 439 328 q 610 367 557 344 l 610 78 q 466 39 539 50 q 310 28 393 28 q 113 102 176 28 q 50 303 50 176 l 50 576 q 174 582 122 576 q 267 600 225 588 l 267 632 q 172 615 222 621 q 50 608 122 608 m 1229 50 l 763 51 q 672 80 700 51 q 643 171 643 108 l 642 664 l 642 897 l 924 897 l 924 731 l 964 731 l 964 897 l 1229 897 l 1229 50 m 835 433 l 818 393 q 938 369 881 378 q 1058 358 996 361 l 1060 399 q 944 409 997 401 q 835 433 892 417 z "},"ㄽ":{"ha":1278,"x_min":50,"x_max":1236,"o":"m 50 607 l 50 899 l 618 899 l 618 400 q 507 369 569 379 q 381 358 444 358 l 381 326 q 513 336 458 326 q 618 368 567 346 l 618 76 q 470 38 547 49 q 310 26 393 26 q 187 46 236 26 q 107 101 138 65 q 63 188 76 136 q 50 301 50 239 l 50 575 q 163 581 108 575 q 267 599 218 586 l 267 631 q 161 613 215 619 q 50 607 107 607 m 653 49 l 653 371 q 682 388 665 376 q 713 417 699 399 q 738 462 728 436 q 749 524 749 488 l 749 899 l 1140 899 l 1140 524 q 1151 462 1140 488 q 1176 417 1161 436 q 1207 388 1190 399 q 1236 371 1224 376 l 1236 49 q 1144 60 1190 49 q 1056 93 1099 72 q 973 142 1013 114 q 901 200 933 169 l 872 175 q 916 131 892 154 q 972 93 940 108 q 808 58 888 69 q 653 49 729 47 z "},"ㄾ":{"ha":1278,"x_min":78,"x_max":1200,"o":"m 397 353 l 397 321 q 537 331 476 321 q 649 367 597 340 l 649 78 q 583 54 613 64 q 523 39 553 44 q 460 31 493 33 q 386 28 428 28 q 267 40 324 28 q 169 81 211 53 q 103 154 128 110 q 78 261 78 199 l 78 583 q 210 589 150 583 q 336 607 271 594 l 336 639 q 210 621 271 626 q 78 615 150 615 l 78 899 l 629 899 l 629 394 q 586 377 613 385 q 528 364 560 369 q 463 356 497 358 q 397 353 429 353 m 682 199 l 682 899 l 1200 899 l 1200 644 l 949 644 l 949 617 l 1200 617 l 1200 351 l 949 351 l 949 321 l 1200 321 l 1200 51 l 801 51 q 710 94 739 51 q 682 199 682 136 z "},"ㄿ":{"ha":1278,"x_min":50,"x_max":1228,"o":"m 1228 50 l 650 50 l 650 376 l 721 376 l 721 561 l 650 561 l 650 897 l 1228 897 l 1228 561 l 1157 561 l 1157 376 l 1228 376 l 1228 50 m 50 608 l 50 897 l 617 897 l 617 401 q 505 368 564 376 q 379 360 446 360 l 379 328 q 505 336 446 328 q 617 367 564 344 l 617 78 q 476 39 546 50 q 324 28 407 28 q 114 102 178 28 q 50 303 50 176 l 50 576 q 174 582 122 576 q 267 600 225 588 l 267 632 q 172 615 222 621 q 50 608 122 608 m 838 518 l 813 481 q 926 442 871 453 q 1046 432 982 432 l 1046 474 q 934 485 982 474 q 838 518 886 496 z "},"ㅀ":{"ha":1278,"x_min":50,"x_max":1233,"o":"m 592 828 l 715 828 q 733 792 719 811 q 767 758 747 774 q 810 733 788 743 q 854 721 833 722 l 872 749 q 779 791 814 758 q 744 860 744 824 l 744 936 l 1079 936 l 1079 828 l 1233 828 l 1233 513 l 1153 513 q 1200 426 1186 474 q 1214 331 1214 379 q 1199 223 1214 276 q 1149 126 1185 169 q 1054 57 1114 83 q 906 31 994 31 q 673 112 749 31 q 597 331 597 193 q 664 513 597 439 l 592 513 l 592 828 m 289 28 q 192 43 236 28 q 117 89 149 58 q 68 166 86 119 q 50 275 50 213 l 50 576 q 148 582 101 576 q 239 600 194 588 l 239 632 q 148 614 194 619 q 50 608 101 608 l 50 897 l 556 897 l 556 397 q 503 381 533 388 q 440 369 472 374 q 376 362 407 364 q 324 360 344 360 l 324 328 q 379 330 347 328 q 445 337 411 332 q 513 351 479 342 q 575 374 547 360 l 575 78 q 433 39 504 50 q 289 28 361 28 m 796 388 l 778 347 q 841 324 811 333 q 901 310 871 315 q 963 303 931 306 q 1032 301 994 301 l 1032 342 q 967 344 996 342 q 910 351 938 346 q 856 366 883 357 q 796 388 828 375 z "},"ㅁ":{"ha":1278,"x_min":50,"x_max":1228,"o":"m 50 226 l 50 899 l 1228 899 l 1228 51 l 225 51 q 96 97 142 51 q 50 226 50 143 m 474 526 l 458 485 q 546 463 499 472 q 642 449 593 454 q 738 442 690 444 q 824 439 785 439 l 824 481 q 649 492 744 481 q 474 526 553 504 z "},"ㅂ":{"ha":1278,"x_min":50,"x_max":1228,"o":"m 50 226 l 50 899 l 438 899 l 438 760 l 840 760 l 840 899 l 1228 899 l 1228 51 l 225 51 q 96 97 142 51 q 50 226 50 143 m 474 464 l 458 422 q 546 401 499 410 q 642 387 593 392 q 738 379 690 382 q 824 376 785 376 l 824 418 q 649 430 744 418 q 474 464 553 442 z "},"ㅃ":{"ha":1278,"x_min":50,"x_max":1228,"o":"m 50 239 l 50 899 l 410 899 l 410 718 l 456 718 l 456 899 l 828 899 l 828 718 l 875 718 l 875 899 l 1228 899 l 1228 50 l 238 50 q 144 58 181 50 q 86 88 107 67 q 58 145 65 108 q 50 239 50 182 m 488 454 l 463 417 q 544 390 497 401 q 640 370 590 378 q 740 358 690 363 q 828 354 789 354 l 828 396 q 742 400 789 396 q 649 413 696 404 q 560 431 603 421 q 488 454 518 442 z "},"ㅄ":{"ha":1278,"x_min":50,"x_max":1228,"o":"m 653 897 l 653 50 l 275 50 q 102 99 154 50 q 50 247 50 147 l 50 897 l 339 897 l 339 731 l 379 731 l 379 897 l 653 897 m 686 50 l 686 400 q 714 417 699 406 q 742 447 729 428 q 765 491 756 465 q 774 553 774 517 l 774 897 l 1146 897 l 1146 553 q 1153 491 1146 517 q 1174 447 1161 465 q 1201 417 1186 428 q 1228 400 1215 406 l 1228 50 q 1139 62 1182 50 q 1056 94 1096 74 q 981 143 1017 115 q 913 201 944 171 l 883 176 q 927 133 903 156 q 983 94 951 110 q 831 60 899 71 q 686 50 763 49 m 250 433 l 233 393 q 353 369 296 378 q 474 358 411 361 l 475 399 q 360 409 413 401 q 250 433 307 417 z "},"ㅅ":{"ha":1278,"x_min":50,"x_max":1228,"o":"m 50 49 l 50 428 q 210 451 143 433 q 320 502 278 468 q 383 589 363 536 q 403 719 403 642 l 403 899 l 872 899 l 872 719 q 892 589 872 642 q 956 502 913 536 q 1067 451 1000 468 q 1228 428 1133 433 l 1228 49 q 1001 55 1099 49 q 822 78 903 61 q 670 128 742 96 q 521 210 599 160 l 472 185 q 526 151 496 167 q 592 121 557 136 q 348 67 476 86 q 50 49 219 47 z "},"ㅆ":{"ha":1278,"x_min":50,"x_max":1228,"o":"m 50 51 l 50 401 q 146 459 108 413 q 183 607 183 506 l 183 899 l 600 899 l 600 607 q 610 519 600 556 q 638 457 619 482 q 666 519 656 482 q 676 607 676 556 l 676 899 l 1093 899 l 1093 593 q 1129 445 1093 492 q 1228 388 1165 399 l 1228 50 q 1119 60 1175 50 q 1008 94 1064 71 q 900 151 953 117 q 800 236 847 186 l 771 211 q 811 172 786 194 q 857 135 836 150 q 796 109 831 122 q 723 84 761 96 q 644 63 685 72 q 567 49 604 54 q 448 114 515 65 q 307 236 381 163 l 278 211 q 318 172 293 194 q 364 135 343 150 q 217 76 293 101 q 50 51 140 51 z "},"ㅇ":{"ha":1278,"x_min":38,"x_max":1240,"o":"m 38 465 q 75 631 38 549 q 188 779 113 714 q 376 885 263 844 q 639 925 489 925 q 902 885 789 925 q 1090 779 1015 844 q 1203 631 1165 714 q 1240 465 1240 549 q 1203 301 1240 382 q 1090 158 1165 221 q 902 58 1015 96 q 639 19 789 19 q 376 58 489 19 q 188 158 263 96 q 75 301 113 221 q 38 465 38 382 m 474 518 l 458 476 q 546 455 499 464 q 642 441 593 446 q 738 433 690 436 q 824 431 785 431 l 824 472 q 649 484 744 472 q 474 518 553 496 z "},"ㅈ":{"ha":1278,"x_min":50,"x_max":1228,"o":"m 50 51 l 50 408 q 278 440 196 408 q 388 556 360 471 l 50 556 l 50 899 l 1228 899 l 1228 556 l 885 556 q 924 483 897 511 q 994 438 951 454 q 1094 415 1036 421 q 1228 408 1153 408 l 1228 51 q 1001 58 1099 51 q 822 81 903 64 q 670 127 742 97 q 521 206 599 157 l 472 181 q 526 147 496 163 q 592 117 557 132 q 342 66 475 82 q 50 51 210 50 z "},"ㅉ":{"ha":1278,"x_min":50,"x_max":1228,"o":"m 1228 557 l 1096 557 q 1139 438 1104 479 q 1228 386 1174 396 l 1228 49 q 1119 59 1175 49 q 1008 92 1064 69 q 900 150 953 115 q 800 235 847 185 l 771 210 q 811 171 786 193 q 857 133 836 149 q 796 108 831 121 q 723 83 761 94 q 644 62 685 71 q 567 47 604 53 q 448 113 515 64 q 307 235 381 161 l 278 210 q 318 171 293 193 q 364 133 343 149 q 217 75 293 100 q 50 50 140 50 l 50 386 q 135 438 100 396 q 181 557 171 479 l 50 557 l 50 899 l 1228 899 l 1228 557 m 586 557 l 586 550 q 603 462 586 499 q 638 400 619 425 q 673 462 656 425 q 690 550 690 499 l 690 557 l 586 557 z "},"ㅊ":{"ha":1278,"x_min":50,"x_max":1228,"o":"m 50 47 l 50 400 q 295 433 213 400 q 397 542 378 467 l 50 542 l 50 899 l 368 899 q 388 863 372 882 q 424 828 403 844 q 469 802 444 813 q 514 790 493 792 l 532 818 q 435 860 474 828 q 396 929 396 893 l 396 1019 l 879 1019 l 879 899 l 1228 899 l 1228 542 l 879 542 q 982 433 899 467 q 1228 400 1065 400 l 1228 47 q 1001 56 1099 47 q 822 85 903 65 q 670 135 742 104 q 521 208 599 165 l 481 183 q 534 149 504 165 q 599 117 564 132 q 351 65 483 85 q 50 47 219 46 z "},"ㅋ":{"ha":1278,"x_min":50,"x_max":1228,"o":"m 1228 899 l 1228 50 l 744 50 l 744 194 l 50 194 l 50 510 l 744 510 l 744 576 l 50 576 l 50 899 l 1228 899 z "},"ㅌ":{"ha":1278,"x_min":50,"x_max":1228,"o":"m 50 226 l 50 899 l 1228 899 l 1228 639 l 468 639 l 468 599 l 1228 599 l 1228 353 l 468 353 l 468 311 l 1228 311 l 1228 51 l 225 51 q 96 97 142 51 q 50 226 50 143 z "},"ㅍ":{"ha":1278,"x_min":50,"x_max":1228,"o":"m 1228 379 l 1228 51 l 50 51 l 50 379 l 215 379 l 215 571 l 50 571 l 50 899 l 1228 899 l 1228 571 l 1076 571 l 1076 379 l 1228 379 m 474 508 l 458 467 q 546 445 499 454 q 642 431 593 436 q 738 424 690 426 q 824 421 785 421 l 824 463 q 649 474 744 463 q 474 508 553 486 z "},"ㅎ":{"ha":1278,"x_min":39,"x_max":1242,"o":"m 1229 899 l 1229 633 l 51 633 l 51 899 l 378 899 q 396 863 382 882 q 430 828 410 844 q 473 802 450 813 q 517 790 496 792 l 535 818 q 442 860 476 828 q 407 929 407 893 l 407 1019 l 874 1019 l 874 899 l 1229 899 m 39 322 q 76 438 39 385 q 189 528 114 490 q 377 588 264 567 q 640 610 490 610 q 903 588 790 610 q 1092 528 1017 567 q 1204 438 1167 490 q 1242 322 1242 385 q 1204 207 1242 260 q 1092 116 1167 154 q 903 56 1017 78 q 640 35 790 35 q 377 56 490 35 q 189 116 264 78 q 76 207 114 154 q 39 322 39 260 m 475 375 l 460 333 q 547 312 500 321 q 643 298 594 303 q 739 290 692 293 q 825 288 786 288 l 825 329 q 650 341 746 329 q 475 375 554 353 z "},"ㅏ":{"ha":1278,"x_min":456,"x_max":935,"o":"m 456 -117 l 456 1024 l 829 1024 l 829 661 l 935 661 l 935 333 l 829 333 l 829 -117 l 456 -117 z "},"ㅐ":{"ha":1278,"x_min":303,"x_max":1044,"o":"m 699 613 l 699 1024 l 1044 1024 l 1044 -117 l 699 -117 l 699 304 l 649 304 l 649 -117 l 303 -117 l 303 1024 l 649 1024 l 649 613 l 699 613 z "},"ㅑ":{"ha":1278,"x_min":456,"x_max":935,"o":"m 935 411 l 935 83 l 829 83 l 829 -117 l 456 -117 l 456 1024 l 829 1024 l 829 828 l 935 828 l 935 500 l 829 500 l 829 411 l 935 411 z "},"ㅒ":{"ha":1278,"x_min":296,"x_max":982,"o":"m 614 -117 l 296 -117 l 296 1024 l 614 1024 l 614 835 l 664 835 l 664 1024 l 982 1024 l 982 -117 l 664 -117 l 664 82 l 614 82 l 614 -117 m 749 497 q 698 482 726 489 q 638 470 669 475 q 575 463 607 465 q 513 461 543 461 l 513 421 q 649 429 579 421 q 767 457 718 438 l 749 497 z "},"ㅓ":{"ha":1278,"x_min":358,"x_max":919,"o":"m 358 689 l 518 689 l 518 1024 l 919 1024 l 919 -117 l 518 -117 l 518 236 l 358 236 l 358 689 z "},"ㅔ":{"ha":1278,"x_min":189,"x_max":1006,"o":"m 189 640 l 324 640 l 324 1024 l 642 1024 l 642 -117 l 324 -117 l 324 276 l 189 276 l 189 640 m 688 -117 l 688 1024 l 1006 1024 l 1006 -117 l 688 -117 z "},"ㅕ":{"ha":1278,"x_min":379,"x_max":914,"o":"m 379 438 q 493 446 444 438 q 590 474 542 454 l 572 514 q 483 487 528 496 q 379 478 439 478 l 379 890 l 513 890 l 513 1024 l 914 1024 l 914 -117 l 513 -117 l 513 26 l 379 26 l 379 438 z "},"ㅖ":{"ha":1278,"x_min":204,"x_max":1006,"o":"m 204 438 q 262 440 236 438 q 310 446 288 442 q 356 457 333 450 q 401 474 378 464 l 383 514 q 342 499 361 506 q 301 487 322 492 q 257 480 281 482 q 204 478 233 478 l 204 890 l 324 890 l 324 1024 l 642 1024 l 642 -117 l 324 -117 l 324 26 l 204 26 l 204 438 m 1006 -117 l 688 -117 l 688 1024 l 1006 1024 l 1006 -117 z "},"ㅗ":{"ha":1278,"x_min":50,"x_max":1228,"o":"m 425 597 l 853 597 l 853 474 l 1228 474 l 1228 165 l 50 165 l 50 474 l 425 474 l 425 597 z "},"ㅘ":{"ha":1278,"x_min":50,"x_max":1278,"o":"m 50 -117 l 50 192 l 189 192 l 189 357 l 617 357 l 617 192 l 638 192 q 799 204 725 192 l 799 1024 l 1172 1024 l 1172 661 l 1278 661 l 1278 333 l 1172 333 l 1172 -117 l 799 -117 l 799 -79 q 715 -107 758 -97 q 624 -117 671 -117 l 50 -117 z "},"ㅙ":{"ha":1278,"x_min":36,"x_max":1228,"o":"m 611 -117 l 611 -56 q 514 -101 565 -85 q 401 -117 463 -117 l 36 -117 l 36 192 l 140 192 l 140 364 l 463 364 l 463 193 q 540 201 504 196 q 611 214 575 206 l 611 1024 l 901 1024 l 901 613 l 938 613 l 938 1024 l 1228 1024 l 1228 -117 l 938 -117 l 938 304 l 901 304 l 901 -117 l 611 -117 z "},"ㅚ":{"ha":1278,"x_min":50,"x_max":1228,"o":"m 50 -117 l 50 192 l 203 192 l 203 357 l 631 357 l 631 192 l 665 192 q 826 204 753 192 l 826 1024 l 1228 1024 l 1228 -117 l 826 -117 l 826 -79 q 742 -107 786 -97 q 651 -117 699 -117 l 50 -117 z "},"ㅛ":{"ha":1278,"x_min":50,"x_max":1228,"o":"m 161 597 l 589 597 l 589 472 l 689 472 l 689 597 l 1117 597 l 1117 472 l 1228 472 l 1228 164 l 50 164 l 50 472 l 161 472 l 161 597 z "},"ㅜ":{"ha":1278,"x_min":50,"x_max":1228,"o":"m 425 71 l 425 310 l 50 310 l 50 604 l 1228 604 l 1228 310 l 853 310 l 853 71 l 425 71 z "},"ㅝ":{"ha":1278,"x_min":50,"x_max":1228,"o":"m 826 -117 l 826 -72 q 730 -72 779 -72 q 628 -74 681 -72 l 628 199 q 730 200 681 200 q 826 200 779 200 l 826 1024 l 1228 1024 l 1228 -117 l 826 -117 m 175 -117 l 175 242 q 113 241 144 242 q 50 240 82 240 l 50 526 q 244 528 153 528 q 422 530 335 529 q 599 533 510 531 q 786 538 688 535 l 786 251 q 681 247 732 249 q 576 244 629 246 l 576 -117 l 175 -117 z "},"ㅞ":{"ha":1278,"x_min":50,"x_max":1228,"o":"m 614 -117 l 615 -65 q 556 -66 588 -65 q 489 -67 525 -67 l 489 169 q 556 170 525 169 q 614 171 586 171 l 614 1024 l 904 1024 l 904 -117 l 614 -117 m 938 -117 l 938 1024 l 1228 1024 l 1228 -117 l 938 -117 m 119 -117 l 119 200 l 50 200 l 50 444 q 188 444 126 444 q 308 446 249 444 q 433 449 368 447 q 579 456 497 451 l 579 211 q 512 208 543 208 q 451 206 481 207 l 451 -117 l 119 -117 z "},"ㅟ":{"ha":1278,"x_min":50,"x_max":1228,"o":"m 203 -117 l 203 151 l 50 151 l 50 474 q 257 474 151 474 q 464 475 363 474 q 658 478 565 476 q 826 485 751 481 l 826 1024 l 1228 1024 l 1228 -117 l 826 -117 l 826 178 q 604 161 728 168 l 604 -117 l 203 -117 z "},"ㅠ":{"ha":1278,"x_min":50,"x_max":1228,"o":"m 689 71 l 689 310 l 589 310 l 589 71 l 175 71 l 175 310 l 50 310 l 50 604 l 1228 604 l 1228 310 l 1103 310 l 1103 71 l 689 71 z "},"ㅡ":{"ha":1278,"x_min":50,"x_max":1228,"o":"m 50 294 l 50 603 l 1228 603 l 1228 294 l 50 294 z "},"ㅢ":{"ha":1278,"x_min":50,"x_max":1228,"o":"m 826 -117 l 826 -79 q 742 -107 786 -97 q 651 -117 699 -117 l 50 -117 l 50 192 l 665 192 q 826 204 753 192 l 826 1024 l 1228 1024 l 1228 -117 l 826 -117 z "},"ㅣ":{"ha":1278,"x_min":439,"x_max":840,"o":"m 439 -117 l 439 1024 l 840 1024 l 840 -117 l 439 -117 z "},"ㅥ":{"ha":1278,"x_min":50,"x_max":1228,"o":"m 50 226 l 50 899 l 482 899 l 482 408 l 603 408 l 603 51 l 225 51 q 96 97 142 51 q 50 226 50 143 m 647 226 l 647 899 l 1079 899 l 1079 408 l 1228 408 l 1228 51 l 822 51 q 693 97 739 51 q 647 226 647 143 z "},"ㅦ":{"ha":1278,"x_min":50,"x_max":1228,"o":"m 647 226 l 647 899 l 1228 899 l 1228 500 l 1038 500 l 1038 450 l 1228 450 l 1228 51 l 822 51 q 693 97 739 51 q 647 226 647 143 m 50 226 l 50 899 l 482 899 l 482 408 l 603 408 l 603 51 l 225 51 q 96 97 142 51 q 50 226 50 143 z "},"ㅧ":{"ha":1278,"x_min":50,"x_max":1242,"o":"m 633 49 l 633 408 q 718 455 681 419 q 756 561 756 490 l 756 899 l 1119 899 l 1119 561 q 1157 455 1119 490 q 1242 408 1194 419 l 1242 49 q 1144 60 1196 49 q 1041 93 1092 72 q 944 142 990 114 q 867 200 899 169 l 838 175 q 881 131 857 154 q 938 93 906 108 q 781 58 853 69 q 633 49 710 47 m 50 226 l 50 899 l 468 899 l 468 408 l 589 408 l 589 51 l 225 51 q 96 97 142 51 q 50 226 50 143 z "},"ㅨ":{"ha":1278,"x_min":50,"x_max":1264,"o":"m 1264 51 l 225 51 q 96 97 142 51 q 50 226 50 143 l 50 899 l 468 899 l 468 408 l 589 408 l 589 153 l 732 899 l 1101 899 l 1264 51 m 793 503 l 774 474 q 914 435 836 444 q 1069 425 992 425 l 1069 457 q 921 467 992 457 q 793 503 850 478 z "},"ㅩ":{"ha":1278,"x_min":44,"x_max":1247,"o":"m 829 49 l 829 408 q 885 455 860 419 q 910 561 910 490 l 910 899 l 1167 899 l 1167 561 q 1191 455 1167 490 q 1247 408 1215 419 l 1247 49 q 1184 60 1217 49 q 1119 93 1151 72 q 1059 142 1088 114 q 1010 200 1031 169 l 990 175 q 1018 131 1001 154 q 1057 93 1035 108 q 940 58 1000 69 q 829 49 879 47 m 257 28 q 169 47 208 28 q 103 102 131 67 q 60 189 75 138 q 44 303 44 240 l 44 581 q 133 586 93 581 q 215 604 172 592 l 215 636 q 133 618 172 624 q 44 613 93 613 l 44 897 l 440 897 l 440 396 q 381 371 413 378 q 307 364 349 364 l 307 332 q 403 340 360 332 q 500 378 447 349 l 500 78 q 393 39 454 50 q 257 28 332 28 m 800 897 l 800 50 l 538 50 l 538 563 l 469 563 l 469 897 l 800 897 z "},"ㅪ":{"ha":1278,"x_min":78,"x_max":1200,"o":"m 397 353 l 397 321 q 537 331 476 321 q 649 367 597 340 l 649 78 q 583 54 613 64 q 523 39 553 44 q 460 31 493 33 q 386 28 428 28 q 267 40 324 28 q 169 81 211 53 q 103 154 128 110 q 78 261 78 199 l 78 583 q 210 589 150 583 q 336 607 271 594 l 336 639 q 210 621 271 626 q 78 615 150 615 l 78 899 l 629 899 l 629 394 q 586 377 613 385 q 528 364 560 369 q 463 356 497 358 q 397 353 429 353 m 682 226 l 682 899 l 1200 899 l 1200 500 l 1010 500 l 1010 450 l 1200 450 l 1200 51 l 857 51 q 728 97 774 51 q 682 226 682 143 z "},"ㅫ":{"ha":1278,"x_min":47,"x_max":1250,"o":"m 47 608 l 47 899 l 417 899 l 417 401 q 342 368 381 376 q 260 360 304 360 l 260 328 q 343 336 304 328 q 417 367 382 344 l 417 78 q 320 39 368 50 q 218 28 272 28 q 90 102 132 28 q 47 303 47 176 l 47 576 q 129 582 96 576 q 190 600 163 588 l 190 632 q 129 615 163 621 q 47 608 96 608 m 850 49 l 850 408 q 906 455 882 419 q 931 561 931 490 l 931 899 l 1169 899 l 1169 561 q 1194 455 1169 490 q 1250 408 1218 419 l 1250 49 q 1185 60 1219 49 q 1118 93 1151 72 q 1055 142 1085 114 q 1004 200 1025 169 l 983 175 q 1012 131 996 154 q 1049 93 1028 108 q 948 58 994 69 q 850 49 901 47 m 826 50 l 521 51 q 461 80 481 51 q 442 171 442 108 l 440 664 l 440 897 l 625 897 l 625 731 l 651 731 l 651 897 l 826 897 l 826 50 m 568 433 l 558 393 q 714 358 633 363 l 715 399 q 639 409 674 401 q 568 433 604 417 z "},"ㅬ":{"ha":1278,"x_min":78,"x_max":1264,"o":"m 397 353 l 397 321 q 529 331 475 321 q 635 367 583 340 l 635 265 l 746 899 l 1115 899 l 1264 51 l 597 51 l 600 64 q 549 47 572 54 q 501 36 526 40 q 449 30 476 32 q 386 28 421 28 q 267 40 324 28 q 169 81 211 53 q 103 154 128 110 q 78 261 78 199 l 78 583 q 210 589 150 583 q 336 607 271 594 l 336 639 q 210 621 271 626 q 78 615 150 615 l 78 899 l 615 899 l 615 394 q 575 377 599 385 q 522 364 551 369 q 461 356 493 358 q 397 353 429 353 m 807 503 l 788 474 q 928 435 850 444 q 1083 425 1006 425 l 1083 457 q 935 467 1006 457 q 807 503 864 478 z "},"ㅭ":{"ha":1278,"x_min":50,"x_max":1233,"o":"m 592 897 l 1233 897 l 1233 610 l 592 610 l 592 897 m 289 28 q 192 43 236 28 q 117 89 149 58 q 68 166 86 119 q 50 275 50 213 l 50 576 q 148 582 101 576 q 239 600 194 588 l 239 632 q 148 614 194 619 q 50 608 101 608 l 50 897 l 556 897 l 556 397 q 503 381 533 388 q 440 369 472 374 q 376 362 407 364 q 324 360 344 360 l 324 328 q 379 330 347 328 q 445 337 411 332 q 513 351 479 342 q 575 374 547 360 l 575 78 q 433 39 504 50 q 289 28 361 28 m 597 303 q 618 413 597 363 q 678 499 639 463 q 776 555 718 535 q 906 575 833 575 q 1035 555 978 575 q 1133 499 1093 535 q 1193 413 1172 463 q 1214 303 1214 363 q 1193 193 1214 243 q 1133 107 1172 143 q 1035 51 1093 71 q 906 31 978 31 q 776 51 833 31 q 678 107 718 71 q 618 193 639 143 q 597 303 597 243 m 796 353 l 778 313 q 841 290 811 299 q 901 276 871 281 q 963 269 931 271 q 1032 267 994 267 l 1032 307 q 967 309 996 307 q 910 317 938 311 q 856 331 883 322 q 796 353 828 340 z "},"ㅮ":{"ha":1278,"x_min":46,"x_max":1232,"o":"m 46 247 l 46 897 l 621 897 l 621 50 l 271 50 q 98 99 150 50 q 46 247 46 147 m 1232 897 l 1232 50 l 868 50 q 703 99 749 50 q 657 247 657 147 l 657 897 l 932 897 l 932 731 l 972 731 l 972 897 l 1232 897 m 232 531 l 215 490 q 335 467 278 475 q 456 456 393 458 l 457 496 q 342 506 394 499 q 232 531 289 514 m 843 433 l 826 393 q 947 369 889 378 q 1067 358 1004 361 l 1068 399 q 953 409 1006 401 q 843 433 900 417 z "},"ㅯ":{"ha":1278,"x_min":46,"x_max":1228,"o":"m 46 247 l 46 897 l 649 897 l 649 50 l 271 50 q 98 99 150 50 q 46 247 46 147 m 686 50 l 686 400 q 714 417 699 406 q 742 447 729 428 q 765 491 756 465 q 774 553 774 517 l 774 897 l 1146 897 l 1146 553 q 1153 491 1146 517 q 1174 447 1161 465 q 1201 417 1186 428 q 1228 400 1215 406 l 1228 50 q 1139 62 1182 50 q 1056 94 1096 74 q 981 143 1017 115 q 913 201 944 171 l 883 176 q 927 133 903 156 q 983 94 951 110 q 831 60 899 71 q 686 50 763 49 m 246 531 l 229 490 q 349 467 292 475 q 469 456 407 458 l 471 496 q 356 506 408 499 q 246 531 303 514 z "},"ㅰ":{"ha":1278,"x_min":46,"x_max":1264,"o":"m 46 247 l 46 897 l 621 897 l 621 186 l 746 899 l 1115 899 l 1264 51 l 621 51 l 621 50 l 271 50 q 98 99 150 50 q 46 247 46 147 m 232 531 l 215 490 q 335 467 278 475 q 456 456 393 458 l 457 496 q 342 506 394 499 q 232 531 289 514 m 807 503 l 788 474 q 928 435 850 444 q 1083 425 1006 425 l 1083 457 q 935 467 1006 457 q 807 503 864 478 z "},"ㅱ":{"ha":1278,"x_min":119,"x_max":1158,"o":"m 119 504 l 119 1024 l 1158 1024 l 1158 385 l 239 385 q 148 413 176 385 q 119 504 119 442 m 488 756 l 472 714 q 642 678 553 689 q 810 668 731 668 l 810 710 q 649 722 731 710 q 488 756 567 733 m 389 101 q 455 260 389 199 q 639 321 521 321 q 823 260 757 321 q 889 101 889 199 q 823 -57 889 4 q 639 -118 757 -118 q 455 -57 521 -118 q 389 101 389 4 m 550 142 l 535 108 q 587 90 563 97 q 635 79 611 83 q 684 74 658 75 q 742 72 710 72 l 742 106 q 643 113 685 106 q 550 142 601 121 z "},"ㅲ":{"ha":1278,"x_min":50,"x_max":1228,"o":"m 653 897 l 653 50 l 275 50 q 102 99 154 50 q 50 247 50 147 l 50 897 l 339 897 l 339 731 l 379 731 l 379 897 l 653 897 m 1228 897 l 1228 50 l 826 50 l 826 563 l 696 563 l 696 897 l 1228 897 m 250 433 l 233 393 q 353 369 296 378 q 474 358 411 361 l 475 399 q 360 409 413 401 q 250 433 307 417 z "},"ㅳ":{"ha":1278,"x_min":50,"x_max":1228,"o":"m 689 226 l 689 899 l 1228 899 l 1228 500 l 1038 500 l 1038 450 l 1228 450 l 1228 51 l 864 51 q 735 97 781 51 q 689 226 689 143 m 653 897 l 653 50 l 275 50 q 102 99 154 50 q 50 247 50 147 l 50 897 l 339 897 l 339 731 l 379 731 l 379 897 l 653 897 m 250 433 l 233 393 q 353 369 296 378 q 474 358 411 361 l 475 399 q 360 409 413 401 q 250 433 307 417 z "},"ㅴ":{"ha":1278,"x_min":26,"x_max":1251,"o":"m 467 897 l 467 50 l 192 50 q 65 99 104 50 q 26 247 26 147 l 26 897 l 239 897 l 239 731 l 268 731 l 268 897 l 467 897 m 492 50 l 492 400 q 533 447 511 411 q 556 553 556 482 l 556 897 l 826 897 l 826 553 q 847 447 826 482 q 886 400 867 411 l 886 50 q 822 62 853 50 q 761 94 790 74 q 706 143 732 115 q 657 201 681 171 l 633 176 q 667 133 649 156 q 708 94 685 110 q 597 60 646 71 q 492 50 547 49 m 1251 897 l 1251 50 l 958 50 l 958 563 l 863 563 l 863 897 l 1251 897 m 172 433 l 161 393 q 248 369 206 378 q 336 358 290 361 l 338 399 q 253 409 292 401 q 172 433 215 417 z "},"ㅵ":{"ha":1278,"x_min":69,"x_max":1213,"o":"m 860 226 l 860 899 l 1213 899 l 1213 500 l 1088 500 l 1088 450 l 1213 450 l 1213 51 l 972 51 q 889 97 918 51 q 860 226 860 143 m 464 897 l 464 50 l 217 50 q 103 99 136 50 q 69 247 69 147 l 69 897 l 258 897 l 258 731 l 285 731 l 285 897 l 464 897 m 485 50 l 485 400 q 524 447 504 411 q 544 553 544 482 l 544 897 l 788 897 l 788 553 q 806 447 788 482 q 840 400 824 411 l 840 50 q 782 62 810 50 q 728 94 754 74 q 679 143 703 115 q 635 201 656 171 l 615 176 q 644 133 628 156 q 681 94 660 110 q 581 60 625 71 q 485 50 536 49 m 199 433 l 189 393 q 346 358 267 363 l 347 399 q 271 409 306 401 q 199 433 236 417 z "},"ㅶ":{"ha":1278,"x_min":71,"x_max":1206,"o":"m 639 47 l 639 356 q 676 368 656 358 q 715 395 696 378 q 747 439 733 413 q 760 501 760 465 l 760 593 l 639 593 l 639 899 l 1206 899 l 1206 593 l 1085 593 l 1085 501 q 1097 442 1085 468 q 1126 397 1108 415 q 1165 369 1144 379 q 1206 356 1186 358 l 1206 47 q 1126 55 1172 47 q 1033 78 1081 63 q 942 119 986 94 q 864 178 897 144 l 838 153 q 872 117 853 133 q 921 86 892 101 q 860 66 897 74 q 782 54 822 58 q 703 49 742 50 q 639 47 665 47 m 614 897 l 614 50 l 274 50 q 118 99 165 50 q 71 247 71 147 l 71 897 l 332 897 l 332 731 l 368 731 l 368 897 l 614 897 m 251 433 l 236 393 q 344 369 292 378 q 453 358 396 361 l 454 399 q 350 409 397 401 q 251 433 303 417 z "},"ㅷ":{"ha":1278,"x_min":50,"x_max":1228,"o":"m 689 199 l 689 899 l 1228 899 l 1228 644 l 1011 644 l 1011 617 l 1228 617 l 1228 351 l 1011 351 l 1011 321 l 1228 321 l 1228 51 l 808 51 q 717 94 746 51 q 689 199 689 136 m 653 897 l 653 50 l 275 50 q 102 99 154 50 q 50 247 50 147 l 50 897 l 339 897 l 339 731 l 379 731 l 379 897 l 653 897 m 250 433 l 233 393 q 353 369 296 378 q 474 358 411 361 l 475 399 q 360 409 413 401 q 250 433 307 417 z "},"ㅸ":{"ha":1278,"x_min":119,"x_max":1158,"o":"m 119 1024 l 507 1024 l 507 926 l 771 926 l 771 1024 l 1158 1024 l 1158 388 l 239 388 q 148 416 176 388 q 119 507 119 444 l 119 1024 m 472 668 q 642 633 553 643 q 810 622 731 622 l 810 664 q 649 676 731 664 q 488 710 567 688 l 472 668 m 389 101 q 455 260 389 199 q 639 321 521 321 q 823 260 757 321 q 889 101 889 199 q 823 -57 889 4 q 639 -118 757 -118 q 455 -57 521 -118 q 389 101 389 4 m 535 108 q 587 90 563 97 q 635 79 611 83 q 684 74 658 75 q 742 72 710 72 l 742 106 q 643 113 685 106 q 550 142 601 121 l 535 108 z "},"ㅹ":{"ha":1278,"x_min":119,"x_max":1158,"o":"m 119 1024 l 444 1024 l 444 926 l 490 926 l 490 1024 l 793 1024 l 793 926 l 840 926 l 840 1024 l 1158 1024 l 1158 386 l 307 386 q 213 394 250 386 q 156 424 176 403 q 127 481 135 444 q 119 575 119 518 l 119 1024 m 472 668 q 642 633 553 643 q 810 622 731 622 l 810 664 q 649 676 731 664 q 488 710 567 688 l 472 668 m 389 101 q 455 260 389 199 q 639 321 521 321 q 823 260 757 321 q 889 101 889 199 q 823 -57 889 4 q 639 -118 757 -118 q 455 -57 521 -118 q 389 101 389 4 m 535 108 q 587 90 563 97 q 635 79 611 83 q 684 74 658 75 q 742 72 710 72 l 742 106 q 643 113 685 106 q 550 142 601 121 l 535 108 z "},"ㅺ":{"ha":1278,"x_min":69,"x_max":1189,"o":"m 69 49 l 69 371 q 99 388 82 376 q 130 417 115 399 q 155 462 144 436 q 165 524 165 488 l 165 899 l 557 899 l 557 524 q 567 462 557 488 q 592 417 578 436 q 624 388 607 399 q 653 371 640 376 l 653 49 q 561 60 607 49 q 472 93 515 72 q 390 142 429 114 q 318 200 350 169 l 289 175 q 333 131 308 154 q 389 93 357 108 q 225 58 304 69 q 69 49 146 47 m 1189 899 l 1189 51 l 778 51 l 778 563 l 633 563 l 633 899 l 1189 899 z "},"ㅻ":{"ha":1278,"x_min":69,"x_max":1228,"o":"m 689 269 l 689 899 l 1100 899 l 1100 385 q 1144 339 1100 339 q 1187 342 1161 339 q 1228 347 1213 344 l 1228 51 q 1174 46 1211 49 q 1094 41 1138 43 q 1012 38 1051 39 q 950 36 972 36 q 756 99 824 36 q 689 269 689 161 m 69 49 l 69 371 q 99 388 82 376 q 130 417 115 399 q 155 462 144 436 q 165 524 165 488 l 165 899 l 557 899 l 557 524 q 567 462 557 488 q 592 417 578 436 q 624 388 607 399 q 653 371 640 376 l 653 49 q 561 60 607 49 q 472 93 515 72 q 390 142 429 114 q 318 200 350 169 l 289 175 q 333 131 308 154 q 389 93 357 108 q 225 58 304 69 q 69 49 146 47 z "},"ㅼ":{"ha":1278,"x_min":69,"x_max":1228,"o":"m 69 49 l 69 371 q 99 388 82 376 q 130 417 115 399 q 155 462 144 436 q 165 524 165 488 l 165 899 l 557 899 l 557 524 q 567 462 557 488 q 592 417 578 436 q 624 388 607 399 q 653 371 640 376 l 653 49 q 561 60 607 49 q 472 93 515 72 q 390 142 429 114 q 318 200 350 169 l 289 175 q 333 131 308 154 q 389 93 357 108 q 225 58 304 69 q 69 49 146 47 m 689 226 l 689 899 l 1228 899 l 1228 500 l 1038 500 l 1038 450 l 1228 450 l 1228 51 l 864 51 q 735 97 781 51 q 689 226 689 143 z "},"ㅽ":{"ha":1278,"x_min":42,"x_max":1236,"o":"m 42 49 l 42 371 q 71 388 54 376 q 102 417 88 399 q 127 462 117 436 q 138 524 138 488 l 138 899 l 529 899 l 529 524 q 540 462 529 488 q 565 417 550 436 q 596 388 579 399 q 625 371 613 376 l 625 49 q 533 60 579 49 q 444 93 488 72 q 362 142 401 114 q 290 200 322 169 l 261 175 q 305 131 281 154 q 361 93 329 108 q 197 58 276 69 q 42 49 118 47 m 1236 897 l 1236 50 l 879 50 q 710 99 760 50 q 661 247 661 147 l 661 897 l 936 897 l 936 731 l 976 731 l 976 897 l 1236 897 m 847 433 l 831 393 q 951 369 893 378 q 1071 358 1008 361 l 1072 399 q 957 409 1010 401 q 847 433 904 417 z "},"ㅾ":{"ha":1278,"x_min":42,"x_max":1236,"o":"m 42 49 l 42 371 q 71 388 54 376 q 102 417 88 399 q 127 462 117 436 q 138 524 138 488 l 138 899 l 529 899 l 529 524 q 540 462 529 488 q 565 417 550 436 q 596 388 579 399 q 625 371 613 376 l 625 49 q 533 60 579 49 q 444 93 488 72 q 362 142 401 114 q 290 200 322 169 l 261 175 q 305 131 281 154 q 361 93 329 108 q 197 58 276 69 q 42 49 118 47 m 669 47 l 669 356 q 706 368 686 358 q 745 395 726 378 q 777 439 764 413 q 790 501 790 465 l 790 593 l 669 593 l 669 899 l 1236 899 l 1236 593 l 1115 593 l 1115 501 q 1127 442 1115 468 q 1157 397 1139 415 q 1196 369 1175 379 q 1236 356 1217 358 l 1236 47 q 1157 55 1203 47 q 1064 78 1111 63 q 972 119 1017 94 q 894 178 928 144 l 868 153 q 903 117 883 133 q 951 86 922 101 q 890 66 928 74 q 813 54 853 58 q 734 49 772 50 q 669 47 696 47 z "},"ㅿ":{"ha":1278,"x_min":69,"x_max":1208,"o":"m 1208 51 l 69 51 l 500 982 l 778 982 l 1208 51 m 515 503 l 496 474 q 636 435 558 444 q 792 425 714 425 l 792 457 q 643 467 714 457 q 515 503 572 478 z "},"ㆀ":{"ha":1278,"x_min":51,"x_max":1226,"o":"m 51 465 q 69 631 51 549 q 123 779 88 714 q 213 885 158 844 q 339 925 267 925 q 465 885 411 925 q 555 779 519 844 q 608 631 590 714 q 626 465 626 549 q 608 301 626 382 q 555 158 590 221 q 465 58 519 96 q 339 19 411 19 q 213 58 267 19 q 123 158 158 96 q 69 301 88 221 q 51 465 51 382 m 651 465 q 669 631 651 549 q 723 779 688 714 q 813 885 758 844 q 939 925 867 925 q 1065 885 1011 925 q 1155 779 1119 844 q 1208 631 1190 714 q 1226 465 1226 549 q 1208 301 1226 382 q 1155 158 1190 221 q 1065 58 1119 96 q 939 19 1011 19 q 813 58 867 19 q 723 158 758 96 q 669 301 688 221 q 651 465 651 382 m 243 518 l 233 476 q 341 441 281 451 q 447 431 401 431 l 447 472 q 344 484 401 472 q 243 518 288 496 m 843 518 l 833 476 q 941 441 881 451 q 1047 431 1001 431 l 1047 472 q 944 484 1001 472 q 843 518 888 496 z "},"ㆁ":{"ha":1278,"x_min":38,"x_max":1240,"o":"m 38 396 q 134 631 38 531 q 425 768 231 731 l 425 899 l 853 899 l 853 768 q 1144 631 1047 731 q 1240 396 1240 531 q 1203 243 1240 313 q 1090 124 1165 174 q 902 47 1015 74 q 639 19 789 19 q 376 47 489 19 q 188 124 263 74 q 75 243 113 174 q 38 396 38 313 m 474 449 l 458 407 q 546 385 499 394 q 642 372 593 376 q 738 364 690 367 q 824 361 785 361 l 824 403 q 649 415 744 403 q 474 449 553 426 z "},"ㆂ":{"ha":1278,"x_min":51,"x_max":1236,"o":"m 51 396 q 81 592 51 506 q 172 729 111 679 l 172 899 l 517 899 l 517 719 q 599 584 572 668 q 626 396 626 500 q 608 243 626 313 q 555 124 590 174 q 465 47 519 74 q 339 19 411 19 q 213 47 267 19 q 123 124 158 74 q 69 243 88 174 q 51 396 51 313 m 653 49 l 653 371 q 682 388 665 376 q 713 417 699 399 q 738 462 728 436 q 749 524 749 488 l 749 899 l 1140 899 l 1140 524 q 1151 462 1140 488 q 1176 417 1161 436 q 1207 388 1190 399 q 1236 371 1224 376 l 1236 49 q 1144 60 1190 49 q 1056 93 1099 72 q 973 142 1013 114 q 901 200 933 169 l 872 175 q 916 131 892 154 q 972 93 940 108 q 808 58 888 69 q 653 49 729 47 m 243 449 l 233 407 q 341 372 281 382 q 447 361 401 361 l 447 403 q 344 415 401 403 q 243 449 288 426 z "},"ㆃ":{"ha":1278,"x_min":51,"x_max":1264,"o":"m 51 396 q 81 592 51 506 q 172 729 111 679 l 172 899 l 517 899 l 517 719 q 599 584 572 668 q 626 396 626 500 q 608 243 626 313 q 555 124 590 174 q 465 47 519 74 q 339 19 411 19 q 213 47 267 19 q 123 124 158 74 q 69 243 88 174 q 51 396 51 313 m 1264 51 l 597 51 l 746 899 l 1115 899 l 1264 51 m 807 503 l 788 474 q 928 435 850 444 q 1083 425 1006 425 l 1083 457 q 935 467 1006 457 q 807 503 864 478 m 243 449 l 233 407 q 341 372 281 382 q 447 361 401 361 l 447 403 q 344 415 401 403 q 243 449 288 426 z "},"ㆄ":{"ha":1278,"x_min":119,"x_max":1158,"o":"m 1158 385 l 119 385 l 119 678 l 285 678 l 285 731 l 119 731 l 119 1024 l 1158 1024 l 1158 731 l 1007 731 l 1007 678 l 1158 678 l 1158 385 m 488 733 l 472 692 q 642 656 553 667 q 810 646 731 646 l 810 688 q 649 699 731 688 q 488 733 567 711 m 389 101 q 455 260 389 199 q 639 321 521 321 q 823 260 757 321 q 889 101 889 199 q 823 -57 889 4 q 639 -118 757 -118 q 455 -57 521 -118 q 389 101 389 4 m 550 142 l 535 108 q 587 90 563 97 q 635 79 611 83 q 684 74 658 75 q 742 72 710 72 l 742 106 q 643 113 685 106 q 550 142 601 121 z "},"ㆅ":{"ha":1278,"x_min":44,"x_max":1233,"o":"m 657 828 l 768 828 q 785 792 772 811 q 815 758 797 774 q 853 733 832 743 q 893 721 874 722 l 908 749 q 826 791 857 758 q 794 860 794 824 l 794 936 l 1096 936 l 1096 828 l 1233 828 l 1233 513 l 1143 513 q 1217 317 1217 439 q 1198 205 1217 257 q 1143 114 1179 153 q 1056 53 1107 75 q 939 31 1004 31 q 822 53 874 31 q 735 114 771 75 q 680 205 699 153 q 661 317 661 257 q 735 513 661 439 l 657 513 l 657 828 m 44 828 l 156 828 q 172 792 160 811 q 202 758 185 774 q 240 733 219 743 q 281 721 261 722 l 296 749 q 213 791 244 758 q 182 860 182 824 l 182 936 l 483 936 l 483 828 l 621 828 l 621 513 l 531 513 q 604 317 604 439 q 585 205 604 257 q 531 114 567 153 q 443 53 494 75 q 326 31 392 31 q 210 53 261 31 q 122 114 158 75 q 67 205 86 153 q 49 317 49 257 q 122 513 49 439 l 44 513 l 44 828 m 840 367 l 824 326 q 881 303 854 313 q 934 290 907 294 q 990 283 961 285 q 1053 281 1018 281 l 1053 321 q 994 323 1021 321 q 943 331 968 325 q 894 345 918 336 q 840 367 869 354 m 228 367 l 211 326 q 268 303 242 313 q 322 290 294 294 q 377 283 349 285 q 440 281 406 281 l 440 321 q 382 323 408 321 q 331 331 356 325 q 281 345 306 336 q 228 367 257 354 z "},"ㆆ":{"ha":1278,"x_min":39,"x_max":1242,"o":"m 1229 899 l 1229 633 l 51 633 l 51 899 l 1229 899 m 39 322 q 76 438 39 385 q 189 528 114 490 q 377 588 264 567 q 640 610 490 610 q 903 588 790 610 q 1092 528 1017 567 q 1204 438 1167 490 q 1242 322 1242 385 q 1204 207 1242 260 q 1092 116 1167 154 q 903 56 1017 78 q 640 35 790 35 q 377 56 490 35 q 189 116 264 78 q 76 207 114 154 q 39 322 39 260 m 475 375 l 460 333 q 547 312 500 321 q 643 298 594 303 q 739 290 692 293 q 825 288 786 288 l 825 329 q 650 341 746 329 q 475 375 554 353 z "},"ㆇ":{"ha":1278,"x_min":50,"x_max":1278,"o":"m 50 -117 l 50 192 l 92 192 l 92 357 l 381 357 l 381 192 l 439 192 l 439 357 l 728 357 l 728 196 q 765 200 747 199 q 799 204 782 201 l 799 1024 l 1172 1024 l 1172 828 l 1278 828 l 1278 500 l 1172 500 l 1172 411 l 1278 411 l 1278 83 l 1172 83 l 1172 -117 l 799 -117 l 799 -79 q 715 -107 758 -97 q 624 -117 671 -117 l 50 -117 z "},"ㆈ":{"ha":1278,"x_min":36,"x_max":1228,"o":"m 36 -117 l 36 192 l 71 192 l 71 364 l 296 364 l 296 192 l 321 192 l 321 364 l 546 364 l 546 201 q 611 214 576 206 l 611 1024 l 901 1024 l 901 835 l 938 835 l 938 1024 l 1228 1024 l 1228 -117 l 938 -117 l 938 82 l 901 82 l 901 -117 l 611 -117 l 611 -56 q 514 -101 565 -85 q 401 -117 463 -117 l 36 -117 m 1022 497 q 972 482 1000 489 q 912 470 943 475 q 849 463 881 465 q 786 461 817 461 l 786 421 q 922 429 853 421 q 1040 457 992 438 l 1022 497 z "},"ㆉ":{"ha":1278,"x_min":50,"x_max":1228,"o":"m 50 -117 l 50 192 l 106 192 l 106 357 l 394 357 l 394 192 l 453 192 l 453 357 l 742 357 l 742 194 q 785 199 764 197 q 826 204 807 201 l 826 1024 l 1228 1024 l 1228 -117 l 826 -117 l 826 -79 q 742 -107 786 -97 q 651 -117 699 -117 l 50 -117 z "},"ㆊ":{"ha":1278,"x_min":50,"x_max":1228,"o":"m 826 -117 l 826 -74 l 628 -74 l 628 101 l 826 101 l 826 128 l 628 128 l 628 303 l 826 303 l 826 1024 l 1228 1024 l 1228 -117 l 826 -117 m 103 -117 l 103 324 l 50 324 l 50 610 q 244 612 153 611 q 422 613 335 613 q 599 616 510 614 q 786 621 688 618 l 786 335 q 693 331 739 332 q 601 329 647 331 l 601 -117 l 367 -117 l 367 325 l 338 325 l 338 -117 l 103 -117 z "},"ㆋ":{"ha":1278,"x_min":50,"x_max":1228,"o":"m 614 -117 l 614 -115 l 475 -115 l 475 60 l 614 60 l 614 86 l 475 86 l 475 261 l 614 261 l 614 1024 l 904 1024 l 904 -117 l 614 -117 m 938 -117 l 938 1024 l 1228 1024 l 1228 -117 l 938 -117 m 78 -117 l 79 283 l 50 283 l 50 528 q 188 528 126 528 q 308 529 249 528 q 433 533 368 531 q 579 539 497 535 l 579 294 q 504 291 539 292 q 438 289 469 290 l 438 -117 l 272 -117 l 272 283 l 243 283 l 243 -117 l 78 -117 z "},"ㆌ":{"ha":1278,"x_min":50,"x_max":1228,"o":"m 106 -117 l 106 193 l 50 193 l 50 515 q 257 515 151 515 q 464 517 363 515 q 658 520 565 518 q 826 526 751 522 l 826 1024 l 1228 1024 l 1228 -117 l 826 -117 l 826 219 q 792 215 810 217 q 757 213 775 214 l 757 -117 l 453 -117 l 453 197 l 442 197 l 421 196 l 410 196 l 410 -117 l 106 -117 z "},"ㆍ":{"ha":1278,"x_min":422,"x_max":857,"o":"m 422 481 q 440 566 422 526 q 486 635 457 606 q 555 681 515 664 q 640 699 594 699 q 724 681 685 699 q 793 635 764 664 q 840 566 822 606 q 857 481 857 526 q 840 395 857 435 q 793 326 822 356 q 724 280 764 297 q 640 263 685 263 q 555 280 594 263 q 486 326 515 297 q 440 395 457 356 q 422 481 422 435 z "},"ㆎ":{"ha":1278,"x_min":186,"x_max":1118,"o":"m 717 -117 l 717 1024 l 1118 1024 l 1118 -117 l 717 -117 m 186 481 q 203 566 186 526 q 250 635 221 606 q 319 681 279 664 q 404 699 358 699 q 488 681 449 699 q 557 635 528 664 q 603 566 586 606 q 621 481 621 526 q 603 395 621 435 q 557 326 586 356 q 488 280 528 297 q 404 263 449 263 q 319 280 358 263 q 250 326 279 297 q 203 395 221 356 q 186 481 186 435 z "},"ⅰ":{"ha":1278,"x_min":403,"x_max":875,"o":"m 875 -61 l 403 -61 l 403 1024 l 875 1024 l 875 828 q 805 799 850 813 q 708 776 760 786 q 605 761 657 767 q 514 756 553 756 l 514 717 q 603 721 553 717 q 706 734 654 725 q 802 756 757 743 q 875 788 847 769 l 875 -61 z "},"ⅱ":{"ha":1278,"x_min":153,"x_max":1125,"o":"m 583 -61 l 153 -61 l 153 1024 l 583 1024 l 583 828 q 519 799 558 813 q 437 776 481 786 q 348 761 393 767 q 264 756 303 756 l 264 717 q 347 721 303 717 q 435 734 392 725 q 517 756 478 743 q 583 788 556 769 l 583 -61 m 1125 -61 l 694 -61 l 694 1024 l 1125 1024 l 1125 828 q 1061 799 1100 813 q 978 776 1022 786 q 890 761 935 767 q 806 756 844 756 l 806 717 q 889 721 844 717 q 976 734 933 725 q 1058 756 1019 743 q 1125 788 1097 769 l 1125 -61 z "},"ⅲ":{"ha":1278,"x_min":56,"x_max":1222,"o":"m 417 -61 l 56 -61 l 56 1024 l 417 1024 l 417 828 q 299 776 365 796 q 153 756 232 756 l 153 717 q 296 734 232 717 q 417 788 360 751 l 417 -61 m 819 -61 l 458 -61 l 458 1024 l 819 1024 l 819 828 q 701 776 768 796 q 556 756 635 756 l 556 717 q 699 734 635 717 q 819 788 763 751 l 819 -61 m 1222 -61 l 861 -61 l 861 1024 l 1222 1024 l 1222 828 q 1104 776 1171 796 q 958 756 1038 756 l 958 717 q 1101 734 1038 717 q 1222 788 1165 751 l 1222 -61 z "},"ⅳ":{"ha":1278,"x_min":42,"x_max":1278,"o":"m 425 788 l 425 -61 l 42 -61 l 42 1024 l 425 1024 l 425 828 q 367 799 404 813 q 289 776 331 786 q 206 761 247 767 q 132 756 164 756 l 132 717 q 205 721 164 717 q 288 734 246 725 q 365 756 329 743 q 425 788 401 769 m 789 788 l 856 586 l 794 396 l 825 386 l 950 788 l 1278 788 l 1019 -61 l 715 -61 l 433 788 l 789 788 z "},"ⅴ":{"ha":1278,"x_min":118,"x_max":1160,"o":"m 556 788 l 638 586 l 564 396 l 601 386 l 756 788 l 1160 788 l 840 -61 l 465 -61 l 118 788 l 556 788 z "},"ⅵ":{"ha":1278,"x_min":0,"x_max":1264,"o":"m 1264 788 l 1264 -61 l 881 -61 l 881 1024 l 1264 1024 l 1264 828 q 1206 799 1243 813 q 1128 776 1169 786 q 1044 761 1086 767 q 971 756 1003 756 l 971 717 q 1044 721 1003 717 q 1126 734 1085 725 q 1204 756 1168 743 q 1264 788 1240 769 m 356 788 l 422 586 l 361 396 l 392 386 l 517 788 l 844 788 l 586 -61 l 282 -61 l 0 788 l 356 788 z "},"ⅶ":{"ha":1278,"x_min":14,"x_max":1238,"o":"m 924 -61 l 644 -61 l 644 1024 l 924 1024 l 924 828 q 882 799 908 813 q 825 776 856 786 q 764 761 794 767 q 710 756 733 756 l 710 717 q 763 721 733 717 q 824 734 793 725 q 881 756 854 743 q 924 788 907 769 l 924 -61 m 1238 -61 l 957 -61 l 957 1024 l 1238 1024 l 1238 828 q 1195 799 1222 813 q 1138 776 1168 786 q 1076 761 1107 767 q 1024 756 1046 756 l 1024 717 q 1076 721 1046 717 q 1137 734 1107 725 q 1194 756 1167 743 q 1238 788 1221 769 l 1238 -61 m 321 586 l 278 396 l 299 386 l 390 788 l 631 788 l 440 -61 l 219 -61 l 14 788 l 272 788 l 321 586 z "},"ⅷ":{"ha":1278,"x_min":0,"x_max":1246,"o":"m 738 -61 l 511 -61 l 511 1024 l 738 1024 l 738 828 q 703 799 725 813 q 658 776 682 786 q 608 761 633 767 q 564 756 583 756 l 564 717 q 608 721 583 717 q 656 734 632 725 q 702 756 681 743 q 738 788 724 769 l 738 -61 m 992 -61 l 764 -61 l 764 1024 l 992 1024 l 992 828 q 957 799 979 813 q 910 776 935 786 q 860 761 885 767 q 818 756 836 756 l 818 717 q 860 721 836 717 q 909 734 885 725 q 956 756 933 743 q 992 788 978 769 l 992 -61 m 1246 -61 l 1018 -61 l 1018 1024 l 1246 1024 l 1246 828 q 1212 799 1233 813 q 1165 776 1190 786 q 1115 761 1140 767 q 1072 756 1090 756 l 1072 717 q 1115 721 1090 717 q 1165 734 1140 725 q 1210 756 1189 743 q 1246 788 1232 769 l 1246 -61 m 249 586 l 214 396 l 231 386 l 304 788 l 500 788 l 346 -61 l 167 -61 l 0 788 l 210 788 l 249 586 z "},"ⅸ":{"ha":1278,"x_min":50,"x_max":1261,"o":"m 428 788 l 428 -61 l 50 -61 l 50 1024 l 428 1024 l 428 828 q 372 799 407 813 q 294 776 336 786 q 211 761 253 767 q 139 756 169 756 l 139 717 q 210 721 169 717 q 292 734 251 725 q 369 756 333 743 q 428 788 406 769 m 851 96 l 808 -61 l 442 -61 l 607 364 l 442 788 l 806 788 l 851 626 l 897 788 l 1261 788 l 1096 364 l 1261 -61 l 894 -61 l 851 96 z "},"ⅹ":{"ha":1278,"x_min":126,"x_max":1151,"o":"m 639 96 l 585 -61 l 126 -61 l 333 364 l 126 788 l 582 788 l 639 626 l 696 788 l 1151 788 l 944 364 l 1151 -61 l 693 -61 l 639 96 z "},"Ⅰ":{"ha":1278,"x_min":403,"x_max":875,"o":"m 403 -61 l 403 1024 l 875 1024 l 875 -61 l 403 -61 z "},"Ⅱ":{"ha":1278,"x_min":153,"x_max":1125,"o":"m 153 -61 l 153 1024 l 583 1024 l 583 -61 l 153 -61 m 694 -61 l 694 1024 l 1125 1024 l 1125 -61 l 694 -61 z "},"Ⅲ":{"ha":1278,"x_min":56,"x_max":1222,"o":"m 56 -61 l 56 1024 l 417 1024 l 417 -61 l 56 -61 m 458 -61 l 458 1024 l 819 1024 l 819 -61 l 458 -61 m 861 -61 l 861 1024 l 1222 1024 l 1222 -61 l 861 -61 z "},"Ⅳ":{"ha":1278,"x_min":56,"x_max":1267,"o":"m 56 -61 l 56 1024 l 767 1024 l 826 719 l 783 511 l 814 501 l 926 1024 l 1267 1024 l 1000 -61 l 678 -61 l 433 893 l 433 -61 l 56 -61 z "},"Ⅴ":{"ha":1278,"x_min":97,"x_max":1181,"o":"m 556 1024 l 631 719 l 576 511 l 614 501 l 756 1024 l 1181 1024 l 847 -61 l 444 -61 l 97 1024 l 556 1024 z "},"Ⅵ":{"ha":1278,"x_min":11,"x_max":1222,"o":"m 844 -61 l 844 888 l 611 -61 l 289 -61 l 11 1024 l 378 1024 l 438 719 l 394 511 l 425 501 l 538 1024 l 1222 1024 l 1222 -61 l 844 -61 z "},"Ⅶ":{"ha":1278,"x_min":6,"x_max":1250,"o":"m 631 -61 l 631 676 l 486 -61 l 228 -61 l 6 1024 l 299 1024 l 347 719 l 313 511 l 336 501 l 426 1024 l 919 1024 l 919 -61 l 631 -61 m 961 -61 l 961 1024 l 1250 1024 l 1250 -61 l 961 -61 z "},"Ⅷ":{"ha":1278,"x_min":6,"x_max":1254,"o":"m 764 -61 l 764 1024 l 996 1024 l 996 -61 l 764 -61 m 506 -61 l 506 676 l 390 -61 l 183 -61 l 6 1024 l 240 1024 l 279 719 l 251 511 l 269 501 l 342 1024 l 736 1024 l 736 -61 l 506 -61 m 1024 -61 l 1024 1024 l 1254 1024 l 1254 -61 l 1024 -61 z "},"Ⅸ":{"ha":1278,"x_min":42,"x_max":1278,"o":"m 840 139 l 792 -61 l 411 -61 l 411 -62 l 42 -62 l 42 1024 l 792 1024 l 840 824 l 889 1024 l 1278 1024 l 1101 482 l 1278 -61 l 889 -61 l 840 139 m 411 -36 l 579 482 l 411 999 l 411 -36 z "},"Ⅹ":{"ha":1278,"x_min":92,"x_max":1186,"o":"m 639 139 l 578 -61 l 92 -61 l 313 482 l 92 1024 l 578 1024 l 639 824 l 700 1024 l 1186 1024 l 965 482 l 1186 -61 l 700 -61 l 639 139 z "},"Α":{"ha":1139,"x_min":0,"x_max":1139,"o":"m 500 -61 l 0 -61 l 333 1024 l 806 1024 l 1139 -61 l 639 -61 l 569 164 l 500 -61 m 411 517 l 386 479 q 565 429 465 442 q 765 417 665 417 l 765 458 q 574 472 665 458 q 411 517 483 485 z "},"Β":{"ha":1057,"x_min":50,"x_max":1031,"o":"m 761 -61 l 50 -61 l 50 1024 l 751 1024 q 852 1008 804 1024 q 936 961 900 993 q 994 879 972 929 q 1015 760 1015 829 q 976 597 1015 660 q 876 500 938 535 q 987 397 943 471 q 1031 218 1031 322 q 1008 100 1031 151 q 949 13 986 49 q 864 -42 913 -24 q 761 -61 815 -61 m 379 765 l 360 732 q 418 715 383 722 q 491 701 453 707 q 569 691 529 694 q 642 688 608 688 l 642 725 q 570 729 608 725 q 497 739 532 733 q 431 751 461 744 q 379 765 400 758 m 365 293 l 346 260 q 408 242 369 250 q 491 228 447 235 q 578 219 535 222 q 656 215 622 215 l 656 253 q 580 257 622 253 q 497 267 538 261 q 421 279 456 272 q 365 293 386 286 z "},"Γ":{"ha":922,"x_min":50,"x_max":908,"o":"m 467 -62 l 50 -62 l 50 1024 l 908 1024 l 908 669 l 467 669 l 467 -62 z "},"Δ":{"ha":1139,"x_min":0,"x_max":1139,"o":"m 1139 -61 l 0 -61 l 333 1024 l 806 1024 l 1139 -61 m 411 517 l 386 479 q 565 429 465 442 q 765 417 665 417 l 765 458 q 574 472 665 458 q 411 517 483 485 z "},"Ε":{"ha":958,"x_min":50,"x_max":908,"o":"m 908 -62 l 50 -62 l 50 1024 l 908 1024 l 908 697 l 467 697 l 467 649 l 908 649 l 908 313 l 467 313 l 467 264 l 908 264 l 908 -62 z "},"Ζ":{"ha":961,"x_min":28,"x_max":942,"o":"m 458 728 l 50 728 l 50 1024 l 911 1024 l 911 728 l 453 140 l 482 128 l 572 235 l 942 235 l 942 -61 l 28 -61 l 28 182 l 458 728 z "},"Η":{"ha":1157,"x_min":50,"x_max":1107,"o":"m 1107 1024 l 1107 -62 l 603 -62 l 603 185 l 554 185 l 554 -62 l 50 -62 l 50 1024 l 554 1024 l 554 776 l 603 776 l 603 1024 l 1107 1024 z "},"Θ":{"ha":1118,"x_min":35,"x_max":1083,"o":"m 35 481 q 74 725 35 619 q 183 901 114 831 q 349 1008 253 972 q 558 1044 446 1044 q 768 1008 672 1044 q 934 901 864 972 q 1044 725 1004 831 q 1083 481 1083 619 q 1044 236 1083 342 q 934 60 1004 131 q 768 -47 864 -11 q 558 -83 672 -83 q 349 -48 446 -83 q 183 58 253 -12 q 74 235 114 129 q 35 481 35 340 m 397 746 l 372 708 q 551 658 451 671 q 751 646 651 646 l 751 688 q 560 701 651 688 q 397 746 469 714 m 397 329 l 372 292 q 551 242 451 254 q 751 229 651 229 l 751 271 q 560 284 651 271 q 397 329 469 297 z "},"Ι":{"ha":572,"x_min":50,"x_max":522,"o":"m 522 -61 l 50 -61 l 50 1024 l 522 1024 l 522 -61 z "},"Κ":{"ha":1113,"x_min":50,"x_max":1103,"o":"m 522 -61 l 50 -61 l 50 1024 l 522 1024 l 522 861 l 431 601 l 468 592 l 617 1024 l 1103 1024 l 896 482 l 1103 -61 l 617 -61 l 522 214 l 522 -61 z "},"Λ":{"ha":1083,"x_min":0,"x_max":1083,"o":"m 458 -61 l 0 -61 l 347 1024 l 750 1024 l 1083 -61 l 658 -61 l 517 461 l 479 451 l 533 243 l 458 -61 z "},"Μ":{"ha":1326,"x_min":50,"x_max":1276,"o":"m 657 739 l 589 539 l 626 529 l 796 1024 l 1276 1024 l 1276 -61 l 901 -61 l 901 304 l 790 -61 l 540 -61 l 429 304 l 429 -61 l 50 -61 l 50 1024 l 568 1024 l 657 739 z "},"Ν":{"ha":1139,"x_min":50,"x_max":1089,"o":"m 1089 1024 l 1089 -62 l 542 -62 l 431 303 l 431 -62 l 50 -62 l 50 1024 l 599 1024 l 747 592 l 785 601 l 693 861 l 693 1024 l 1089 1024 z "},"Ξ":{"ha":1042,"x_min":50,"x_max":992,"o":"m 992 697 l 50 697 l 50 1024 l 992 1024 l 992 697 m 106 649 l 936 649 l 936 313 l 106 313 l 106 649 m 50 264 l 992 264 l 992 -62 l 50 -62 l 50 264 z "},"Ο":{"ha":1118,"x_min":35,"x_max":1083,"o":"m 35 481 q 74 725 35 619 q 183 901 114 831 q 349 1008 253 972 q 558 1044 446 1044 q 768 1008 672 1044 q 934 901 864 972 q 1044 725 1004 831 q 1083 481 1083 619 q 1044 236 1083 342 q 934 60 1004 131 q 768 -47 864 -11 q 558 -83 672 -83 q 349 -48 446 -83 q 183 58 253 -12 q 74 235 114 129 q 35 481 35 340 m 397 538 l 372 500 q 551 450 451 463 q 751 438 651 438 l 751 479 q 560 492 651 479 q 397 538 469 506 z "},"Π":{"ha":1157,"x_min":50,"x_max":1107,"o":"m 1107 1024 l 1107 -62 l 603 -62 l 603 432 l 554 432 l 554 -62 l 50 -62 l 50 1024 l 1107 1024 z "},"Ρ":{"ha":1064,"x_min":50,"x_max":1032,"o":"m 476 1024 q 731 1001 625 1024 q 903 925 836 978 q 1001 787 969 872 q 1032 578 1032 701 q 902 244 1032 356 q 522 146 772 133 l 522 -62 l 50 -62 l 50 1024 l 476 1024 m 379 594 q 453 561 408 575 q 549 538 499 547 q 649 523 599 528 q 738 518 699 518 l 738 557 q 651 563 699 557 q 558 578 604 568 q 470 601 511 588 q 404 629 429 614 l 379 594 z "},"Σ":{"ha":1326,"x_min":50,"x_max":1276,"o":"m 372 476 l 599 415 l 608 449 l 50 599 l 50 1025 l 1276 1025 l 1276 693 l 864 693 l 1276 594 l 1276 372 l 864 274 l 1276 274 l 1276 -61 l 50 -61 l 50 397 l 372 476 z "},"Τ":{"ha":1042,"x_min":24,"x_max":1018,"o":"m 24 1024 l 1018 1024 l 1018 669 l 757 669 l 757 -62 l 285 -62 l 285 669 l 24 669 l 24 1024 z "},"Υ":{"ha":1139,"x_min":0,"x_max":1139,"o":"m 486 1024 l 568 822 l 494 632 l 532 622 l 686 1024 l 1139 1024 l 821 303 l 821 -61 l 347 -61 l 347 300 l 0 1024 l 486 1024 z "},"Φ":{"ha":1056,"x_min":35,"x_max":1021,"o":"m 35 485 q 104 734 35 629 q 292 892 174 839 l 292 1024 l 764 1024 l 764 892 q 951 734 882 839 q 1021 485 1021 629 q 951 235 1021 340 q 764 76 882 129 l 764 -61 l 292 -61 l 292 76 q 104 234 174 129 q 35 485 35 339 m 297 686 l 263 661 q 291 595 278 636 q 314 508 304 554 q 329 414 324 461 q 335 328 335 367 l 374 328 q 369 417 374 367 q 354 517 364 467 q 330 612 344 567 q 297 686 315 657 m 700 686 l 665 661 q 694 595 681 636 q 717 508 707 554 q 732 414 726 461 q 738 328 738 367 l 776 328 q 772 417 776 367 q 757 517 767 467 q 733 612 747 567 q 700 686 718 657 z "},"Χ":{"ha":1097,"x_min":1,"x_max":1096,"o":"m 549 139 l 488 -61 l 1 -61 l 222 482 l 1 1024 l 488 1024 l 549 824 l 610 1024 l 1096 1024 l 875 482 l 1096 -61 l 610 -61 l 549 139 z "},"Ψ":{"ha":1264,"x_min":50,"x_max":1214,"o":"m 50 586 l 50 1024 l 414 1024 l 414 618 l 451 618 l 451 1024 l 818 1024 l 818 618 l 851 618 l 851 1024 l 1214 1024 l 1214 586 q 1183 404 1214 478 q 1099 283 1153 331 q 974 210 1046 236 q 818 175 901 185 l 818 -61 l 451 -61 l 451 175 q 297 210 369 185 q 169 283 224 235 q 82 404 114 331 q 50 586 50 478 z "},"Ω":{"ha":1303,"x_min":50,"x_max":1253,"o":"m 672 503 q 727 499 694 500 q 793 497 760 497 q 857 495 826 496 q 906 494 888 494 l 906 536 q 788 539 851 536 q 660 548 725 542 q 533 563 596 554 q 417 582 471 571 l 401 540 q 447 531 418 535 q 509 522 476 526 q 572 515 542 518 q 624 508 603 511 l 624 -117 l 63 -117 l 63 192 l 188 192 q 84 360 118 271 q 50 529 50 449 q 88 722 50 629 q 200 886 125 814 q 388 1001 275 958 q 651 1044 501 1044 q 915 1001 801 1044 q 1103 886 1028 958 q 1215 722 1178 814 q 1253 529 1253 629 q 1219 360 1253 449 q 1115 192 1185 271 l 1240 192 l 1240 -117 l 672 -117 l 672 503 l 672 503 z "},"α":{"ha":1203,"x_min":21,"x_max":1153,"o":"m 21 360 q 51 548 21 464 q 138 691 82 632 q 271 783 193 750 q 444 815 349 815 q 681 758 586 815 l 681 801 l 1153 801 l 1153 -61 l 681 -61 l 681 -40 q 444 -97 586 -97 q 271 -65 349 -97 q 138 26 193 -33 q 51 171 82 86 q 21 360 21 256 m 733 389 l 708 424 q 642 395 683 408 q 555 372 601 382 q 461 357 508 363 q 375 351 414 351 l 375 313 q 464 317 414 313 q 564 332 514 322 q 659 356 614 342 q 733 389 704 369 z "},"β":{"ha":1057,"x_min":50,"x_max":1031,"o":"m 761 -61 l 522 -61 l 522 -269 l 50 -269 l 50 779 q 108 960 50 896 q 279 1024 167 1024 l 751 1024 q 852 1008 804 1024 q 936 961 900 993 q 994 879 972 929 q 1015 760 1015 829 q 976 597 1015 660 q 876 500 938 535 q 987 397 943 471 q 1031 218 1031 322 q 1008 100 1031 151 q 949 13 986 49 q 864 -42 913 -24 q 761 -61 815 -61 m 379 765 l 360 732 q 418 715 383 722 q 491 701 453 707 q 569 691 529 694 q 642 688 608 688 l 642 725 q 570 729 608 725 q 497 739 532 733 q 431 751 461 744 q 379 765 400 758 m 365 293 l 346 260 q 408 242 369 250 q 491 228 447 235 q 578 219 535 222 q 656 215 622 215 l 656 253 q 580 257 622 253 q 497 267 538 261 q 421 279 456 272 q 365 293 386 286 z "},"γ":{"ha":1168,"x_min":4,"x_max":1164,"o":"m 1164 556 l 792 181 q 864 110 839 157 q 889 18 889 64 q 862 -99 889 -47 q 788 -187 835 -151 q 679 -244 742 -224 q 546 -264 617 -264 q 407 -244 471 -264 q 297 -191 343 -225 q 224 -110 250 -157 q 199 -7 199 -62 q 236 133 199 71 q 365 233 274 194 q 339 333 361 288 q 285 407 317 378 q 217 444 254 436 q 147 432 181 453 l 4 619 q 145 719 81 689 q 289 749 210 749 q 405 734 353 749 q 501 690 457 719 q 581 613 544 660 q 653 501 618 565 l 939 783 l 1164 556 m 407 50 l 388 17 q 450 -1 411 7 q 533 -15 489 -8 q 620 -24 576 -21 q 697 -28 664 -28 l 697 10 q 622 14 664 10 q 538 24 579 18 q 463 36 497 29 q 407 50 428 43 z "}}}
